<?xml version="1.0" encoding="UTF-8" standalone="no"?>
<!DOCTYPE svg PUBLIC "-//W3C//DTD SVG 1.1//EN"
 "http://www.w3.org/Graphics/SVG/1.1/DTD/svg11.dtd">
<!-- Generated by graphviz version 14.1.2 (20260124.0452)
 -->
<!-- Title: Relationship Visualizer Pages: 1 -->
<svg width="1938pt" height="583pt"
 viewBox="0.00 0.00 1938.00 583.00" xmlns="http://www.w3.org/2000/svg" xmlns:xlink="http://www.w3.org/1999/xlink">
<g id="graph0" class="graph" transform="scale(1 1) rotate(0) translate(4 579.25)">
<title>Relationship Visualizer</title>
<polygon fill="white" stroke="none" points="-4,4 -4,-579.25 1934.25,-579.25 1934.25,4 -4,4"/>
<text xml:space="preserve" text-anchor="middle" x="63.12" y="-552.25" font-family="Arial" font-size="20.00">Metropolitan</text>
<g id="clust13" class="cluster">
<title>cluster_13</title>
<g id="a_clust13"><a xlink:title="West London">
<path fill="#f0f0f0" stroke="#252525" d="M1202,-8C1202,-8 1272.25,-8 1272.25,-8 1278.25,-8 1284.25,-14 1284.25,-20 1284.25,-20 1284.25,-122 1284.25,-122 1284.25,-128 1278.25,-134 1272.25,-134 1272.25,-134 1202,-134 1202,-134 1196,-134 1190,-128 1190,-122 1190,-122 1190,-20 1190,-20 1190,-14 1196,-8 1202,-8"/>
<text xml:space="preserve" text-anchor="middle" x="1237.12" y="-118.6" font-family="Calibri" font-size="12.00">West London</text>
</a>
</g>
</g>
<g id="clust16" class="cluster">
<title>cluster_16</title>
<g id="a_clust16"><a xlink:title="Westminster, West London">
<path fill="#f7fbff" stroke="#08519c" d="M1210,-16C1210,-16 1264.25,-16 1264.25,-16 1270.25,-16 1276.25,-22 1276.25,-28 1276.25,-28 1276.25,-94 1276.25,-94 1276.25,-100 1270.25,-106 1264.25,-106 1264.25,-106 1210,-106 1210,-106 1204,-106 1198,-100 1198,-94 1198,-94 1198,-28 1198,-28 1198,-22 1204,-16 1210,-16"/>
<text xml:space="preserve" text-anchor="middle" x="1237.12" y="-90.6" font-family="Calibri" font-size="12.00">Westminster</text>
</a>
</g>
</g>
<g id="clust23" class="cluster">
<title>cluster_23</title>
<g id="a_clust23"><a xlink:title="Central London">
<path fill="#f0f0f0" stroke="#252525" d="M1488.25,-142C1488.25,-142 1910.25,-142 1910.25,-142 1916.25,-142 1922.25,-148 1922.25,-154 1922.25,-154 1922.25,-256 1922.25,-256 1922.25,-262 1916.25,-268 1910.25,-268 1910.25,-268 1488.25,-268 1488.25,-268 1482.25,-268 1476.25,-262 1476.25,-256 1476.25,-256 1476.25,-154 1476.25,-154 1476.25,-148 1482.25,-142 1488.25,-142"/>
<text xml:space="preserve" text-anchor="middle" x="1699.25" y="-252.6" font-family="Calibri" font-size="12.00">Central London</text>
</a>
</g>
</g>
<g id="clust24" class="cluster">
<title>cluster_24</title>
<g id="a_clust24"><a xlink:title="City of London, Central London">
<path fill="#f7fbff" stroke="#08519c" d="M1586.25,-150C1586.25,-150 1902.25,-150 1902.25,-150 1908.25,-150 1914.25,-156 1914.25,-162 1914.25,-162 1914.25,-228 1914.25,-228 1914.25,-234 1908.25,-240 1902.25,-240 1902.25,-240 1586.25,-240 1586.25,-240 1580.25,-240 1574.25,-234 1574.25,-228 1574.25,-228 1574.25,-162 1574.25,-162 1574.25,-156 1580.25,-150 1586.25,-150"/>
<text xml:space="preserve" text-anchor="middle" x="1744.25" y="-224.6" font-family="Calibri" font-size="12.00">City of London</text>
</a>
</g>
</g>
<g id="clust27" class="cluster">
<title>cluster_27</title>
<g id="a_clust27"><a xlink:title="Islington, Central London">
<path fill="#f7fbff" stroke="#08519c" d="M1496.25,-150C1496.25,-150 1542.25,-150 1542.25,-150 1548.25,-150 1554.25,-156 1554.25,-162 1554.25,-162 1554.25,-228 1554.25,-228 1554.25,-234 1548.25,-240 1542.25,-240 1542.25,-240 1496.25,-240 1496.25,-240 1490.25,-240 1484.25,-234 1484.25,-228 1484.25,-228 1484.25,-162 1484.25,-162 1484.25,-156 1490.25,-150 1496.25,-150"/>
<text xml:space="preserve" text-anchor="middle" x="1519.25" y="-224.6" font-family="Calibri" font-size="12.00">Islington</text>
</a>
</g>
</g>
<g id="clust29" class="cluster">
<title>cluster_29</title>
<g id="a_clust29"><a xlink:title="Harrow">
<path fill="#f0f0f0" stroke="#252525" d="M388,-178C388,-178 1170,-178 1170,-178 1176,-178 1182,-184 1182,-190 1182,-190 1182,-364 1182,-364 1182,-370 1176,-376 1170,-376 1170,-376 388,-376 388,-376 382,-376 376,-370 376,-364 376,-364 376,-190 376,-190 376,-184 382,-178 388,-178"/>
<text xml:space="preserve" text-anchor="middle" x="779" y="-360.6" font-family="Calibri" font-size="12.00">Harrow</text>
</a>
</g>
</g>
<g id="clust30" class="cluster">
<title>cluster_30</title>
<g id="a_clust30"><a xlink:title="Harrow, Harrow">
<path fill="#f7fbff" stroke="#08519c" d="M666,-186C666,-186 1072,-186 1072,-186 1078,-186 1084,-192 1084,-198 1084,-198 1084,-336 1084,-336 1084,-342 1078,-348 1072,-348 1072,-348 666,-348 666,-348 660,-348 654,-342 654,-336 654,-336 654,-198 654,-198 654,-192 660,-186 666,-186"/>
<text xml:space="preserve" text-anchor="middle" x="869" y="-332.6" font-family="Calibri" font-size="12.00">Harrow</text>
</a>
</g>
</g>
<g id="clust32" class="cluster">
<title>cluster_32</title>
<g id="a_clust32"><a xlink:title="Hillingdon, Harrow">
<path fill="#f7fbff" stroke="#08519c" d="M396,-186C396,-186 622,-186 622,-186 628,-186 634,-192 634,-198 634,-198 634,-336 634,-336 634,-342 628,-348 622,-348 622,-348 396,-348 396,-348 390,-348 384,-342 384,-336 384,-336 384,-198 384,-198 384,-192 390,-186 396,-186"/>
<text xml:space="preserve" text-anchor="middle" x="509" y="-332.6" font-family="Calibri" font-size="12.00">Hillingdon</text>
</a>
</g>
</g>
<g id="clust33" class="cluster">
<title>cluster_33</title>
<g id="a_clust33"><a xlink:title="Brent, Harrow">
<path fill="#f7fbff" stroke="#08519c" d="M1116,-222C1116,-222 1162,-222 1162,-222 1168,-222 1174,-228 1174,-234 1174,-234 1174,-300 1174,-300 1174,-306 1168,-312 1162,-312 1162,-312 1116,-312 1116,-312 1110,-312 1104,-306 1104,-300 1104,-300 1104,-234 1104,-234 1104,-228 1110,-222 1116,-222"/>
<text xml:space="preserve" text-anchor="middle" x="1139" y="-296.6" font-family="Calibri" font-size="12.00">Brent</text>
</a>
</g>
</g>
<g id="clust34" class="cluster">
<title>cluster_34</title>
<g id="a_clust34"><a xlink:title="Hemel Hempstead">
<path fill="#f0f0f0" stroke="#252525" d="M20,-70C20,-70 172,-70 172,-70 178,-70 184,-76 184,-82 184,-82 184,-256 184,-256 184,-262 178,-268 172,-268 172,-268 20,-268 20,-268 14,-268 8,-262 8,-256 8,-256 8,-82 8,-82 8,-76 14,-70 20,-70"/>
<text xml:space="preserve" text-anchor="middle" x="96" y="-252.6" font-family="Calibri" font-size="12.00">Hemel Hempstead</text>
</a>
</g>
</g>
<g id="clust35" class="cluster">
<title>cluster_35</title>
<g id="a_clust35"><a xlink:title="Chiltern, Hemel Hempstead">
<path fill="#f7fbff" stroke="#08519c" d="M28,-78C28,-78 164,-78 164,-78 170,-78 176,-84 176,-90 176,-90 176,-228 176,-228 176,-234 170,-240 164,-240 164,-240 28,-240 28,-240 22,-240 16,-234 16,-228 16,-228 16,-90 16,-90 16,-84 22,-78 28,-78"/>
<text xml:space="preserve" text-anchor="middle" x="96" y="-224.6" font-family="Calibri" font-size="12.00">Chiltern</text>
</a>
</g>
</g>
<g id="clust36" class="cluster">
<title>cluster_36</title>
<g id="a_clust36"><a xlink:title="North London">
<path fill="#f0f0f0" stroke="#252525" d="M1394.25,-142C1394.25,-142 1456.25,-142 1456.25,-142 1462.25,-142 1468.25,-148 1468.25,-154 1468.25,-154 1468.25,-256 1468.25,-256 1468.25,-262 1462.25,-268 1456.25,-268 1456.25,-268 1394.25,-268 1394.25,-268 1388.25,-268 1382.25,-262 1382.25,-256 1382.25,-256 1382.25,-154 1382.25,-154 1382.25,-148 1388.25,-142 1394.25,-142"/>
<text xml:space="preserve" text-anchor="middle" x="1425.25" y="-252.6" font-family="Calibri" font-size="12.00">North London</text>
</a>
</g>
</g>
<g id="clust37" class="cluster">
<title>cluster_37</title>
<g id="a_clust37"><a xlink:title="Hackney, North London">
<path fill="#f7fbff" stroke="#08519c" d="M1402.25,-150C1402.25,-150 1448.25,-150 1448.25,-150 1454.25,-150 1460.25,-156 1460.25,-162 1460.25,-162 1460.25,-228 1460.25,-228 1460.25,-234 1454.25,-240 1448.25,-240 1448.25,-240 1402.25,-240 1402.25,-240 1396.25,-240 1390.25,-234 1390.25,-228 1390.25,-228 1390.25,-162 1390.25,-162 1390.25,-156 1396.25,-150 1402.25,-150"/>
<text xml:space="preserve" text-anchor="middle" x="1425.25" y="-224.6" font-family="Calibri" font-size="12.00">Hackney</text>
</a>
</g>
</g>
<g id="clust45" class="cluster">
<title>cluster_45</title>
<g id="a_clust45"><a xlink:title="North West London">
<path fill="#f0f0f0" stroke="#252525" d="M1206.62,-142C1206.62,-142 1362.25,-142 1362.25,-142 1368.25,-142 1374.25,-148 1374.25,-154 1374.25,-154 1374.25,-328 1374.25,-328 1374.25,-334 1368.25,-340 1362.25,-340 1362.25,-340 1206.62,-340 1206.62,-340 1200.62,-340 1194.62,-334 1194.62,-328 1194.62,-328 1194.62,-154 1194.62,-154 1194.62,-148 1200.62,-142 1206.62,-142"/>
<text xml:space="preserve" text-anchor="middle" x="1284.44" y="-324.6" font-family="Calibri" font-size="12.00">North West London</text>
</a>
</g>
</g>
<g id="clust46" class="cluster">
<title>cluster_46</title>
<g id="a_clust46"><a xlink:title="Camden, North West London">
<path fill="#f7fbff" stroke="#08519c" d="M1308.25,-150C1308.25,-150 1354.25,-150 1354.25,-150 1360.25,-150 1366.25,-156 1366.25,-162 1366.25,-162 1366.25,-300 1366.25,-300 1366.25,-306 1360.25,-312 1354.25,-312 1354.25,-312 1308.25,-312 1308.25,-312 1302.25,-312 1296.25,-306 1296.25,-300 1296.25,-300 1296.25,-162 1296.25,-162 1296.25,-156 1302.25,-150 1308.25,-150"/>
<text xml:space="preserve" text-anchor="middle" x="1331.25" y="-296.6" font-family="Calibri" font-size="12.00">Camden</text>
</a>
</g>
</g>
<g id="clust48" class="cluster">
<title>cluster_48</title>
<g id="a_clust48"><a xlink:title="Brent, North West London">
<path fill="#f7fbff" stroke="#08519c" d="M1214.62,-222C1214.62,-222 1260.62,-222 1260.62,-222 1266.62,-222 1272.62,-228 1272.62,-234 1272.62,-234 1272.62,-300 1272.62,-300 1272.62,-306 1266.62,-312 1260.62,-312 1260.62,-312 1214.62,-312 1214.62,-312 1208.62,-312 1202.62,-306 1202.62,-300 1202.62,-300 1202.62,-234 1202.62,-234 1202.62,-228 1208.62,-222 1214.62,-222"/>
<text xml:space="preserve" text-anchor="middle" x="1237.62" y="-296.6" font-family="Calibri" font-size="12.00">Brent</text>
</a>
</g>
</g>
<g id="clust73" class="cluster">
<title>cluster_73</title>
<g id="a_clust73"><a xlink:title="Watford">
<path fill="#f0f0f0" stroke="#252525" d="M204,-106C204,-106 356,-106 356,-106 362,-106 368,-112 368,-118 368,-118 368,-390 368,-390 368,-396 362,-402 356,-402 356,-402 204,-402 204,-402 198,-402 192,-396 192,-390 192,-390 192,-118 192,-118 192,-112 198,-106 204,-106"/>
<text xml:space="preserve" text-anchor="middle" x="280" y="-386.6" font-family="Calibri" font-size="12.00">Watford</text>
</a>
</g>
</g>
<g id="clust74" class="cluster">
<title>cluster_74</title>
<g id="a_clust74"><a xlink:title="Three Rivers, Watford">
<path fill="#f7fbff" stroke="#08519c" d="M212,-114C212,-114 348,-114 348,-114 354,-114 360,-120 360,-126 360,-126 360,-264 360,-264 360,-270 354,-276 348,-276 348,-276 212,-276 212,-276 206,-276 200,-270 200,-264 200,-264 200,-126 200,-126 200,-120 206,-114 212,-114"/>
<text xml:space="preserve" text-anchor="middle" x="280" y="-260.6" font-family="Calibri" font-size="12.00">Three Rivers</text>
</a>
</g>
</g>
<g id="clust75" class="cluster">
<title>cluster_75</title>
<g id="a_clust75"><a xlink:title="Watford, Watford">
<path fill="#f7fbff" stroke="#08519c" d="M212,-284C212,-284 258,-284 258,-284 264,-284 270,-290 270,-296 270,-296 270,-362 270,-362 270,-368 264,-374 258,-374 258,-374 212,-374 212,-374 206,-374 200,-368 200,-362 200,-362 200,-296 200,-296 200,-290 206,-284 212,-284"/>
<text xml:space="preserve" text-anchor="middle" x="235" y="-358.6" font-family="Calibri" font-size="12.00">Watford</text>
</a>
</g>
</g>
<g id="clust79" class="cluster">
<title>cluster_79</title>
<g id="a_clust79"><a xlink:title="Southall">
<path fill="#f0f0f0" stroke="#252525" d="M204,-410C204,-410 450,-410 450,-410 456,-410 462,-416 462,-422 462,-422 462,-524 462,-524 462,-530 456,-536 450,-536 450,-536 204,-536 204,-536 198,-536 192,-530 192,-524 192,-524 192,-422 192,-422 192,-416 198,-410 204,-410"/>
<text xml:space="preserve" text-anchor="middle" x="327" y="-520.6" font-family="Calibri" font-size="12.00">Southall</text>
</a>
</g>
</g>
<g id="clust81" class="cluster">
<title>cluster_81</title>
<g id="a_clust81"><a xlink:title="Hillingdon, Southall">
<path fill="#f7fbff" stroke="#08519c" d="M212,-418C212,-418 442,-418 442,-418 448,-418 454,-424 454,-430 454,-430 454,-496 454,-496 454,-502 448,-508 442,-508 442,-508 212,-508 212,-508 206,-508 200,-502 200,-496 200,-496 200,-430 200,-430 200,-424 206,-418 212,-418"/>
<text xml:space="preserve" text-anchor="middle" x="327" y="-492.6" font-family="Calibri" font-size="12.00">Hillingdon</text>
</a>
</g>
</g>
<!-- Aldgate&#45;&#45;Liverpool Street -->
<g id="edge1" class="edge">
<title>Aldgate&#45;&#45;Liverpool Street</title>
<path fill="none" stroke="#78004c" stroke-width="3" d="M1851.76,-185C1841.42,-185 1829.62,-185 1819.08,-185"/>
</g>
<!-- Liverpool Street&#45;&#45;Moorgate -->
<g id="edge18" class="edge">
<title>Liverpool Street&#45;&#45;Moorgate</title>
<path fill="none" stroke="#78004c" stroke-width="3" d="M1759.28,-185C1749.57,-185 1738.79,-185 1729.09,-185"/>
</g>
<!-- Baker Street&#45;&#45;Finchley Road -->
<g id="edge2" class="edge">
<title>Baker Street&#45;&#45;Finchley Road</title>
<path fill="none" stroke="#78004c" stroke-width="3" d="M1308.59,-266C1293.97,-266 1275.04,-266 1260.4,-266"/>
</g>
<!-- Finchley Road&#45;&#45;Wembley Park -->
<g id="edge11" class="edge">
<title>Finchley Road&#45;&#45;Wembley Park</title>
<path fill="none" stroke="#78004c" stroke-width="3" d="M1210.15,-257C1196.47,-257 1179.98,-257 1166.33,-257"/>
</g>
<!-- Barbican&#45;&#45;Farringdon -->
<g id="edge3" class="edge">
<title>Barbican&#45;&#45;Farringdon</title>
<path fill="none" stroke="#78004c" stroke-width="3" d="M1581.76,-185C1571.42,-185 1559.62,-185 1549.08,-185"/>
</g>
<!-- Farringdon&#45;&#45;Kings Cross St. Pancras -->
<g id="edge10" class="edge">
<title>Farringdon&#45;&#45;Kings Cross St. Pancras</title>
<path fill="none" stroke="#78004c" stroke-width="3" d="M1489.51,-185C1478.54,-185 1466.11,-185 1455.12,-185"/>
</g>
<!-- Chalfont and Latimer&#45;&#45;Amersham -->
<g id="edge4" class="edge">
<title>Chalfont and Latimer&#45;&#45;Amersham</title>
<path fill="none" stroke="#78004c" stroke-width="3" d="M117.35,-131C104.23,-131 87.95,-131 74.8,-131"/>
</g>
<!-- Chalfont and Latimer&#45;&#45;Chesham -->
<g id="edge5" class="edge">
<title>Chalfont and Latimer&#45;&#45;Chesham</title>
<path fill="none" stroke="#78004c" stroke-width="3" d="M117.35,-167C102.35,-167 83.23,-167 69.38,-167"/>
</g>
<!-- Chorleywood&#45;&#45;Chalfont and Latimer -->
<g id="edge6" class="edge">
<title>Chorleywood&#45;&#45;Chalfont and Latimer</title>
<path fill="none" stroke="#78004c" stroke-width="3" d="M205.26,-149C194.29,-149 181.86,-149 170.87,-149"/>
</g>
<!-- Croxley&#45;&#45;Watford -->
<g id="edge7" class="edge">
<title>Croxley&#45;&#45;Watford</title>
<polyline fill="none" stroke="#78004c" stroke-width="3" points="325,-248.39 325,-274.76 325,-301.67"/>
<polyline fill="none" stroke="#78004c" stroke-width="3" points="316,-310.67 258.18,-310.67"/>
<polyline fill="none" stroke="#78004c" stroke-width="3" points="325,-301.67 325,-302.26 324.94,-302.84 324.83,-303.42 324.71,-304 324.54,-304.57 324.31,-305.11 324.09,-305.66 323.81,-306.18 323.48,-306.67 323.16,-307.16 322.78,-307.61 322.36,-308.03 321.95,-308.45 321.49,-308.82 321,-309.15 320.51,-309.48 319.99,-309.76 319.44,-309.98 318.9,-310.21 318.33,-310.38 317.76,-310.49 317.18,-310.61 316.59,-310.67 316,-310.67"/>
</g>
<!-- Eastcote&#45;&#45;Ruislip Manor -->
<g id="edge8" class="edge">
<title>Eastcote&#45;&#45;Ruislip Manor</title>
<path fill="none" stroke="#78004c" stroke-width="3" d="M661.51,-293C650.34,-293 637.47,-293 626.32,-293"/>
</g>
<!-- Ruislip Manor&#45;&#45;Ruislip -->
<g id="edge30" class="edge">
<title>Ruislip Manor&#45;&#45;Ruislip</title>
<path fill="none" stroke="#78004c" stroke-width="3" d="M571.51,-293C560.34,-293 547.47,-293 536.32,-293"/>
</g>
<!-- Euston Square&#45;&#45;Great Portland Street -->
<g id="edge9" class="edge">
<title>Euston Square&#45;&#45;Great Portland Street</title>
<polyline fill="none" stroke="#78004c" stroke-width="3" points="1314.58,-164 1287.76,-164 1247,-164"/>
<polyline fill="none" stroke="#78004c" stroke-width="3" points="1238,-155 1238,-78.35"/>
<polyline fill="none" stroke="#78004c" stroke-width="3" points="1247,-164 1246.41,-164 1245.82,-163.94 1245.24,-163.83 1244.67,-163.71 1244.1,-163.54 1243.56,-163.31 1243.01,-163.09 1242.49,-162.81 1242,-162.48 1241.51,-162.16 1241.05,-161.78 1240.64,-161.36 1240.22,-160.95 1239.84,-160.49 1239.52,-160 1239.19,-159.51 1238.91,-158.99 1238.69,-158.44 1238.46,-157.9 1238.29,-157.33 1238.17,-156.76 1238.06,-156.18 1238,-155.59 1238,-155"/>
</g>
<!-- Great Portland Street&#45;&#45;Baker Street -->
<g id="edge12" class="edge">
<title>Great Portland Street&#45;&#45;Baker Street</title>
<polyline fill="none" stroke="#78004c" stroke-width="3" points="1265.14,-51 1275.12,-51 1275,-51"/>
<polyline fill="none" stroke="#78004c" stroke-width="3" points="1284,-60 1284,-239"/>
<polyline fill="none" stroke="#78004c" stroke-width="3" points="1293,-248 1308.46,-248"/>
<polyline fill="none" stroke="#78004c" stroke-width="3" points="1275,-51 1275.59,-51 1276.18,-51.06 1276.76,-51.17 1277.33,-51.29 1277.9,-51.46 1278.44,-51.69 1278.99,-51.91 1279.51,-52.19 1280,-52.52 1280.49,-52.84 1280.95,-53.22 1281.36,-53.64 1281.78,-54.05 1282.16,-54.51 1282.48,-55 1282.81,-55.49 1283.09,-56.01 1283.31,-56.56 1283.54,-57.1 1283.71,-57.67 1283.83,-58.24 1283.94,-58.82 1284,-59.41 1284,-60"/>
<polyline fill="none" stroke="#78004c" stroke-width="3" points="1293,-248 1292.41,-248 1291.82,-247.94 1291.24,-247.83 1290.67,-247.71 1290.1,-247.54 1289.56,-247.31 1289.01,-247.09 1288.49,-246.81 1288,-246.48 1287.51,-246.16 1287.05,-245.78 1286.64,-245.36 1286.22,-244.95 1285.84,-244.49 1285.52,-244 1285.19,-243.51 1284.91,-242.99 1284.69,-242.44 1284.46,-241.9 1284.29,-241.33 1284.17,-240.76 1284.06,-240.18 1284,-239.59 1284,-239"/>
</g>
<!-- Kings Cross St. Pancras&#45;&#45;Euston Square -->
<g id="edge17" class="edge">
<title>Kings Cross St. Pancras&#45;&#45;Euston Square</title>
<path fill="none" stroke="#78004c" stroke-width="3" d="M1395.51,-185C1383.67,-185 1370.15,-185 1358.56,-185"/>
</g>
<!-- Wembley Park&#45;&#45;Preston Road -->
<g id="edge31" class="edge">
<title>Wembley Park&#45;&#45;Preston Road</title>
<path fill="none" stroke="#78004c" stroke-width="3" d="M1111.51,-257C1100.34,-257 1087.47,-257 1076.32,-257"/>
</g>
<!-- Harrow&#45;on&#45;the&#45;Hill&#45;&#45;North Harrow -->
<g id="edge13" class="edge">
<title>Harrow&#45;on&#45;the&#45;Hill&#45;&#45;North Harrow</title>
<path fill="none" stroke="#78004c" stroke-width="3" d="M845.35,-239C830.35,-239 811.23,-239 797.38,-239"/>
</g>
<!-- Harrow&#45;on&#45;the&#45;Hill&#45;&#45;West Harrow -->
<g id="edge14" class="edge">
<title>Harrow&#45;on&#45;the&#45;Hill&#45;&#45;West Harrow</title>
<path fill="none" stroke="#78004c" stroke-width="3" d="M845.35,-275C830.35,-275 811.23,-275 797.38,-275"/>
</g>
<!-- North Harrow&#45;&#45;Pinner -->
<g id="edge22" class="edge">
<title>North Harrow&#45;&#45;Pinner</title>
<path fill="none" stroke="#78004c" stroke-width="3" d="M751.51,-221C740.34,-221 727.47,-221 716.32,-221"/>
</g>
<!-- West Harrow&#45;&#45;Eastcote -->
<g id="edge32" class="edge">
<title>West Harrow&#45;&#45;Eastcote</title>
<path fill="none" stroke="#78004c" stroke-width="3" d="M751.51,-293C740.34,-293 727.47,-293 716.32,-293"/>
</g>
<!-- Hillingdon&#45;&#45;Uxbridge -->
<g id="edge15" class="edge">
<title>Hillingdon&#45;&#45;Uxbridge</title>
<path fill="none" stroke="#78004c" stroke-width="3" d="M297.51,-453C286.34,-453 273.47,-453 262.32,-453"/>
</g>
<!-- Ickenham&#45;&#45;Hillingdon -->
<g id="edge16" class="edge">
<title>Ickenham&#45;&#45;Hillingdon</title>
<path fill="none" stroke="#78004c" stroke-width="3" d="M391.56,-453C379.2,-453 364.65,-453 352.31,-453"/>
</g>
<!-- Moorgate&#45;&#45;Barbican -->
<g id="edge21" class="edge">
<title>Moorgate&#45;&#45;Barbican</title>
<path fill="none" stroke="#78004c" stroke-width="3" d="M1669.28,-185C1658.75,-185 1646.97,-185 1636.66,-185"/>
</g>
<!-- Moor Park&#45;&#45;Croxley -->
<g id="edge19" class="edge">
<title>Moor Park&#45;&#45;Croxley</title>
<path fill="none" stroke="#78004c" stroke-width="3" d="M391.56,-221C379.2,-221 364.65,-221 352.31,-221"/>
</g>
<!-- Moor Park&#45;&#45;Rickmansworth -->
<g id="edge20" class="edge">
<title>Moor Park&#45;&#45;Rickmansworth</title>
<polyline fill="none" stroke="#78004c" stroke-width="3" points="419,-193.71 419,-181.58 419,-179"/>
<polyline fill="none" stroke="#78004c" stroke-width="3" points="410,-170 346.33,-170"/>
<polyline fill="none" stroke="#78004c" stroke-width="3" points="410,-170 410.59,-170 411.18,-170.06 411.76,-170.17 412.33,-170.29 412.9,-170.46 413.44,-170.69 413.99,-170.91 414.51,-171.19 415,-171.52 415.49,-171.84 415.95,-172.22 416.36,-172.64 416.78,-173.05 417.16,-173.51 417.48,-174 417.81,-174.49 418.09,-175.01 418.31,-175.56 418.54,-176.1 418.71,-176.67 418.83,-177.24 418.94,-177.82 419,-178.41 419,-179"/>
</g>
<!-- Rickmansworth&#45;&#45;Chorleywood -->
<g id="edge28" class="edge">
<title>Rickmansworth&#45;&#45;Chorleywood</title>
<path fill="none" stroke="#78004c" stroke-width="3" d="M295.03,-149C285.32,-149 274.54,-149 264.84,-149"/>
</g>
<!-- Pinner&#45;&#45;Northwood Hills -->
<g id="edge26" class="edge">
<title>Pinner&#45;&#45;Northwood Hills</title>
<path fill="none" stroke="#78004c" stroke-width="3" d="M661.51,-221C650.34,-221 637.47,-221 626.32,-221"/>
</g>
<!-- Northwick Park&#45;&#45;Harrow&#45;on&#45;the&#45;Hill -->
<g id="edge23" class="edge">
<title>Northwick Park&#45;&#45;Harrow&#45;on&#45;the&#45;Hill</title>
<path fill="none" stroke="#78004c" stroke-width="3" d="M931.51,-257C921.17,-257 909.37,-257 898.83,-257"/>
</g>
<!-- Northwood&#45;&#45;Moor Park -->
<g id="edge24" class="edge">
<title>Northwood&#45;&#45;Moor Park</title>
<path fill="none" stroke="#78004c" stroke-width="3" d="M481.51,-221C470.34,-221 457.47,-221 446.32,-221"/>
</g>
<!-- Northwood Hills&#45;&#45;Northwood -->
<g id="edge25" class="edge">
<title>Northwood Hills&#45;&#45;Northwood</title>
<path fill="none" stroke="#78004c" stroke-width="3" d="M571.51,-221C560.34,-221 547.47,-221 536.32,-221"/>
</g>
<!-- Preston Road&#45;&#45;Northwick Park -->
<g id="edge27" class="edge">
<title>Preston Road&#45;&#45;Northwick Park</title>
<path fill="none" stroke="#78004c" stroke-width="3" d="M1021.51,-257C1010.34,-257 997.47,-257 986.32,-257"/>
</g>
<!-- Ruislip&#45;&#45;Ickenham -->
<g id="edge29" class="edge">
<title>Ruislip&#45;&#45;Ickenham</title>
<polyline fill="none" stroke="#78004c" stroke-width="3" points="485.82,-301.33 459.16,-301.33 428,-301.33"/>
<polyline fill="none" stroke="#78004c" stroke-width="3" points="419,-310.33 419,-425.53"/>
<polyline fill="none" stroke="#78004c" stroke-width="3" points="419,-310.33 419,-309.74 419.06,-309.16 419.17,-308.58 419.29,-308 419.46,-307.43 419.69,-306.89 419.91,-306.34 420.19,-305.82 420.52,-305.33 420.84,-304.84 421.22,-304.39 421.64,-303.97 422.05,-303.55 422.51,-303.18 423,-302.85 423.49,-302.52 424.01,-302.24 424.56,-302.02 425.1,-301.79 425.67,-301.62 426.24,-301.51 426.82,-301.39 427.41,-301.33 428,-301.33"/>
</g>
<!-- Aldgate -->
<g id="node1" class="node">
<title>Aldgate</title>
<g id="a_node1"><a xlink:title="Aldgate Station&#10;Portsoken&#10;City of London&#10;Central London&#10;EC3N 1AH&#10;&#10;Latitude: 51.5143422574978&#10;Longitude: &#45;7.56269123224862E&#45;02">
<polygon fill="White" stroke="DimGray" points="1906.25,-185 1892.75,-212 1865.75,-212 1852.25,-185 1865.75,-158 1892.75,-158 1906.25,-185"/>
<text xml:space="preserve" text-anchor="middle" x="1879.25" y="-181.88" font-family="Gill Sans MT" font-size="10.00">Aldgate</text>
</a>
</g>
</g>
<!-- Liverpool Street -->
<g id="node2" class="node">
<title>Liverpool Street</title>
<g id="a_node2"><a xlink:title="Liverpool Street Station&#10;Bishopsgate&#10;City of London&#10;Central London&#10;EC2M 7PR&#10;&#10;Latitude: 51.517598132254&#10;Longitude: &#45;8.22496218888544E&#45;02">
<ellipse fill="White" stroke="black" stroke-width="6" cx="1789.25" cy="-185" rx="27" ry="27"/>
<text xml:space="preserve" text-anchor="middle" x="1789.25" y="-188.25" font-family="Gill Sans MT" font-size="10.00">Liverpool</text>
<text xml:space="preserve" text-anchor="middle" x="1789.25" y="-175.5" font-family="Gill Sans MT" font-size="10.00">Street</text>
</a>
</g>
</g>
<!-- Baker Street -->
<g id="node3" class="node">
<title>Baker Street</title>
<g id="a_node3"><a xlink:title="Baker Street Station&#10;Regent&#39;s Park&#10;Camden&#10;North West London&#10;NW1 5LA&#10;&#10;Latitude: 51.5231293660588&#10;Longitude: &#45;0.156904192986184">
<polygon fill="White" stroke="DimGray" points="1358.25,-257 1344.75,-284 1317.75,-284 1304.25,-257 1317.75,-230 1344.75,-230 1358.25,-257"/>
<text xml:space="preserve" text-anchor="middle" x="1331.25" y="-260.25" font-family="Gill Sans MT" font-size="10.00">Baker</text>
<text xml:space="preserve" text-anchor="middle" x="1331.25" y="-247.5" font-family="Gill Sans MT" font-size="10.00">Street</text>
</a>
</g>
</g>
<!-- Finchley Road -->
<g id="node4" class="node">
<title>Finchley Road</title>
<g id="a_node4"><a xlink:title="Finchley Road Station&#10;South Hampstead&#10;Brent&#10;North West London&#10;NW6 3BS&#10;&#10;Latitude: 51.5470959064343&#10;Longitude: &#45;0.180050558632493">
<polygon fill="White" stroke="DimGray" points="1264.62,-257 1251.12,-284 1224.12,-284 1210.62,-257 1224.12,-230 1251.12,-230 1264.62,-257"/>
<text xml:space="preserve" text-anchor="middle" x="1237.62" y="-260.25" font-family="Gill Sans MT" font-size="10.00">Finchley</text>
<text xml:space="preserve" text-anchor="middle" x="1237.62" y="-247.5" font-family="Gill Sans MT" font-size="10.00">Road</text>
</a>
</g>
</g>
<!-- Barbican -->
<g id="node5" class="node">
<title>Barbican</title>
<g id="a_node5"><a xlink:title="Barbican Station&#10;Farringdon Within&#10;City of London&#10;Central London&#10;EC1A 4JA&#10;&#10;Latitude: 51.5202151261078&#10;Longitude: &#45;9.77215780905022E&#45;02">
<polygon fill="White" stroke="DimGray" points="1636.25,-185 1622.75,-212 1595.75,-212 1582.25,-185 1595.75,-158 1622.75,-158 1636.25,-185"/>
<text xml:space="preserve" text-anchor="middle" x="1609.25" y="-181.88" font-family="Gill Sans MT" font-size="10.00">Barbican</text>
</a>
</g>
</g>
<!-- Farringdon -->
<g id="node6" class="node">
<title>Farringdon</title>
<g id="a_node6"><a xlink:title="Farringdon Station&#10;Clerkenwell&#10;Islington&#10;Central London&#10;EC1M 6BY&#10;&#10;Latitude: 51.5201955191977&#10;Longitude: &#45;0.104843061316764">
<ellipse fill="White" stroke="black" stroke-width="6" cx="1519.25" cy="-185" rx="27" ry="27"/>
<text xml:space="preserve" text-anchor="middle" x="1519.25" y="-181.88" font-family="Gill Sans MT" font-size="10.00">Farringdon</text>
</a>
</g>
</g>
<!-- Chalfont and Latimer -->
<g id="node7" class="node">
<title>Chalfont and Latimer</title>
<g id="a_node7"><a xlink:title="Chalfont and Latimer Station&#10;Little Chalfont and Amersham Common&#10;Chiltern&#10;Hemel Hempstead&#10;HP7 9PR&#10;&#10;Latitude: 51.6679065638921&#10;Longitude: &#45;0.561067758943182">
<ellipse fill="White" stroke="black" stroke-width="6" cx="141" cy="-149" rx="27" ry="27"/>
<text xml:space="preserve" text-anchor="middle" x="141" y="-158.62" font-family="Gill Sans MT" font-size="10.00">Chalfont</text>
<text xml:space="preserve" text-anchor="middle" x="141" y="-145.88" font-family="Gill Sans MT" font-size="10.00">and</text>
<text xml:space="preserve" text-anchor="middle" x="141" y="-133.12" font-family="Gill Sans MT" font-size="10.00">Latimer</text>
</a>
</g>
</g>
<!-- Amersham -->
<g id="node8" class="node">
<title>Amersham</title>
<g id="a_node8"><a xlink:title="Amersham Station&#10;Amersham and Chesham Bois&#10;Chiltern&#10;Hemel Hempstead&#10;HP6 5AZ&#10;&#10;Latitude: 51.6741283283426&#10;Longitude: &#45;0.60651376787779">
<ellipse fill="White" stroke="black" stroke-width="6" cx="51" cy="-113" rx="27" ry="27"/>
<text xml:space="preserve" text-anchor="middle" x="51" y="-109.88" font-family="Gill Sans MT" font-size="10.00">Amersham</text>
</a>
</g>
</g>
<!-- Chesham -->
<g id="node9" class="node">
<title>Chesham</title>
<g id="a_node9"><a xlink:title="Chesham Station&#10;Chess Valley&#10;Chiltern&#10;Hemel Hempstead&#10;HP5 1DH&#10;&#10;Latitude: 51.7053790233012&#10;Longitude: &#45;0.611429635297931">
<polygon fill="White" stroke="DimGray" points="78,-185 64.5,-212 37.5,-212 24,-185 37.5,-158 64.5,-158 78,-185"/>
<text xml:space="preserve" text-anchor="middle" x="51" y="-181.88" font-family="Gill Sans MT" font-size="10.00">Chesham</text>
</a>
</g>
</g>
<!-- Chorleywood -->
<g id="node10" class="node">
<title>Chorleywood</title>
<g id="a_node10"><a xlink:title="Chorleywood Station&#10;Chorleywood North &amp; Sarratt&#10;Three Rivers&#10;Watford&#10;WD3 5ND&#10;&#10;Latitude: 51.6542650809276&#10;Longitude: &#45;0.518333910857156">
<ellipse fill="White" stroke="black" stroke-width="6" cx="235" cy="-149" rx="27" ry="27"/>
<text xml:space="preserve" text-anchor="middle" x="235" y="-145.88" font-family="Gill Sans MT" font-size="10.00">Chorleywood</text>
</a>
</g>
</g>
<!-- Croxley -->
<g id="node11" class="node">
<title>Croxley</title>
<g id="a_node11"><a xlink:title="Croxley Station&#10;Dickinsons&#10;Three Rivers&#10;Watford&#10;WD3 3DY&#10;&#10;Latitude: 51.6470045601111&#10;Longitude: &#45;0.441603786877925">
<polygon fill="White" stroke="DimGray" points="352,-221 338.5,-248 311.5,-248 298,-221 311.5,-194 338.5,-194 352,-221"/>
<text xml:space="preserve" text-anchor="middle" x="325" y="-217.88" font-family="Gill Sans MT" font-size="10.00">Croxley</text>
</a>
</g>
</g>
<!-- Watford -->
<g id="node12" class="node">
<title>Watford</title>
<g id="a_node12"><a xlink:title="Watford Station&#10;Park&#10;Watford&#10;Watford&#10;WD18 7LE&#10;&#10;Latitude: 51.6576044159566&#10;Longitude: &#45;0.417269996729953">
<polygon fill="White" stroke="DimGray" points="262,-319 248.5,-346 221.5,-346 208,-319 221.5,-292 248.5,-292 262,-319"/>
<text xml:space="preserve" text-anchor="middle" x="235" y="-315.88" font-family="Gill Sans MT" font-size="10.00">Watford</text>
</a>
</g>
</g>
<!-- Eastcote -->
<g id="node13" class="node">
<title>Eastcote</title>
<g id="a_node13"><a xlink:title="Eastcote Station&#10;Eastcote&#10;Harrow&#10;Harrow&#10;HA5 1QZ&#10;&#10;Latitude: 51.5765511761409&#10;Longitude: &#45;0.396823290149802">
<polygon fill="White" stroke="DimGray" points="716,-293 702.5,-320 675.5,-320 662,-293 675.5,-266 702.5,-266 716,-293"/>
<text xml:space="preserve" text-anchor="middle" x="689" y="-289.88" font-family="Gill Sans MT" font-size="10.00">Eastcote</text>
</a>
</g>
</g>
<!-- Ruislip Manor -->
<g id="node14" class="node">
<title>Ruislip Manor</title>
<g id="a_node14"><a xlink:title="Ruislip Manor Station&#10;Ruislip Manor&#10;Hillingdon&#10;Harrow&#10;HA4 9AA&#10;&#10;Latitude: 51.5734509011491&#10;Longitude: &#45;0.412849344431848">
<polygon fill="White" stroke="DimGray" points="626,-293 612.5,-320 585.5,-320 572,-293 585.5,-266 612.5,-266 626,-293"/>
<text xml:space="preserve" text-anchor="middle" x="599" y="-296.25" font-family="Gill Sans MT" font-size="10.00">Ruislip</text>
<text xml:space="preserve" text-anchor="middle" x="599" y="-283.5" font-family="Gill Sans MT" font-size="10.00">Manor</text>
</a>
</g>
</g>
<!-- Euston Square -->
<g id="node15" class="node">
<title>Euston Square</title>
<g id="a_node15"><a xlink:title="Euston Square Station&#10;Regent&#39;s Park&#10;Camden&#10;North West London&#10;NW1 2BN&#10;&#10;Latitude: 51.5254683829995&#10;Longitude: &#45;0.135344488442691">
<polygon fill="White" stroke="DimGray" points="1358.25,-185 1344.75,-212 1317.75,-212 1304.25,-185 1317.75,-158 1344.75,-158 1358.25,-185"/>
<text xml:space="preserve" text-anchor="middle" x="1331.25" y="-188.25" font-family="Gill Sans MT" font-size="10.00">Euston</text>
<text xml:space="preserve" text-anchor="middle" x="1331.25" y="-175.5" font-family="Gill Sans MT" font-size="10.00">Square</text>
</a>
</g>
</g>
<!-- Great Portland Street -->
<g id="node16" class="node">
<title>Great Portland Street</title>
<g id="a_node16"><a xlink:title="Great Portland Street Station&#10;West End&#10;Westminster&#10;West London&#10;W1W 5PP&#10;&#10;Latitude: 51.5237885627179&#10;Longitude: &#45;0.14396142408109">
<polygon fill="White" stroke="DimGray" points="1264.62,-51 1251.12,-78 1224.12,-78 1210.62,-51 1224.12,-24 1251.12,-24 1264.62,-51"/>
<text xml:space="preserve" text-anchor="middle" x="1237.62" y="-60.62" font-family="Gill Sans MT" font-size="10.00">Great</text>
<text xml:space="preserve" text-anchor="middle" x="1237.62" y="-47.88" font-family="Gill Sans MT" font-size="10.00">Portland</text>
<text xml:space="preserve" text-anchor="middle" x="1237.62" y="-35.12" font-family="Gill Sans MT" font-size="10.00">Street</text>
</a>
</g>
</g>
<!-- Kings Cross St. Pancras -->
<g id="node17" class="node">
<title>Kings Cross St. Pancras</title>
<g id="a_node17"><a xlink:title="Kings Cross St. Pancras Station&#10;King&#39;s Cross&#10;Hackney&#10;North London&#10;N1 9AL&#10;&#10;Latitude: 51.5303122619462&#10;Longitude: &#45;0.123872128687034">
<ellipse fill="White" stroke="black" stroke-width="6" cx="1425.25" cy="-185" rx="27" ry="27"/>
<text xml:space="preserve" text-anchor="middle" x="1425.25" y="-201" font-family="Gill Sans MT" font-size="10.00">Kings</text>
<text xml:space="preserve" text-anchor="middle" x="1425.25" y="-188.25" font-family="Gill Sans MT" font-size="10.00">Cross</text>
<text xml:space="preserve" text-anchor="middle" x="1425.25" y="-175.5" font-family="Gill Sans MT" font-size="10.00">St.</text>
<text xml:space="preserve" text-anchor="middle" x="1425.25" y="-162.75" font-family="Gill Sans MT" font-size="10.00">Pancras</text>
</a>
</g>
</g>
<!-- Wembley Park -->
<g id="node18" class="node">
<title>Wembley Park</title>
<g id="a_node18"><a xlink:title="Wembley Park Station&#10;Barnhill&#10;Brent&#10;Harrow&#10;HA9 9AA&#10;&#10;Latitude: 51.5633220034915&#10;Longitude: &#45;0.279242548111156">
<polygon fill="White" stroke="DimGray" points="1166,-257 1152.5,-284 1125.5,-284 1112,-257 1125.5,-230 1152.5,-230 1166,-257"/>
<text xml:space="preserve" text-anchor="middle" x="1139" y="-260.25" font-family="Gill Sans MT" font-size="10.00">Wembley</text>
<text xml:space="preserve" text-anchor="middle" x="1139" y="-247.5" font-family="Gill Sans MT" font-size="10.00">Park</text>
</a>
</g>
</g>
<!-- Harrow&#45;on&#45;the&#45;Hill -->
<g id="node19" class="node">
<title>Harrow&#45;on&#45;the&#45;Hill</title>
<g id="a_node19"><a xlink:title="Harrow&#45;on&#45;the&#45;Hill Station&#10;Greenhill&#10;Harrow&#10;Harrow&#10;HA1 1BB&#10;&#10;Latitude: 51.5793875695421&#10;Longitude: &#45;0.337001510706095">
<ellipse fill="White" stroke="black" stroke-width="6" cx="869" cy="-257" rx="27" ry="27"/>
<text xml:space="preserve" text-anchor="middle" x="869" y="-253.88" font-family="Gill Sans MT" font-size="10.00">Harrow&#45;on&#45;the&#45;Hill</text>
</a>
</g>
</g>
<!-- North Harrow -->
<g id="node20" class="node">
<title>North Harrow</title>
<g id="a_node20"><a xlink:title="North Harrow Station&#10;North Harrow&#10;Harrow&#10;Harrow&#10;HA2 7SR&#10;&#10;Latitude: 51.5846307078439&#10;Longitude: &#45;0.362632985599068">
<polygon fill="White" stroke="DimGray" points="806,-221 792.5,-248 765.5,-248 752,-221 765.5,-194 792.5,-194 806,-221"/>
<text xml:space="preserve" text-anchor="middle" x="779" y="-224.25" font-family="Gill Sans MT" font-size="10.00">North</text>
<text xml:space="preserve" text-anchor="middle" x="779" y="-211.5" font-family="Gill Sans MT" font-size="10.00">Harrow</text>
</a>
</g>
</g>
<!-- West Harrow -->
<g id="node21" class="node">
<title>West Harrow</title>
<g id="a_node21"><a xlink:title="West Harrow Station&#10;North Harrow&#10;Harrow&#10;Harrow&#10;HA1 4HE&#10;&#10;Latitude: 51.5789236612616&#10;Longitude: &#45;0.35384668986843">
<polygon fill="White" stroke="DimGray" points="806,-293 792.5,-320 765.5,-320 752,-293 765.5,-266 792.5,-266 806,-293"/>
<text xml:space="preserve" text-anchor="middle" x="779" y="-296.25" font-family="Gill Sans MT" font-size="10.00">West</text>
<text xml:space="preserve" text-anchor="middle" x="779" y="-283.5" font-family="Gill Sans MT" font-size="10.00">Harrow</text>
</a>
</g>
</g>
<!-- Hillingdon -->
<g id="node22" class="node">
<title>Hillingdon</title>
<g id="a_node22"><a xlink:title="Hillingdon Station&#10;Hillingdon East&#10;Hillingdon&#10;Southall&#10;UB10 9NR&#10;&#10;Latitude: 51.5537767817636&#10;Longitude: &#45;0.44989798162302">
<polygon fill="White" stroke="DimGray" points="352,-453 338.5,-480 311.5,-480 298,-453 311.5,-426 338.5,-426 352,-453"/>
<text xml:space="preserve" text-anchor="middle" x="325" y="-449.88" font-family="Gill Sans MT" font-size="10.00">Hillingdon</text>
</a>
</g>
</g>
<!-- Uxbridge -->
<g id="node23" class="node">
<title>Uxbridge</title>
<g id="a_node23"><a xlink:title="Uxbridge Station&#10;Uxbridge&#10;Hillingdon&#10;Southall&#10;UB8 1JZ&#10;&#10;Latitude: 51.5464537278672&#10;Longitude: &#45;0.477101546420974">
<polygon fill="White" stroke="DimGray" points="262,-453 248.5,-480 221.5,-480 208,-453 221.5,-426 248.5,-426 262,-453"/>
<text xml:space="preserve" text-anchor="middle" x="235" y="-449.88" font-family="Gill Sans MT" font-size="10.00">Uxbridge</text>
</a>
</g>
</g>
<!-- Ickenham -->
<g id="node24" class="node">
<title>Ickenham</title>
<g id="a_node24"><a xlink:title="Ickenham Station&#10;Ickenham &amp; South Harefield&#10;Hillingdon&#10;Southall&#10;UB10 8PD&#10;&#10;Latitude: 51.5608243329119&#10;Longitude: &#45;0.441579501268799">
<polygon fill="White" stroke="DimGray" points="446,-453 432.5,-480 405.5,-480 392,-453 405.5,-426 432.5,-426 446,-453"/>
<text xml:space="preserve" text-anchor="middle" x="419" y="-449.88" font-family="Gill Sans MT" font-size="10.00">Ickenham</text>
</a>
</g>
</g>
<!-- Moorgate -->
<g id="node25" class="node">
<title>Moorgate</title>
<g id="a_node25"><a xlink:title="Moorgate Station&#10;Coleman Street&#10;City of London&#10;Central London&#10;EC2M 6TX&#10;&#10;Latitude: 51.5184369958311&#10;Longitude: &#45;8.90176874196191E&#45;02">
<ellipse fill="White" stroke="black" stroke-width="6" cx="1699.25" cy="-185" rx="27" ry="27"/>
<text xml:space="preserve" text-anchor="middle" x="1699.25" y="-181.88" font-family="Gill Sans MT" font-size="10.00">Moorgate</text>
</a>
</g>
</g>
<!-- Moor Park -->
<g id="node26" class="node">
<title>Moor Park</title>
<g id="a_node26"><a xlink:title="Moor Park Station&#10;Moor Park &amp; Eastbury&#10;Hillingdon&#10;Harrow&#10;HA6 2JQ&#10;&#10;Latitude: 51.6299299595336&#10;Longitude: &#45;0.432913016495896">
<polygon fill="White" stroke="DimGray" points="446,-221 432.5,-248 405.5,-248 392,-221 405.5,-194 432.5,-194 446,-221"/>
<text xml:space="preserve" text-anchor="middle" x="419" y="-224.25" font-family="Gill Sans MT" font-size="10.00">Moor</text>
<text xml:space="preserve" text-anchor="middle" x="419" y="-211.5" font-family="Gill Sans MT" font-size="10.00">Park</text>
</a>
</g>
</g>
<!-- Rickmansworth -->
<g id="node27" class="node">
<title>Rickmansworth</title>
<g id="a_node27"><a xlink:title="Rickmansworth Station&#10;Rickmansworth Town&#10;Three Rivers&#10;Watford&#10;WD3 1QY&#10;&#10;Latitude: 51.6403222419336&#10;Longitude: &#45;0.473684571012875">
<ellipse fill="White" stroke="black" stroke-width="6" cx="325" cy="-149" rx="27" ry="27"/>
<text xml:space="preserve" text-anchor="middle" x="325" y="-145.88" font-family="Gill Sans MT" font-size="10.00">Rickmansworth</text>
</a>
</g>
</g>
<!-- Pinner -->
<g id="node28" class="node">
<title>Pinner</title>
<g id="a_node28"><a xlink:title="Pinner Station&#10;Pinner&#10;Harrow&#10;Harrow&#10;HA5 5LZ&#10;&#10;Latitude: 51.5923610566071&#10;Longitude: &#45;0.38122378173761">
<polygon fill="White" stroke="DimGray" points="716,-221 702.5,-248 675.5,-248 662,-221 675.5,-194 702.5,-194 716,-221"/>
<text xml:space="preserve" text-anchor="middle" x="689" y="-217.88" font-family="Gill Sans MT" font-size="10.00">Pinner</text>
</a>
</g>
</g>
<!-- Northwick Park -->
<g id="node29" class="node">
<title>Northwick Park</title>
<g id="a_node29"><a xlink:title="Northwick Park Station&#10;Kenton&#10;Harrow&#10;Harrow&#10;HA3 0AT&#10;&#10;Latitude: 51.578508169653&#10;Longitude: &#45;0.318199386013368">
<polygon fill="White" stroke="DimGray" points="986,-257 972.5,-284 945.5,-284 932,-257 945.5,-230 972.5,-230 986,-257"/>
<text xml:space="preserve" text-anchor="middle" x="959" y="-260.25" font-family="Gill Sans MT" font-size="10.00">Northwick</text>
<text xml:space="preserve" text-anchor="middle" x="959" y="-247.5" font-family="Gill Sans MT" font-size="10.00">Park</text>
</a>
</g>
</g>
<!-- Northwood -->
<g id="node30" class="node">
<title>Northwood</title>
<g id="a_node30"><a xlink:title="Northwood Station&#10;Northwood&#10;Hillingdon&#10;Harrow&#10;HA6 2XL&#10;&#10;Latitude: 51.6112129195813&#10;Longitude: &#45;0.423837776195817">
<polygon fill="White" stroke="DimGray" points="536,-221 522.5,-248 495.5,-248 482,-221 495.5,-194 522.5,-194 536,-221"/>
<text xml:space="preserve" text-anchor="middle" x="509" y="-217.88" font-family="Gill Sans MT" font-size="10.00">Northwood</text>
</a>
</g>
</g>
<!-- Northwood Hills -->
<g id="node31" class="node">
<title>Northwood Hills</title>
<g id="a_node31"><a xlink:title="Northwood Hills Station&#10;Northwood Hills&#10;Hillingdon&#10;Harrow&#10;HA6 1NZ&#10;&#10;Latitude: 51.6008019779143&#10;Longitude: &#45;0.409311348056892">
<polygon fill="White" stroke="DimGray" points="626,-221 612.5,-248 585.5,-248 572,-221 585.5,-194 612.5,-194 626,-221"/>
<text xml:space="preserve" text-anchor="middle" x="599" y="-224.25" font-family="Gill Sans MT" font-size="10.00">Northwood</text>
<text xml:space="preserve" text-anchor="middle" x="599" y="-211.5" font-family="Gill Sans MT" font-size="10.00">Hills</text>
</a>
</g>
</g>
<!-- Preston Road -->
<g id="node32" class="node">
<title>Preston Road</title>
<g id="a_node32"><a xlink:title="Preston Road Station&#10;Kenton&#10;Harrow&#10;Harrow&#10;HA3 0PS&#10;&#10;Latitude: 51.5721032477992&#10;Longitude: &#45;0.294972007483066">
<polygon fill="White" stroke="DimGray" points="1076,-257 1062.5,-284 1035.5,-284 1022,-257 1035.5,-230 1062.5,-230 1076,-257"/>
<text xml:space="preserve" text-anchor="middle" x="1049" y="-260.25" font-family="Gill Sans MT" font-size="10.00">Preston</text>
<text xml:space="preserve" text-anchor="middle" x="1049" y="-247.5" font-family="Gill Sans MT" font-size="10.00">Road</text>
</a>
</g>
</g>
<!-- Ruislip -->
<g id="node33" class="node">
<title>Ruislip</title>
<g id="a_node33"><a xlink:title="Ruislip Station&#10;Ruislip&#10;Hillingdon&#10;Harrow&#10;HA4 8LD&#10;&#10;Latitude: 51.5721612338761&#10;Longitude: &#45;0.421234915592132">
<polygon fill="White" stroke="DimGray" points="536,-293 522.5,-320 495.5,-320 482,-293 495.5,-266 522.5,-266 536,-293"/>
<text xml:space="preserve" text-anchor="middle" x="509" y="-289.88" font-family="Gill Sans MT" font-size="10.00">Ruislip</text>
</a>
</g>
</g>
</g>
</svg>
