<?xml version="1.0" encoding="UTF-8" standalone="no"?>
<!DOCTYPE svg PUBLIC "-//W3C//DTD SVG 1.1//EN"
 "http://www.w3.org/Graphics/SVG/1.1/DTD/svg11.dtd">
<!-- Generated by graphviz version 14.1.2 (20260124.0452)
 -->
<!-- Title: Relationship Visualizer Pages: 1 -->
<svg width="392pt" height="432pt"
 viewBox="0.00 0.00 392.00 432.00" xmlns="http://www.w3.org/2000/svg" xmlns:xlink="http://www.w3.org/1999/xlink">
<g id="graph0" class="graph" transform="scale(0.991286 0.991286) rotate(0) translate(4 431.8)">
<title>Relationship Visualizer</title>
<polygon fill="white" stroke="none" points="-4,4 -4,-431.8 391.3,-431.8 391.3,4 -4,4"/>
<text xml:space="preserve" text-anchor="middle" x="193.65" y="-410.5" font-family="Times New Roman,serif" font-size="14.00">Continent Area (M km²)</text>
<!-- Africa -->
<g id="node1" class="node">
<title>Africa</title>
<polygon fill="#faf0e1" stroke="#a8783c" points="387.3,-387.3 197.53,-387.3 197.53,-227.31 387.3,-227.31 387.3,-387.3"/>
<text xml:space="preserve" text-anchor="middle" x="292.42" y="-311.65" font-family="Verdana" font-size="12.00">Africa</text>
<text xml:space="preserve" text-anchor="middle" x="292.42" y="-295.9" font-family="Verdana" font-size="12.00">3.0 M km²</text>
</g>
<!-- Antarctica -->
<g id="node2" class="node">
<title>Antarctica</title>
<polygon fill="#f5faff" stroke="#7896aa" points="320.15,-126.94 209.77,-126.94 209.77,0 320.15,0 320.15,-126.94"/>
<text xml:space="preserve" text-anchor="middle" x="264.96" y="-67.82" font-family="Verdana" font-size="12.00">Antarctica</text>
<text xml:space="preserve" text-anchor="middle" x="264.96" y="-52.07" font-family="Verdana" font-size="12.00">1.4 M km²</text>
</g>
<!-- Asia -->
<g id="node3" class="node">
<title>Asia</title>
<polygon fill="#ebf5fa" stroke="#467896" points="197.53,-387.3 0,-387.3 0,-227.31 197.53,-227.31 197.53,-387.3"/>
<text xml:space="preserve" text-anchor="middle" x="98.77" y="-311.65" font-family="Verdana" font-size="12.00">Asia</text>
<text xml:space="preserve" text-anchor="middle" x="98.77" y="-295.9" font-family="Verdana" font-size="12.00">3.2 M km²</text>
</g>
<!-- Europe -->
<g id="node4" class="node">
<title>Europe</title>
<polygon fill="#f5f5eb" stroke="#82825a" points="209.77,-110.46 0,-110.46 0,0 209.77,0 209.77,-110.46"/>
<text xml:space="preserve" text-anchor="middle" x="104.88" y="-59.58" font-family="Verdana" font-size="12.00">Europe</text>
<text xml:space="preserve" text-anchor="middle" x="104.88" y="-43.83" font-family="Verdana" font-size="12.00">2.3 M km²</text>
</g>
<!-- North America -->
<g id="node5" class="node">
<title>North America</title>
<polygon fill="#ebfaf0" stroke="#468c64" points="209.77,-227.31 0,-227.31 0,-110.46 209.77,-110.46 209.77,-227.31"/>
<text xml:space="preserve" text-anchor="middle" x="104.88" y="-173.23" font-family="Verdana" font-size="12.00">North America</text>
<text xml:space="preserve" text-anchor="middle" x="104.88" y="-157.48" font-family="Verdana" font-size="12.00">2.5 M km²</text>
</g>
<!-- Oceana -->
<g id="node6" class="node">
<title>Oceana</title>
<polygon fill="#ebf5f0" stroke="#508278" points="387.3,-126.94 320.15,-126.94 320.15,0 387.3,0 387.3,-126.94"/>
<text xml:space="preserve" text-anchor="middle" x="353.72" y="-67.82" font-family="Verdana" font-size="12.00">Oceana</text>
<text xml:space="preserve" text-anchor="middle" x="353.72" y="-52.07" font-family="Verdana" font-size="12.00">0.9 M km²</text>
</g>
<!-- South America -->
<g id="node7" class="node">
<title>South America</title>
<polygon fill="#faebf0" stroke="#96506e" points="387.3,-227.31 209.77,-227.31 209.77,-126.94 387.3,-126.94 387.3,-227.31"/>
<text xml:space="preserve" text-anchor="middle" x="298.53" y="-181.47" font-family="Verdana" font-size="12.00">South America</text>
<text xml:space="preserve" text-anchor="middle" x="298.53" y="-165.72" font-family="Verdana" font-size="12.00">1.8 M km²</text>
</g>
</g>
</svg>
