<?xml version="1.0" encoding="UTF-8" standalone="no"?>
<!DOCTYPE svg PUBLIC "-//W3C//DTD SVG 1.1//EN"
 "http://www.w3.org/Graphics/SVG/1.1/DTD/svg11.dtd">
<!-- Generated by graphviz version 14.1.2 (20260124.0452)
 -->
<!-- Title: Relationship Visualizer Pages: 1 -->
<svg width="710pt" height="565pt"
 viewBox="0.00 0.00 710.00 565.00" xmlns="http://www.w3.org/2000/svg" xmlns:xlink="http://www.w3.org/1999/xlink">
<g id="graph0" class="graph" transform="scale(1 1) rotate(0) translate(4 561)">
<title>Relationship Visualizer</title>
<polygon fill="white" stroke="none" points="-4,4 -4,-561 706,-561 706,4 -4,4"/>
<!-- EID&#45;0589 -->
<g id="node1" class="node">
<title>EID&#45;0589</title>
<g id="a_node1"><a xlink:title="EID&#45;0589">
<polygon fill="#dce8ff" stroke="#2f5ebe" stroke-width="2" points="432,-481 270,-481 270,-441 432,-441 432,-481"/>
<text xml:space="preserve" text-anchor="start" x="321.38" y="-470.4" font-family="Verdana" font-weight="bold" font-size="8.00">Jamison Ford</text>
<text xml:space="preserve" text-anchor="start" x="292.12" y="-454.4" font-family="Verdana" font-size="8.00">Dir. &#45; Software Infrastructure</text>
<text xml:space="preserve" text-anchor="start" x="303.75" y="-446.4" font-family="Verdana" font-size="8.00">Software Infrastructure</text>
</a>
</g>
</g>
<!-- EID&#45;0124 -->
<g id="node2" class="node">
<title>EID&#45;0124</title>
<polygon fill="#ffffff" stroke="#4a4a4a" points="162,-405 0,-405 0,-365 162,-365 162,-405"/>
<text xml:space="preserve" text-anchor="start" x="44.62" y="-394.4" font-family="Verdana" font-weight="bold" font-size="8.00">Gunnar Fuentes</text>
<text xml:space="preserve" text-anchor="start" x="36" y="-378.4" font-family="Verdana" font-size="8.00">Manager &#45; Middleware</text>
<text xml:space="preserve" text-anchor="start" x="58.12" y="-370.4" font-family="Verdana" font-size="8.00">Middleware</text>
</g>
<!-- EID&#45;0589&#45;&gt;EID&#45;0124 -->
<g id="edge1" class="edge">
<title>EID&#45;0589&#45;&gt;EID&#45;0124</title>
<polyline fill="none" stroke="#3c6ec8" points="269.26,-461 189.79,-461 90,-461"/>
<polyline fill="none" stroke="#3c6ec8" points="81,-452 81,-411.88"/>
<polyline fill="none" stroke="#3c6ec8" points="90,-461 89.41,-461 88.82,-460.94 88.24,-460.83 87.67,-460.71 87.1,-460.54 86.56,-460.31 86.01,-460.09 85.49,-459.81 85,-459.48 84.51,-459.16 84.05,-458.78 83.64,-458.36 83.22,-457.95 82.84,-457.49 82.52,-457 82.19,-456.51 81.91,-455.99 81.69,-455.44 81.46,-454.9 81.29,-454.33 81.17,-453.76 81.06,-453.18 81,-452.59 81,-452"/>
<polygon fill="#3c6ec8" stroke="#3c6ec8" points="82.75,-411.88 81,-406.88 79.25,-411.88 82.75,-411.88"/>
</g>
<!-- EID&#45;0131 -->
<g id="node3" class="node">
<title>EID&#45;0131</title>
<polygon fill="#ffffff" stroke="#4a4a4a" points="342,-405 180,-405 180,-365 342,-365 342,-405"/>
<text xml:space="preserve" text-anchor="start" x="234" y="-394.4" font-family="Verdana" font-weight="bold" font-size="8.00">Mason Knox</text>
<text xml:space="preserve" text-anchor="start" x="190.12" y="-378.4" font-family="Verdana" font-size="8.00">Manager &#45; Database Administration</text>
<text xml:space="preserve" text-anchor="start" x="212.25" y="-370.4" font-family="Verdana" font-size="8.00">Database Administration</text>
</g>
<!-- EID&#45;0589&#45;&gt;EID&#45;0131 -->
<g id="edge2" class="edge">
<title>EID&#45;0589&#45;&gt;EID&#45;0131</title>
<path fill="none" stroke="#3c6ec8" d="M306,-440.23C306,-440.23 306,-411.99 306,-411.99"/>
<polygon fill="#3c6ec8" stroke="#3c6ec8" points="307.75,-411.99 306,-406.99 304.25,-411.99 307.75,-411.99"/>
</g>
<!-- EID&#45;0593 -->
<g id="node4" class="node">
<title>EID&#45;0593</title>
<polygon fill="#ffffff" stroke="#4a4a4a" points="522,-405 360,-405 360,-365 522,-365 522,-405"/>
<text xml:space="preserve" text-anchor="start" x="403.12" y="-394.4" font-family="Verdana" font-weight="bold" font-size="8.00">Branden Gregory</text>
<text xml:space="preserve" text-anchor="start" x="386.62" y="-378.4" font-family="Verdana" font-size="8.00">Manager &#45; Service Delivery</text>
<text xml:space="preserve" text-anchor="start" x="408.75" y="-370.4" font-family="Verdana" font-size="8.00">Service Delivery</text>
</g>
<!-- EID&#45;0589&#45;&gt;EID&#45;0593 -->
<g id="edge3" class="edge">
<title>EID&#45;0589&#45;&gt;EID&#45;0593</title>
<path fill="none" stroke="#3c6ec8" d="M396,-440.23C396,-440.23 396,-411.99 396,-411.99"/>
<polygon fill="#3c6ec8" stroke="#3c6ec8" points="397.75,-411.99 396,-406.99 394.25,-411.99 397.75,-411.99"/>
</g>
<!-- EID&#45;0589_team -->
<g id="node8" class="node">
<title>EID&#45;0589_team</title>
<g id="a_node8"><a xlink:title="EID&#45;0589">
<polygon fill="AliceBlue" stroke="#7a9ccb" points="702,-399.5 540,-399.5 540,-370.5 702,-370.5 702,-399.5"/>
<text xml:space="preserve" text-anchor="start" x="548" y="-387.9" font-family="Verdana" font-size="8.00">Sydnee Haney</text>
<text xml:space="preserve" text-anchor="start" x="548" y="-377.4" font-family="Verdana" font-size="8.00">Sr. Technical Architect</text>
</a>
</g>
</g>
<!-- EID&#45;0589&#45;&gt;EID&#45;0589_team -->
<g id="edge5" class="edge">
<title>EID&#45;0589&#45;&gt;EID&#45;0589_team</title>
<polyline fill="none" stroke="#dc8228" points="432.74,-461 512.21,-461 612,-461"/>
<polyline fill="none" stroke="#dc8228" points="621,-452 621,-406.17"/>
<polyline fill="none" stroke="#dc8228" points="621,-452 621,-452.59 620.94,-453.18 620.83,-453.76 620.71,-454.33 620.54,-454.9 620.31,-455.44 620.09,-455.99 619.81,-456.51 619.48,-457 619.16,-457.49 618.78,-457.95 618.36,-458.36 617.95,-458.78 617.49,-459.16 617,-459.48 616.51,-459.81 615.99,-460.09 615.44,-460.31 614.9,-460.54 614.33,-460.71 613.76,-460.83 613.18,-460.94 612.59,-461 612,-461"/>
<polygon fill="#dc8228" stroke="#dc8228" points="622.75,-406.17 621,-401.17 619.25,-406.17 622.75,-406.17"/>
</g>
<!-- EID&#45;0124_team -->
<g id="node6" class="node">
<title>EID&#45;0124_team</title>
<g id="a_node6"><a xlink:title="EID&#45;0124">
<polygon fill="AliceBlue" stroke="#7a9ccb" points="162,-329 0,-329 0,0 162,0 162,-329"/>
<text xml:space="preserve" text-anchor="start" x="8" y="-317.4" font-family="Verdana" font-size="8.00">Jeramiah Dodson</text>
<text xml:space="preserve" text-anchor="start" x="8" y="-306.9" font-family="Verdana" font-size="8.00">Sr. Systems Integration Analyst</text>
<text xml:space="preserve" text-anchor="start" x="8" y="-287.4" font-family="Verdana" font-size="8.00">Veronica Church</text>
<text xml:space="preserve" text-anchor="start" x="8" y="-276.9" font-family="Verdana" font-size="8.00">Operations Support Technician</text>
<text xml:space="preserve" text-anchor="start" x="8" y="-257.4" font-family="Verdana" font-size="8.00">Paige Lin</text>
<text xml:space="preserve" text-anchor="start" x="8" y="-246.9" font-family="Verdana" font-size="8.00">Lead &#45; Systems Analyst</text>
<text xml:space="preserve" text-anchor="start" x="8" y="-227.4" font-family="Verdana" font-size="8.00">Willow Cunningham</text>
<text xml:space="preserve" text-anchor="start" x="8" y="-216.9" font-family="Verdana" font-size="8.00">Sr. Systems Analyst</text>
<text xml:space="preserve" text-anchor="start" x="8" y="-197.4" font-family="Verdana" font-size="8.00">Jalen Grant</text>
<text xml:space="preserve" text-anchor="start" x="8" y="-186.9" font-family="Verdana" font-size="8.00">Lead &#45; Systems Analyst</text>
<text xml:space="preserve" text-anchor="start" x="8" y="-167.4" font-family="Verdana" font-size="8.00">Giancarlo Hooper</text>
<text xml:space="preserve" text-anchor="start" x="8" y="-156.9" font-family="Verdana" font-size="8.00">IT Sr. Systems Analyst</text>
<text xml:space="preserve" text-anchor="start" x="8" y="-137.4" font-family="Verdana" font-size="8.00">Sean Glenn</text>
<text xml:space="preserve" text-anchor="start" x="8" y="-126.9" font-family="Verdana" font-size="8.00">Sr. Systems Analyst</text>
<text xml:space="preserve" text-anchor="start" x="8" y="-107.4" font-family="Verdana" font-size="8.00">Cale Hayes</text>
<text xml:space="preserve" text-anchor="start" x="8" y="-96.9" font-family="Verdana" font-size="8.00">Middleware Administrator</text>
<text xml:space="preserve" text-anchor="start" x="8" y="-77.4" font-family="Verdana" font-size="8.00">Owen Hatfield</text>
<text xml:space="preserve" text-anchor="start" x="8" y="-66.9" font-family="Verdana" font-size="8.00">Sr. Middleware Administrator</text>
<text xml:space="preserve" text-anchor="start" x="8" y="-47.4" font-family="Verdana" font-size="8.00">Nathalie Frost</text>
<text xml:space="preserve" text-anchor="start" x="8" y="-36.9" font-family="Verdana" font-size="8.00">IT Applications Systems Analyst</text>
<text xml:space="preserve" text-anchor="start" x="8" y="-17.4" font-family="Verdana" font-size="8.00">Jesus Evans</text>
<text xml:space="preserve" text-anchor="start" x="8" y="-6.9" font-family="Verdana" font-size="8.00">IT Sr. Systems Analyst</text>
</a>
</g>
</g>
<!-- EID&#45;0124&#45;&gt;EID&#45;0124_team -->
<g id="edge6" class="edge">
<title>EID&#45;0124&#45;&gt;EID&#45;0124_team</title>
<path fill="none" stroke="#dc8228" d="M81,-364.65C81,-364.65 81,-335.69 81,-335.69"/>
<polygon fill="#dc8228" stroke="#dc8228" points="82.75,-335.69 81,-330.69 79.25,-335.69 82.75,-335.69"/>
</g>
<!-- EID&#45;0131_team -->
<g id="node7" class="node">
<title>EID&#45;0131_team</title>
<g id="a_node7"><a xlink:title="EID&#45;0131">
<polygon fill="AliceBlue" stroke="#7a9ccb" points="342,-269 180,-269 180,-60 342,-60 342,-269"/>
<text xml:space="preserve" text-anchor="start" x="188" y="-257.4" font-family="Verdana" font-size="8.00">Yareli Delacruz</text>
<text xml:space="preserve" text-anchor="start" x="188" y="-246.9" font-family="Verdana" font-size="8.00">Sr. Database Administrator</text>
<text xml:space="preserve" text-anchor="start" x="188" y="-227.4" font-family="Verdana" font-size="8.00">Piper Hester</text>
<text xml:space="preserve" text-anchor="start" x="188" y="-216.9" font-family="Verdana" font-size="8.00">Sr. Database Administrator</text>
<text xml:space="preserve" text-anchor="start" x="188" y="-197.4" font-family="Verdana" font-size="8.00">Tamara Durham</text>
<text xml:space="preserve" text-anchor="start" x="188" y="-186.9" font-family="Verdana" font-size="8.00">Sr. Database Administrator</text>
<text xml:space="preserve" text-anchor="start" x="188" y="-167.4" font-family="Verdana" font-size="8.00">Brayden Huang</text>
<text xml:space="preserve" text-anchor="start" x="188" y="-156.9" font-family="Verdana" font-size="8.00">Sr. Database Administrator</text>
<text xml:space="preserve" text-anchor="start" x="188" y="-137.4" font-family="Verdana" font-size="8.00">Isabelle Campbell</text>
<text xml:space="preserve" text-anchor="start" x="188" y="-126.9" font-family="Verdana" font-size="8.00">Sr. Database Administrator</text>
<text xml:space="preserve" text-anchor="start" x="188" y="-107.4" font-family="Verdana" font-size="8.00">Dustin Hayden</text>
<text xml:space="preserve" text-anchor="start" x="188" y="-96.9" font-family="Verdana" font-size="8.00">Sr. Database Administrator</text>
<text xml:space="preserve" text-anchor="start" x="188" y="-77.4" font-family="Verdana" font-size="8.00">Sylvia Kane</text>
<text xml:space="preserve" text-anchor="start" x="188" y="-66.9" font-family="Verdana" font-size="8.00">Database Admin</text>
</a>
</g>
</g>
<!-- EID&#45;0131&#45;&gt;EID&#45;0131_team -->
<g id="edge7" class="edge">
<title>EID&#45;0131&#45;&gt;EID&#45;0131_team</title>
<path fill="none" stroke="#dc8228" d="M261,-364.65C261,-364.65 261,-275.98 261,-275.98"/>
<polygon fill="#dc8228" stroke="#dc8228" points="262.75,-275.98 261,-270.98 259.25,-275.98 262.75,-275.98"/>
</g>
<!-- EID&#45;0593_team -->
<g id="node9" class="node">
<title>EID&#45;0593_team</title>
<g id="a_node9"><a xlink:title="EID&#45;0593">
<polygon fill="AliceBlue" stroke="#7a9ccb" points="522,-284 360,-284 360,-45 522,-45 522,-284"/>
<text xml:space="preserve" text-anchor="start" x="368" y="-272.4" font-family="Verdana" font-size="8.00">Jax Crosby</text>
<text xml:space="preserve" text-anchor="start" x="368" y="-261.9" font-family="Verdana" font-size="8.00">IT Sr. Systems Analyst</text>
<text xml:space="preserve" text-anchor="start" x="368" y="-242.4" font-family="Verdana" font-size="8.00">Ciara Carney</text>
<text xml:space="preserve" text-anchor="start" x="368" y="-231.9" font-family="Verdana" font-size="8.00">IT Service Desk Team Leader</text>
<text xml:space="preserve" text-anchor="start" x="368" y="-212.4" font-family="Verdana" font-size="8.00">Gina Aguilar</text>
<text xml:space="preserve" text-anchor="start" x="368" y="-201.9" font-family="Verdana" font-size="8.00">IT Sr. Systems Analyst</text>
<text xml:space="preserve" text-anchor="start" x="368" y="-182.4" font-family="Verdana" font-size="8.00">Regina Galvan</text>
<text xml:space="preserve" text-anchor="start" x="368" y="-171.9" font-family="Verdana" font-size="8.00">Systems Analyst</text>
<text xml:space="preserve" text-anchor="start" x="368" y="-152.4" font-family="Verdana" font-size="8.00">Zoey Cantrell</text>
<text xml:space="preserve" text-anchor="start" x="368" y="-141.9" font-family="Verdana" font-size="8.00">Systems Analyst</text>
<text xml:space="preserve" text-anchor="start" x="368" y="-122.4" font-family="Verdana" font-size="8.00">Julie Conrad</text>
<text xml:space="preserve" text-anchor="start" x="368" y="-111.9" font-family="Verdana" font-size="8.00">Help Desk Representative</text>
<text xml:space="preserve" text-anchor="start" x="368" y="-92.4" font-family="Verdana" font-size="8.00">Annabelle Chandler</text>
<text xml:space="preserve" text-anchor="start" x="368" y="-81.9" font-family="Verdana" font-size="8.00">Help Desk Representative</text>
<text xml:space="preserve" text-anchor="start" x="368" y="-62.4" font-family="Verdana" font-size="8.00">Miranda Franklin</text>
<text xml:space="preserve" text-anchor="start" x="368" y="-51.9" font-family="Verdana" font-size="8.00">Help Desk Representative</text>
</a>
</g>
</g>
<!-- EID&#45;0593&#45;&gt;EID&#45;0593_team -->
<g id="edge8" class="edge">
<title>EID&#45;0593&#45;&gt;EID&#45;0593_team</title>
<path fill="none" stroke="#dc8228" d="M441,-364.65C441,-364.65 441,-290.92 441,-290.92"/>
<polygon fill="#dc8228" stroke="#dc8228" points="442.75,-290.92 441,-285.92 439.25,-290.92 442.75,-290.92"/>
</g>
<!-- EID&#45;0443 -->
<g id="node5" class="node">
<title>EID&#45;0443</title>
<polygon fill="#ffffff" stroke="#a46a2c" points="432,-557 270,-557 270,-517 432,-517 432,-557"/>
<text xml:space="preserve" text-anchor="start" x="324.75" y="-546.4" font-family="Verdana" font-weight="bold" font-size="8.00">Wade Greer</text>
<text xml:space="preserve" text-anchor="start" x="307.5" y="-530.4" font-family="Verdana" font-size="8.00">VP &#45; IT Infrastructure</text>
<text xml:space="preserve" text-anchor="start" x="317.25" y="-522.4" font-family="Verdana" font-size="8.00">IT Infrastructure</text>
</g>
<!-- EID&#45;0443&#45;&gt;EID&#45;0589 -->
<g id="edge4" class="edge">
<title>EID&#45;0443&#45;&gt;EID&#45;0589</title>
<path fill="none" stroke="#3c6ec8" d="M351,-516.63C351,-516.63 351,-488.47 351,-488.47"/>
<polygon fill="#3c6ec8" stroke="#3c6ec8" points="352.75,-488.47 351,-483.47 349.25,-488.47 352.75,-488.47"/>
</g>
</g>
</svg>
