<?xml version="1.0" encoding="UTF-8" standalone="no"?>
<!DOCTYPE svg PUBLIC "-//W3C//DTD SVG 1.1//EN"
 "http://www.w3.org/Graphics/SVG/1.1/DTD/svg11.dtd">
<!-- Generated by graphviz version 14.1.2 (20260124.0452)
 -->
<!-- Title: Relationship Visualizer Pages: 1 -->
<svg width="974pt" height="442pt"
 viewBox="0.00 0.00 974.00 442.00" xmlns="http://www.w3.org/2000/svg" xmlns:xlink="http://www.w3.org/1999/xlink">
<g id="graph0" class="graph" transform="scale(1 1) rotate(0) translate(4 438)">
<title>Relationship Visualizer</title>
<polygon fill="white" stroke="none" points="-4,4 -4,-438 970,-438 970,4 -4,4"/>
<!-- 1972 -->
<g id="node1" class="node">
<title>1972</title>
<text xml:space="preserve" text-anchor="middle" x="37.25" y="-12.95" font-family="Times New Roman,serif" font-size="14.00">1972</text>
</g>
<!-- 1976 -->
<g id="node2" class="node">
<title>1976</title>
<text xml:space="preserve" text-anchor="middle" x="140.25" y="-12.95" font-family="Times New Roman,serif" font-size="14.00">1976</text>
</g>
<!-- 1972&#45;&gt;1976 -->
<g id="edge1" class="edge">
<title>1972&#45;&gt;1976</title>
<path fill="none" stroke="black" d="M64.04,-18C64.04,-18 102.08,-18 102.08,-18"/>
<polygon fill="black" stroke="black" points="102.08,-21.5 112.08,-18 102.08,-14.5 102.08,-21.5"/>
</g>
<!-- 1978 -->
<g id="node3" class="node">
<title>1978</title>
<text xml:space="preserve" text-anchor="middle" x="241.75" y="-12.95" font-family="Times New Roman,serif" font-size="14.00">1978</text>
</g>
<!-- 1976&#45;&gt;1978 -->
<g id="edge2" class="edge">
<title>1976&#45;&gt;1978</title>
<path fill="none" stroke="black" d="M167.18,-18C167.18,-18 203.53,-18 203.53,-18"/>
<polygon fill="black" stroke="black" points="203.53,-21.5 213.53,-18 203.53,-14.5 203.53,-21.5"/>
</g>
<!-- 1980 -->
<g id="node4" class="node">
<title>1980</title>
<text xml:space="preserve" text-anchor="middle" x="340.5" y="-12.95" font-family="Times New Roman,serif" font-size="14.00">1980</text>
</g>
<!-- 1978&#45;&gt;1980 -->
<g id="edge3" class="edge">
<title>1978&#45;&gt;1980</title>
<path fill="none" stroke="black" d="M268.73,-18C268.73,-18 302.04,-18 302.04,-18"/>
<polygon fill="black" stroke="black" points="302.04,-21.5 312.04,-18 302.04,-14.5 302.04,-21.5"/>
</g>
<!-- 1982 -->
<g id="node5" class="node">
<title>1982</title>
<text xml:space="preserve" text-anchor="middle" x="438.88" y="-12.95" font-family="Times New Roman,serif" font-size="14.00">1982</text>
</g>
<!-- 1980&#45;&gt;1982 -->
<g id="edge4" class="edge">
<title>1980&#45;&gt;1982</title>
<path fill="none" stroke="black" d="M367.38,-18C367.38,-18 400.51,-18 400.51,-18"/>
<polygon fill="black" stroke="black" points="400.51,-21.5 410.51,-18 400.51,-14.5 400.51,-21.5"/>
</g>
<!-- 1984 -->
<g id="node6" class="node">
<title>1984</title>
<text xml:space="preserve" text-anchor="middle" x="537.25" y="-12.95" font-family="Times New Roman,serif" font-size="14.00">1984</text>
</g>
<!-- 1982&#45;&gt;1984 -->
<g id="edge5" class="edge">
<title>1982&#45;&gt;1984</title>
<path fill="none" stroke="black" d="M465.76,-18C465.76,-18 498.89,-18 498.89,-18"/>
<polygon fill="black" stroke="black" points="498.89,-21.5 508.89,-18 498.89,-14.5 498.89,-21.5"/>
</g>
<!-- 1986 -->
<g id="node7" class="node">
<title>1986</title>
<text xml:space="preserve" text-anchor="middle" x="627.25" y="-12.95" font-family="Times New Roman,serif" font-size="14.00">1986</text>
</g>
<!-- 1984&#45;&gt;1986 -->
<g id="edge6" class="edge">
<title>1984&#45;&gt;1986</title>
<path fill="none" stroke="black" d="M563.77,-18C563.77,-18 588.79,-18 588.79,-18"/>
<polygon fill="black" stroke="black" points="588.79,-21.5 598.79,-18 588.79,-14.5 588.79,-21.5"/>
</g>
<!-- 1988 -->
<g id="node8" class="node">
<title>1988</title>
<text xml:space="preserve" text-anchor="middle" x="726" y="-12.95" font-family="Times New Roman,serif" font-size="14.00">1988</text>
</g>
<!-- 1986&#45;&gt;1988 -->
<g id="edge7" class="edge">
<title>1986&#45;&gt;1988</title>
<path fill="none" stroke="black" d="M654.23,-18C654.23,-18 687.54,-18 687.54,-18"/>
<polygon fill="black" stroke="black" points="687.54,-21.5 697.54,-18 687.54,-14.5 687.54,-21.5"/>
</g>
<!-- 1990 -->
<g id="node9" class="node">
<title>1990</title>
<text xml:space="preserve" text-anchor="middle" x="824.75" y="-12.95" font-family="Times New Roman,serif" font-size="14.00">1990</text>
</g>
<!-- 1988&#45;&gt;1990 -->
<g id="edge8" class="edge">
<title>1988&#45;&gt;1990</title>
<path fill="none" stroke="black" d="M752.98,-18C752.98,-18 786.29,-18 786.29,-18"/>
<polygon fill="black" stroke="black" points="786.29,-21.5 796.29,-18 786.29,-14.5 786.29,-21.5"/>
</g>
<!-- future -->
<g id="node10" class="node">
<title>future</title>
<text xml:space="preserve" text-anchor="middle" x="926.88" y="-12.95" font-family="Times New Roman,serif" font-size="14.00">future</text>
</g>
<!-- 1990&#45;&gt;future -->
<g id="edge9" class="edge">
<title>1990&#45;&gt;future</title>
<path fill="none" stroke="black" d="M851.58,-18C851.58,-18 888.71,-18 888.71,-18"/>
<polygon fill="black" stroke="black" points="888.71,-21.5 898.71,-18 888.71,-14.5 888.71,-21.5"/>
</g>
<!-- Thompson -->
<g id="node11" class="node">
<title>Thompson</title>
<polygon fill="none" stroke="black" points="74.5,-251 0,-251 0,-215 74.5,-215 74.5,-251"/>
<text xml:space="preserve" text-anchor="middle" x="37.25" y="-227.95" font-family="Times New Roman,serif" font-size="14.00">Thompson</text>
</g>
<!-- Bourne -->
<g id="node12" class="node">
<title>Bourne</title>
<polygon fill="none" stroke="black" points="168.12,-251 112.38,-251 112.38,-215 168.12,-215 168.12,-251"/>
<text xml:space="preserve" text-anchor="middle" x="140.25" y="-227.95" font-family="Times New Roman,serif" font-size="14.00">Bourne</text>
</g>
<!-- Thompson&#45;&gt;Bourne -->
<g id="edge10" class="edge">
<title>Thompson&#45;&gt;Bourne</title>
<path fill="none" stroke="black" d="M74.73,-233C74.73,-233 100.49,-233 100.49,-233"/>
<polygon fill="black" stroke="black" points="100.49,-236.5 110.49,-233 100.49,-229.5 100.49,-236.5"/>
</g>
<!-- Mashey -->
<g id="node13" class="node">
<title>Mashey</title>
<polygon fill="none" stroke="black" points="170,-197 110.5,-197 110.5,-161 170,-161 170,-197"/>
<text xml:space="preserve" text-anchor="middle" x="140.25" y="-173.95" font-family="Times New Roman,serif" font-size="14.00">Mashey</text>
</g>
<!-- Thompson&#45;&gt;Mashey -->
<g id="edge11" class="edge">
<title>Thompson&#45;&gt;Mashey</title>
<polyline fill="none" stroke="black" points="69,-214.72 69,-199.05 69,-188"/>
<polyline fill="none" stroke="black" points="78,-179 98.52,-179"/>
<polyline fill="none" stroke="black" points="69,-188 69,-187.41 69.06,-186.82 69.17,-186.24 69.29,-185.67 69.46,-185.1 69.69,-184.56 69.91,-184.01 70.19,-183.49 70.52,-183 70.84,-182.51 71.22,-182.05 71.64,-181.64 72.05,-181.22 72.51,-180.84 73,-180.52 73.49,-180.19 74.01,-179.91 74.56,-179.69 75.1,-179.46 75.67,-179.29 76.24,-179.17 76.82,-179.06 77.41,-179 78,-179"/>
<polygon fill="black" stroke="black" points="98.52,-182.5 108.52,-179 98.52,-175.5 98.52,-182.5"/>
</g>
<!-- csh -->
<g id="node14" class="node">
<title>csh</title>
<polygon fill="none" stroke="black" points="268.75,-404 214.75,-404 214.75,-368 268.75,-368 268.75,-404"/>
<text xml:space="preserve" text-anchor="middle" x="241.75" y="-380.95" font-family="Times New Roman,serif" font-size="14.00">csh</text>
</g>
<!-- Thompson&#45;&gt;csh -->
<g id="edge12" class="edge">
<title>Thompson&#45;&gt;csh</title>
<polyline fill="none" stroke="black" points="37,-251.46 37,-292.15 37,-377"/>
<polyline fill="none" stroke="black" points="46,-386 203.05,-386"/>
<polyline fill="none" stroke="black" points="46,-386 45.41,-386 44.82,-385.94 44.24,-385.83 43.67,-385.71 43.1,-385.54 42.56,-385.31 42.01,-385.09 41.49,-384.81 41,-384.48 40.51,-384.16 40.05,-383.78 39.64,-383.36 39.22,-382.95 38.84,-382.49 38.52,-382 38.19,-381.51 37.91,-380.99 37.69,-380.44 37.46,-379.9 37.29,-379.33 37.17,-378.76 37.06,-378.18 37,-377.59 37,-377"/>
<polygon fill="black" stroke="black" points="203.05,-389.5 213.05,-386 203.05,-382.5 203.05,-389.5"/>
</g>
<!-- Formshell -->
<g id="node15" class="node">
<title>Formshell</title>
<polygon fill="none" stroke="black" points="277.5,-274 206,-274 206,-238 277.5,-238 277.5,-274"/>
<text xml:space="preserve" text-anchor="middle" x="241.75" y="-250.95" font-family="Times New Roman,serif" font-size="14.00">Formshell</text>
</g>
<!-- Bourne&#45;&gt;Formshell -->
<g id="edge17" class="edge">
<title>Bourne&#45;&gt;Formshell</title>
<path fill="none" stroke="black" d="M168.52,-244.5C168.52,-244.5 194.13,-244.5 194.13,-244.5"/>
<polygon fill="black" stroke="black" points="194.13,-248 204.13,-244.5 194.13,-241 194.13,-248"/>
</g>
<!-- esh -->
<g id="node16" class="node">
<title>esh</title>
<polygon fill="none" stroke="black" points="367.5,-236 313.5,-236 313.5,-200 367.5,-200 367.5,-236"/>
<text xml:space="preserve" text-anchor="middle" x="340.5" y="-212.95" font-family="Times New Roman,serif" font-size="14.00">esh</text>
</g>
<!-- Bourne&#45;&gt;esh -->
<g id="edge15" class="edge">
<title>Bourne&#45;&gt;esh</title>
<path fill="none" stroke="black" d="M168.52,-229C168.52,-229 301.51,-229 301.51,-229"/>
<polygon fill="black" stroke="black" points="301.51,-232.5 311.51,-229 301.51,-225.5 301.51,-232.5"/>
</g>
<!-- vsh -->
<g id="node17" class="node">
<title>vsh</title>
<polygon fill="none" stroke="black" points="367.5,-182 313.5,-182 313.5,-146 367.5,-146 367.5,-182"/>
<text xml:space="preserve" text-anchor="middle" x="340.5" y="-158.95" font-family="Times New Roman,serif" font-size="14.00">vsh</text>
</g>
<!-- Bourne&#45;&gt;vsh -->
<g id="edge16" class="edge">
<title>Bourne&#45;&gt;vsh</title>
<polyline fill="none" stroke="black" points="168.62,-225.5 182.81,-225.5 188,-225.5"/>
<polyline fill="none" stroke="black" points="197,-216.5 197,-180.5"/>
<polyline fill="none" stroke="black" points="206,-171.5 301.66,-171.5"/>
<polyline fill="none" stroke="black" points="197,-216.5 197,-217.09 196.94,-217.68 196.83,-218.26 196.71,-218.83 196.54,-219.4 196.31,-219.94 196.09,-220.49 195.81,-221.01 195.48,-221.5 195.16,-221.99 194.78,-222.45 194.36,-222.86 193.95,-223.28 193.49,-223.66 193,-223.98 192.51,-224.31 191.99,-224.59 191.44,-224.81 190.9,-225.04 190.33,-225.21 189.76,-225.33 189.18,-225.44 188.59,-225.5 188,-225.5"/>
<polyline fill="none" stroke="black" points="197,-180.5 197,-179.91 197.06,-179.32 197.17,-178.74 197.29,-178.17 197.46,-177.6 197.69,-177.06 197.91,-176.51 198.19,-175.99 198.52,-175.5 198.84,-175.01 199.22,-174.55 199.64,-174.14 200.05,-173.72 200.51,-173.34 201,-173.02 201.49,-172.69 202.01,-172.41 202.56,-172.19 203.1,-171.96 203.67,-171.79 204.24,-171.67 204.82,-171.56 205.41,-171.5 206,-171.5"/>
<polygon fill="black" stroke="black" points="301.66,-175 311.66,-171.5 301.66,-168 301.66,-175"/>
</g>
<!-- ksh -->
<g id="node18" class="node">
<title>ksh</title>
<polygon fill="none" stroke="black" points="465.88,-267 411.88,-267 411.88,-231 465.88,-231 465.88,-267"/>
<text xml:space="preserve" text-anchor="middle" x="438.88" y="-243.95" font-family="Times New Roman,serif" font-size="14.00">ksh</text>
</g>
<!-- Bourne&#45;&gt;ksh -->
<g id="edge14" class="edge">
<title>Bourne&#45;&gt;ksh</title>
<polyline fill="none" stroke="black" points="168.27,-232.5 212.87,-232.5 286,-232.5"/>
<polyline fill="none" stroke="black" points="295,-241.5 295,-238.67"/>
<polyline fill="none" stroke="black" points="304,-247.67 399.96,-247.67"/>
<polyline fill="none" stroke="black" points="286,-232.5 286.59,-232.5 287.18,-232.56 287.76,-232.67 288.33,-232.79 288.9,-232.96 289.44,-233.19 289.99,-233.41 290.51,-233.69 291,-234.02 291.49,-234.34 291.95,-234.72 292.36,-235.14 292.78,-235.55 293.16,-236.01 293.48,-236.5 293.81,-236.99 294.09,-237.51 294.31,-238.06 294.54,-238.6 294.71,-239.17 294.83,-239.74 294.94,-240.32 295,-240.91 295,-241.5"/>
<polyline fill="none" stroke="black" points="304,-247.67 303.41,-247.67 302.82,-247.61 302.24,-247.49 301.67,-247.38 301.1,-247.21 300.56,-246.98 300.01,-246.76 299.49,-246.48 299,-246.15 298.51,-245.82 298.05,-245.45 297.64,-245.03 297.22,-244.61 296.84,-244.16 296.52,-243.67 296.19,-243.18 295.91,-242.66 295.69,-242.11 295.46,-241.57 295.29,-241 295.17,-240.42 295.06,-239.84 295,-239.26 295,-238.67"/>
<polygon fill="black" stroke="black" points="399.96,-251.17 409.96,-247.67 399.96,-244.17 399.96,-251.17"/>
</g>
<!-- System&#45;V -->
<g id="node19" class="node">
<title>System&#45;V</title>
<polygon fill="none" stroke="black" points="474.25,-90 403.5,-90 403.5,-54 474.25,-54 474.25,-90"/>
<text xml:space="preserve" text-anchor="middle" x="438.88" y="-66.95" font-family="Times New Roman,serif" font-size="14.00">System&#45;V</text>
</g>
<!-- Bourne&#45;&gt;System&#45;V -->
<g id="edge19" class="edge">
<title>Bourne&#45;&gt;System&#45;V</title>
<polyline fill="none" stroke="black" points="168.41,-218.5 174.42,-218.5 170,-218.5"/>
<polyline fill="none" stroke="black" points="179,-209.5 179,-81"/>
<polyline fill="none" stroke="black" points="188,-72 391.5,-72"/>
<polyline fill="none" stroke="black" points="179,-209.5 179,-210.09 178.94,-210.68 178.83,-211.26 178.71,-211.83 178.54,-212.4 178.31,-212.94 178.09,-213.49 177.81,-214.01 177.48,-214.5 177.16,-214.99 176.78,-215.45 176.36,-215.86 175.95,-216.28 175.49,-216.66 175,-216.98 174.51,-217.31 173.99,-217.59 173.44,-217.81 172.9,-218.04 172.33,-218.21 171.76,-218.33 171.18,-218.44 170.59,-218.5 170,-218.5"/>
<polyline fill="none" stroke="black" points="179,-81 179,-80.41 179.06,-79.82 179.17,-79.24 179.29,-78.67 179.46,-78.1 179.69,-77.56 179.91,-77.01 180.19,-76.49 180.52,-76 180.84,-75.51 181.22,-75.05 181.64,-74.64 182.05,-74.22 182.51,-73.84 183,-73.52 183.49,-73.19 184.01,-72.91 184.56,-72.69 185.1,-72.46 185.67,-72.29 186.24,-72.17 186.82,-72.06 187.41,-72 188,-72"/>
<polygon fill="black" stroke="black" points="391.5,-75.5 401.5,-72 391.5,-68.5 391.5,-75.5"/>
</g>
<!-- v9sh -->
<g id="node21" class="node">
<title>v9sh</title>
<polygon fill="none" stroke="black" points="564.25,-358 510.25,-358 510.25,-322 564.25,-322 564.25,-358"/>
<text xml:space="preserve" text-anchor="middle" x="537.25" y="-334.95" font-family="Times New Roman,serif" font-size="14.00">v9sh</text>
</g>
<!-- Bourne&#45;&gt;v9sh -->
<g id="edge13" class="edge">
<title>Bourne&#45;&gt;v9sh</title>
<polyline fill="none" stroke="black" points="140,-251.15 140,-281.68 140,-331"/>
<polyline fill="none" stroke="black" points="149,-340 498.43,-340"/>
<polyline fill="none" stroke="black" points="149,-340 148.41,-340 147.82,-339.94 147.24,-339.83 146.67,-339.71 146.1,-339.54 145.56,-339.31 145.01,-339.09 144.49,-338.81 144,-338.48 143.51,-338.16 143.05,-337.78 142.64,-337.36 142.22,-336.95 141.84,-336.49 141.52,-336 141.19,-335.51 140.91,-334.99 140.69,-334.44 140.46,-333.9 140.29,-333.33 140.17,-332.76 140.06,-332.18 140,-331.59 140,-331"/>
<polygon fill="black" stroke="black" points="498.43,-343.5 508.43,-340 498.43,-336.5 498.43,-343.5"/>
</g>
<!-- Bash -->
<g id="node26" class="node">
<title>Bash</title>
<polygon fill="none" stroke="black" points="851.75,-157 797.75,-157 797.75,-121 851.75,-121 851.75,-157"/>
<text xml:space="preserve" text-anchor="middle" x="824.75" y="-133.95" font-family="Times New Roman,serif" font-size="14.00">Bash</text>
</g>
<!-- Bourne&#45;&gt;Bash -->
<g id="edge18" class="edge">
<title>Bourne&#45;&gt;Bash</title>
<polyline fill="none" stroke="black" points="168.58,-222 178.86,-222 179,-222"/>
<polyline fill="none" stroke="black" points="188,-213 188,-142.5"/>
<polyline fill="none" stroke="black" points="197,-133.5 785.88,-133.5"/>
<polyline fill="none" stroke="black" points="188,-213 188,-213.59 187.94,-214.18 187.83,-214.76 187.71,-215.33 187.54,-215.9 187.31,-216.44 187.09,-216.99 186.81,-217.51 186.48,-218 186.16,-218.49 185.78,-218.95 185.36,-219.36 184.95,-219.78 184.49,-220.16 184,-220.48 183.51,-220.81 182.99,-221.09 182.44,-221.31 181.9,-221.54 181.33,-221.71 180.76,-221.83 180.18,-221.94 179.59,-222 179,-222"/>
<polyline fill="none" stroke="black" points="188,-142.5 188,-141.91 188.06,-141.32 188.17,-140.74 188.29,-140.17 188.46,-139.6 188.69,-139.06 188.91,-138.51 189.19,-137.99 189.52,-137.5 189.84,-137.01 190.22,-136.55 190.64,-136.14 191.05,-135.72 191.51,-135.34 192,-135.02 192.49,-134.69 193.01,-134.41 193.56,-134.19 194.1,-133.96 194.67,-133.79 195.24,-133.67 195.82,-133.56 196.41,-133.5 197,-133.5"/>
<polygon fill="black" stroke="black" points="785.88,-137 795.88,-133.5 785.88,-130 785.88,-137"/>
</g>
<!-- csh&#45;&gt;ksh -->
<g id="edge21" class="edge">
<title>csh&#45;&gt;ksh</title>
<polyline fill="none" stroke="black" points="269.18,-372 323.38,-372 430,-372"/>
<polyline fill="none" stroke="black" points="439,-363 439,-278.93"/>
<polyline fill="none" stroke="black" points="439,-363 439,-363.59 438.94,-364.18 438.83,-364.76 438.71,-365.33 438.54,-365.9 438.31,-366.44 438.09,-366.99 437.81,-367.51 437.48,-368 437.16,-368.49 436.78,-368.95 436.36,-369.36 435.95,-369.78 435.49,-370.16 435,-370.48 434.51,-370.81 433.99,-371.09 433.44,-371.31 432.9,-371.54 432.33,-371.71 431.76,-371.83 431.18,-371.94 430.59,-372 430,-372"/>
<polygon fill="black" stroke="black" points="442.5,-278.93 439,-268.93 435.5,-278.93 442.5,-278.93"/>
</g>
<!-- tcsh -->
<g id="node20" class="node">
<title>tcsh</title>
<polygon fill="none" stroke="black" points="564.25,-434 510.25,-434 510.25,-398 564.25,-398 564.25,-434"/>
<text xml:space="preserve" text-anchor="middle" x="537.25" y="-410.95" font-family="Times New Roman,serif" font-size="14.00">tcsh</text>
</g>
<!-- csh&#45;&gt;tcsh -->
<g id="edge23" class="edge">
<title>csh&#45;&gt;tcsh</title>
<polyline fill="none" stroke="black" points="269,-387 342.09,-387 528,-387"/>
<polyline fill="none" stroke="black" points="537,-396 537,-388.08"/>
<polyline fill="none" stroke="black" points="528,-387 528.59,-387 529.18,-387.06 529.76,-387.17 530.33,-387.29 530.9,-387.46 531.44,-387.69 531.99,-387.91 532.51,-388.19 533,-388.52 533.49,-388.84 533.95,-389.22 534.36,-389.64 534.78,-390.05 535.16,-390.51 535.48,-391 535.81,-391.49 536.09,-392.01 536.31,-392.56 536.54,-393.1 536.71,-393.67 536.83,-394.24 536.94,-394.82 537,-395.41 537,-396"/>
<polygon fill="black" stroke="black" points="533.5,-386.28 537,-396.28 540.5,-386.29 533.5,-386.28"/>
</g>
<!-- Formshell&#45;&gt;ksh -->
<g id="edge20" class="edge">
<title>Formshell&#45;&gt;ksh</title>
<path fill="none" stroke="black" d="M277.91,-257.33C277.91,-257.33 400,-257.33 400,-257.33"/>
<polygon fill="black" stroke="black" points="400,-260.83 410,-257.33 400,-253.83 400,-260.83"/>
</g>
<!-- esh&#45;&gt;ksh -->
<g id="edge29" class="edge">
<title>esh&#45;&gt;ksh</title>
<polyline fill="none" stroke="black" points="367.9,-225.5 399.75,-225.5 439,-225.5"/>
<polyline fill="none" stroke="black" points="448,-234.5 448,-226.05"/>
<polyline fill="none" stroke="black" points="439,-225.5 439.59,-225.5 440.18,-225.56 440.76,-225.67 441.33,-225.79 441.9,-225.96 442.44,-226.19 442.99,-226.41 443.51,-226.69 444,-227.02 444.49,-227.34 444.95,-227.72 445.36,-228.14 445.78,-228.55 446.16,-229.01 446.48,-229.5 446.81,-229.99 447.09,-230.51 447.31,-231.06 447.54,-231.6 447.71,-232.17 447.83,-232.74 447.94,-233.32 448,-233.91 448,-234.5"/>
<polygon fill="black" stroke="black" points="444.5,-219.44 448,-229.44 451.5,-219.44 444.5,-219.44"/>
</g>
<!-- vsh&#45;&gt;ksh -->
<g id="edge30" class="edge">
<title>vsh&#45;&gt;ksh</title>
<polyline fill="none" stroke="black" points="367.84,-169.5 394.16,-169.5 421,-169.5"/>
<polyline fill="none" stroke="black" points="430,-178.5 430,-219.05"/>
<polyline fill="none" stroke="black" points="421,-169.5 421.59,-169.5 422.18,-169.56 422.76,-169.67 423.33,-169.79 423.9,-169.96 424.44,-170.19 424.99,-170.41 425.51,-170.69 426,-171.02 426.49,-171.34 426.95,-171.72 427.36,-172.14 427.78,-172.55 428.16,-173.01 428.48,-173.5 428.81,-173.99 429.09,-174.51 429.31,-175.06 429.54,-175.6 429.71,-176.17 429.83,-176.74 429.94,-177.32 430,-177.91 430,-178.5"/>
<polygon fill="black" stroke="black" points="426.5,-219.05 430,-229.05 433.5,-219.05 426.5,-219.05"/>
</g>
<!-- ksh&#45;i -->
<g id="node22" class="node">
<title>ksh&#45;i</title>
<polygon fill="none" stroke="black" points="654.25,-220 600.25,-220 600.25,-184 654.25,-184 654.25,-220"/>
<text xml:space="preserve" text-anchor="middle" x="627.25" y="-196.95" font-family="Times New Roman,serif" font-size="14.00">ksh&#45;i</text>
</g>
<!-- ksh&#45;&gt;ksh&#45;i -->
<g id="edge22" class="edge">
<title>ksh&#45;&gt;ksh&#45;i</title>
<polyline fill="none" stroke="black" points="466.23,-236 518.41,-236 618,-236"/>
<polyline fill="none" stroke="black" points="627,-227 627,-231.71"/>
<polyline fill="none" stroke="black" points="627,-227 627,-227.59 626.94,-228.18 626.83,-228.76 626.71,-229.33 626.54,-229.9 626.31,-230.44 626.09,-230.99 625.81,-231.51 625.48,-232 625.16,-232.49 624.78,-232.95 624.36,-233.36 623.95,-233.78 623.49,-234.16 623,-234.48 622.51,-234.81 621.99,-235.09 621.44,-235.31 620.9,-235.54 620.33,-235.71 619.76,-235.83 619.18,-235.94 618.59,-236 618,-236"/>
<polygon fill="black" stroke="black" points="630.5,-231.71 627,-221.71 623.5,-231.71 630.5,-231.71"/>
</g>
<!-- POSIX -->
<g id="node29" class="node">
<title>POSIX</title>
<polygon fill="none" stroke="black" points="954.38,-149 899.38,-149 899.38,-113 954.38,-113 954.38,-149"/>
<text xml:space="preserve" text-anchor="middle" x="926.88" y="-125.95" font-family="Times New Roman,serif" font-size="14.00">POSIX</text>
</g>
<!-- System&#45;V&#45;&gt;POSIX -->
<g id="edge24" class="edge">
<title>System&#45;V&#45;&gt;POSIX</title>
<polyline fill="none" stroke="black" points="470,-90.27 470,-102.23 470,-106.67"/>
<polyline fill="none" stroke="black" points="479,-115.67 887.47,-115.67"/>
<polyline fill="none" stroke="black" points="479,-115.67 478.41,-115.67 477.82,-115.61 477.24,-115.49 476.67,-115.38 476.1,-115.21 475.56,-114.98 475.01,-114.76 474.49,-114.48 474,-114.15 473.51,-113.82 473.05,-113.45 472.64,-113.03 472.22,-112.61 471.84,-112.16 471.52,-111.67 471.19,-111.18 470.91,-110.66 470.69,-110.11 470.46,-109.57 470.29,-109 470.17,-108.42 470.06,-107.84 470,-107.26 470,-106.67"/>
<polygon fill="black" stroke="black" points="887.47,-119.17 897.47,-115.67 887.47,-112.17 887.47,-119.17"/>
</g>
<!-- rc -->
<g id="node25" class="node">
<title>rc</title>
<polygon fill="none" stroke="black" points="753,-358 699,-358 699,-322 753,-322 753,-358"/>
<text xml:space="preserve" text-anchor="middle" x="726" y="-334.95" font-family="Times New Roman,serif" font-size="14.00">rc</text>
</g>
<!-- v9sh&#45;&gt;rc -->
<g id="edge25" class="edge">
<title>v9sh&#45;&gt;rc</title>
<path fill="none" stroke="black" d="M564.7,-340C564.7,-340 687.01,-340 687.01,-340"/>
<polygon fill="black" stroke="black" points="687.01,-343.5 697.01,-340 687.01,-336.5 687.01,-343.5"/>
</g>
<!-- KornShell -->
<g id="node23" class="node">
<title>KornShell</title>
<polygon fill="none" stroke="black" points="761.75,-220 690.25,-220 690.25,-184 761.75,-184 761.75,-220"/>
<text xml:space="preserve" text-anchor="middle" x="726" y="-196.95" font-family="Times New Roman,serif" font-size="14.00">KornShell</text>
</g>
<!-- ksh&#45;i&#45;&gt;KornShell -->
<g id="edge31" class="edge">
<title>ksh&#45;i&#45;&gt;KornShell</title>
<path fill="none" stroke="black" d="M654.5,-202C654.5,-202 678.45,-202 678.45,-202"/>
<polygon fill="black" stroke="black" points="678.45,-205.5 688.45,-202 678.45,-198.5 678.45,-205.5"/>
</g>
<!-- ksh&#45;i&#45;&gt;Bash -->
<g id="edge32" class="edge">
<title>ksh&#45;i&#45;&gt;Bash</title>
<polyline fill="none" stroke="black" points="627,-183.7 627,-168.6 627,-158.67"/>
<polyline fill="none" stroke="black" points="636,-149.67 785.74,-149.67"/>
<polyline fill="none" stroke="black" points="627,-158.67 627,-158.08 627.06,-157.49 627.17,-156.91 627.29,-156.33 627.46,-155.77 627.69,-155.22 627.91,-154.68 628.19,-154.16 628.52,-153.67 628.84,-153.18 629.22,-152.72 629.64,-152.3 630.05,-151.89 630.51,-151.51 631,-151.18 631.49,-150.86 632.01,-150.58 632.56,-150.35 633.1,-150.13 633.67,-149.95 634.24,-149.84 634.82,-149.72 635.41,-149.67 636,-149.67"/>
<polygon fill="black" stroke="black" points="785.74,-153.17 795.74,-149.67 785.74,-146.17 785.74,-153.17"/>
</g>
<!-- KornShell&#45;&gt;Bash -->
<g id="edge28" class="edge">
<title>KornShell&#45;&gt;Bash</title>
<polyline fill="none" stroke="black" points="759,-183.6 759,-169.82 759,-162.33"/>
<polyline fill="none" stroke="black" points="768,-153.33 786.11,-153.33"/>
<polyline fill="none" stroke="black" points="759,-162.33 759,-161.74 759.06,-161.16 759.17,-160.58 759.29,-160 759.46,-159.43 759.69,-158.89 759.91,-158.34 760.19,-157.82 760.52,-157.33 760.84,-156.84 761.22,-156.39 761.64,-155.97 762.05,-155.55 762.51,-155.18 763,-154.85 763.49,-154.52 764.01,-154.24 764.56,-154.02 765.1,-153.79 765.67,-153.62 766.24,-153.51 766.82,-153.39 767.41,-153.33 768,-153.33"/>
<polygon fill="black" stroke="black" points="786.11,-156.83 796.11,-153.33 786.11,-149.83 786.11,-156.83"/>
</g>
<!-- ksh&#45;POSIX -->
<g id="node28" class="node">
<title>ksh&#45;POSIX</title>
<polygon fill="none" stroke="black" points="966,-241 887.75,-241 887.75,-205 966,-205 966,-241"/>
<text xml:space="preserve" text-anchor="middle" x="926.88" y="-217.95" font-family="Times New Roman,serif" font-size="14.00">ksh&#45;POSIX</text>
</g>
<!-- KornShell&#45;&gt;ksh&#45;POSIX -->
<g id="edge26" class="edge">
<title>KornShell&#45;&gt;ksh&#45;POSIX</title>
<path fill="none" stroke="black" d="M761.91,-212.5C761.91,-212.5 875.98,-212.5 875.98,-212.5"/>
<polygon fill="black" stroke="black" points="875.98,-216 885.98,-212.5 875.98,-209 875.98,-216"/>
</g>
<!-- KornShell&#45;&gt;POSIX -->
<g id="edge27" class="edge">
<title>KornShell&#45;&gt;POSIX</title>
<polyline fill="none" stroke="black" points="756,-183.85 756,-159.24 756,-127.33"/>
<polyline fill="none" stroke="black" points="765,-118.33 887.53,-118.33"/>
<polyline fill="none" stroke="black" points="756,-127.33 756,-126.74 756.06,-126.16 756.17,-125.58 756.29,-125 756.46,-124.43 756.69,-123.89 756.91,-123.34 757.19,-122.82 757.52,-122.33 757.84,-121.84 758.22,-121.39 758.64,-120.97 759.05,-120.55 759.51,-120.18 760,-119.85 760.49,-119.52 761.01,-119.24 761.56,-119.02 762.1,-118.79 762.67,-118.62 763.24,-118.51 763.82,-118.39 764.41,-118.33 765,-118.33"/>
<polygon fill="black" stroke="black" points="887.53,-121.83 897.53,-118.33 887.53,-114.83 887.53,-121.83"/>
</g>
<!-- Perl -->
<g id="node24" class="node">
<title>Perl</title>
<polygon fill="none" stroke="black" points="753,-412 699,-412 699,-376 753,-376 753,-412"/>
<text xml:space="preserve" text-anchor="middle" x="726" y="-388.95" font-family="Times New Roman,serif" font-size="14.00">Perl</text>
</g>
<!-- tcl -->
<g id="node27" class="node">
<title>tcl</title>
<polygon fill="none" stroke="black" points="851.75,-287 797.75,-287 797.75,-251 851.75,-251 851.75,-287"/>
<text xml:space="preserve" text-anchor="middle" x="824.75" y="-263.95" font-family="Times New Roman,serif" font-size="14.00">tcl</text>
</g>
</g>
</svg>
