<?xml version="1.0" encoding="UTF-8" standalone="no"?>
<!DOCTYPE svg PUBLIC "-//W3C//DTD SVG 1.1//EN"
 "http://www.w3.org/Graphics/SVG/1.1/DTD/svg11.dtd">
<!-- Generated by graphviz version 14.1.2 (20260124.0452)
 -->
<!-- Title: Relationship Visualizer Pages: 1 -->
<svg width="2186pt" height="1491pt"
 viewBox="0.00 0.00 2186.00 1491.00" xmlns="http://www.w3.org/2000/svg" xmlns:xlink="http://www.w3.org/1999/xlink">
<g id="graph0" class="graph" transform="scale(1 1) rotate(0) translate(4 1486.75)">
<title>Relationship Visualizer</title>
<polygon fill="white" stroke="none" points="-4,4 -4,-1486.75 2182,-1486.75 2182,4 -4,4"/>
<g id="clust1" class="cluster">
<title>cluster_1</title>
<polygon fill="none" stroke="black" stroke-width="0" points="0,0 0,-1482.75 2178,-1482.75 2178,0 0,0"/>
<text xml:space="preserve" text-anchor="middle" x="1089" y="-1463.55" font-family="Verdana" font-size="16.00" fill="#333333">Album Releases By The Beatles</text>
</g>
<g id="clust2" class="cluster">
<title>cluster_2</title>
<polygon fill="none" stroke="black" points="9,-922 9,-1445.5 261,-1445.5 261,-922 9,-922"/>
<text xml:space="preserve" text-anchor="middle" x="135" y="-1428.2" font-family="Verdana" font-size="14.00" fill="#333333">1963</text>
</g>
<g id="clust3" class="cluster">
<title>cluster_3</title>
<polygon fill="none" stroke="black" points="18,-1180 18,-1411.25 252,-1411.25 252,-1180 18,-1180"/>
<text xml:space="preserve" text-anchor="middle" x="135" y="-1395.85" font-family="Verdana" font-size="12.00" fill="#333333">Please Please Me</text>
</g>
<g id="clust4" class="cluster">
<title>cluster_4</title>
<polygon fill="none" stroke="black" points="18,-931 18,-1162.25 252,-1162.25 252,-931 18,-931"/>
<text xml:space="preserve" text-anchor="middle" x="135" y="-1146.85" font-family="Verdana" font-size="12.00" fill="#333333">With the Beatles</text>
</g>
<g id="clust5" class="cluster">
<title>cluster_5</title>
<polygon fill="none" stroke="black" points="279,-9 279,-1445.5 531,-1445.5 531,-9 279,-9"/>
<text xml:space="preserve" text-anchor="middle" x="405" y="-1428.2" font-family="Verdana" font-size="14.00" fill="#333333">1964</text>
</g>
<g id="clust6" class="cluster">
<title>cluster_6</title>
<polygon fill="none" stroke="black" points="288,-1180 288,-1411.25 522,-1411.25 522,-1180 288,-1180"/>
<text xml:space="preserve" text-anchor="middle" x="405" y="-1395.85" font-family="Verdana" font-size="12.00" fill="#333333">Please Please Me</text>
</g>
<g id="clust7" class="cluster">
<title>cluster_7</title>
<polygon fill="none" stroke="black" points="288,-931 288,-1162.25 522,-1162.25 522,-931 288,-931"/>
<text xml:space="preserve" text-anchor="middle" x="405" y="-1146.85" font-family="Verdana" font-size="12.00" fill="#333333">With the Beatles</text>
</g>
<g id="clust8" class="cluster">
<title>cluster_8</title>
<polygon fill="none" stroke="black" points="288,-474 288,-912.25 522,-912.25 522,-474 288,-474"/>
<text xml:space="preserve" text-anchor="middle" x="405" y="-896.85" font-family="Verdana" font-size="12.00" fill="#333333">A Hard Day&#39;s Night</text>
</g>
<g id="clust9" class="cluster">
<title>cluster_9</title>
<polygon fill="none" stroke="black" points="288,-18 288,-456.25 522,-456.25 522,-18 288,-18"/>
<text xml:space="preserve" text-anchor="middle" x="405" y="-440.85" font-family="Verdana" font-size="12.00" fill="#333333">Beatles for Sale</text>
</g>
<g id="clust10" class="cluster">
<title>cluster_10</title>
<polygon fill="none" stroke="black" points="549,-508 549,-1445.5 801,-1445.5 801,-508 549,-508"/>
<text xml:space="preserve" text-anchor="middle" x="675" y="-1428.2" font-family="Verdana" font-size="14.00" fill="#333333">1965</text>
</g>
<g id="clust11" class="cluster">
<title>cluster_11</title>
<polygon fill="none" stroke="black" points="558,-973 558,-1411.25 792,-1411.25 792,-973 558,-973"/>
<text xml:space="preserve" text-anchor="middle" x="675" y="-1395.85" font-family="Verdana" font-size="12.00" fill="#333333">Help!</text>
</g>
<g id="clust12" class="cluster">
<title>cluster_12</title>
<polygon fill="none" stroke="black" points="558,-517 558,-955.25 792,-955.25 792,-517 558,-517"/>
<text xml:space="preserve" text-anchor="middle" x="675" y="-939.85" font-family="Verdana" font-size="12.00" fill="#333333">Rubber Soul</text>
</g>
<g id="clust13" class="cluster">
<title>cluster_13</title>
<polygon fill="none" stroke="black" points="819,-964 819,-1445.5 1071,-1445.5 1071,-964 819,-964"/>
<text xml:space="preserve" text-anchor="middle" x="945" y="-1428.2" font-family="Verdana" font-size="14.00" fill="#333333">1966</text>
</g>
<g id="clust14" class="cluster">
<title>cluster_14</title>
<polygon fill="none" stroke="black" points="828,-973 828,-1411.25 1062,-1411.25 1062,-973 828,-973"/>
<text xml:space="preserve" text-anchor="middle" x="945" y="-1395.85" font-family="Verdana" font-size="12.00" fill="#333333">Revolver</text>
</g>
<g id="clust15" class="cluster">
<title>cluster_15</title>
<polygon fill="none" stroke="black" points="1089,-964 1089,-1445.5 1359,-1445.5 1359,-964 1089,-964"/>
<text xml:space="preserve" text-anchor="middle" x="1224" y="-1428.2" font-family="Verdana" font-size="14.00" fill="#333333">1967</text>
</g>
<g id="clust16" class="cluster">
<title>cluster_16</title>
<polygon fill="none" stroke="black" points="1098,-973 1098,-1411.25 1350,-1411.25 1350,-973 1098,-973"/>
<text xml:space="preserve" text-anchor="middle" x="1224" y="-1395.85" font-family="Verdana" font-size="12.00" fill="#333333">Sgt. Pepper&#39;s Lonely Hearts Club Band</text>
</g>
<g id="clust17" class="cluster">
<title>cluster_17</title>
<polygon fill="none" stroke="black" points="1377,-1068 1377,-1445.5 1629,-1445.5 1629,-1068 1377,-1068"/>
<text xml:space="preserve" text-anchor="middle" x="1503" y="-1428.2" font-family="Verdana" font-size="14.00" fill="#333333">1968</text>
</g>
<g id="clust18" class="cluster">
<title>cluster_18</title>
<polygon fill="none" stroke="black" points="1386,-1077 1386,-1411.25 1620,-1411.25 1620,-1077 1386,-1077"/>
<text xml:space="preserve" text-anchor="middle" x="1503" y="-1395.85" font-family="Verdana" font-size="12.00" fill="#333333">The Beatles (White Album)</text>
</g>
<g id="clust19" class="cluster">
<title>cluster_19</title>
<polygon fill="none" stroke="black" points="1647,-922 1647,-1445.5 1899,-1445.5 1899,-922 1647,-922"/>
<text xml:space="preserve" text-anchor="middle" x="1773" y="-1428.2" font-family="Verdana" font-size="14.00" fill="#333333">1969</text>
</g>
<g id="clust20" class="cluster">
<title>cluster_20</title>
<polygon fill="none" stroke="black" points="1656,-1180 1656,-1411.25 1890,-1411.25 1890,-1180 1656,-1180"/>
<text xml:space="preserve" text-anchor="middle" x="1773" y="-1395.85" font-family="Verdana" font-size="12.00" fill="#333333">Yellow Submarine</text>
</g>
<g id="clust21" class="cluster">
<title>cluster_21</title>
<polygon fill="none" stroke="black" points="1656,-931 1656,-1162.25 1890,-1162.25 1890,-931 1656,-931"/>
<text xml:space="preserve" text-anchor="middle" x="1773" y="-1146.85" font-family="Verdana" font-size="12.00" fill="#333333">Abbey Road</text>
</g>
<g id="clust22" class="cluster">
<title>cluster_22</title>
<polygon fill="none" stroke="black" points="1917,-1171 1917,-1445.5 2169,-1445.5 2169,-1171 1917,-1171"/>
<text xml:space="preserve" text-anchor="middle" x="2043" y="-1428.2" font-family="Verdana" font-size="14.00" fill="#333333">1970</text>
</g>
<g id="clust23" class="cluster">
<title>cluster_23</title>
<polygon fill="none" stroke="black" points="1926,-1180 1926,-1411.25 2160,-1411.25 2160,-1180 1926,-1180"/>
<text xml:space="preserve" text-anchor="middle" x="2043" y="-1395.85" font-family="Verdana" font-size="12.00" fill="#333333">Let It Be</text>
</g>
<!-- Parlophone PMC 1202 -->
<g id="node1" class="node">
<title>Parlophone PMC 1202</title>
<polygon fill="AliceBlue" stroke="#bdbdbd" points="243,-1378.5 27,-1378.5 27,-1293 243,-1293 243,-1378.5"/>
<image xlink:href="images\please_please_me.png" width="85.5px" height="85.5px" preserveAspectRatio="xMinYMin meet" x="157.5" y="-1378.5"/>
<text xml:space="preserve" text-anchor="start" x="35" y="-1357.75" font-family="Verdana" font-size="10.00">Please Please Me</text>
<text xml:space="preserve" text-anchor="start" x="35" y="-1333" font-family="Verdana" font-size="10.00">3/22/1963 | UK</text>
<text xml:space="preserve" text-anchor="start" x="35" y="-1320.25" font-family="Verdana" font-size="10.00">Parlophone PMC 1202</text>
<text xml:space="preserve" text-anchor="start" x="35" y="-1307.5" font-family="Verdana" font-size="10.00">Mono</text>
</g>
<!-- Parlophone PCS 3042 -->
<g id="node2" class="node">
<title>Parlophone PCS 3042</title>
<polygon fill="#fffcef" stroke="#bdbdbd" points="243,-1274.5 27,-1274.5 27,-1189 243,-1189 243,-1274.5"/>
<image xlink:href="images\please_please_me.png" width="85.5px" height="85.5px" preserveAspectRatio="xMinYMin meet" x="157.5" y="-1274.5"/>
<text xml:space="preserve" text-anchor="start" x="35" y="-1252.25" font-family="Trebuchet MS" font-size="10.00">Please Please Me</text>
<text xml:space="preserve" text-anchor="start" x="35" y="-1228.25" font-family="Trebuchet MS" font-size="10.00">3/22/1963 | UK</text>
<text xml:space="preserve" text-anchor="start" x="35" y="-1216.25" font-family="Trebuchet MS" font-size="10.00">Parlophone PCS 3042</text>
<text xml:space="preserve" text-anchor="start" x="35" y="-1204.25" font-family="Trebuchet MS" font-size="10.00">Stereo</text>
</g>
<!-- Parlophone PMC 1206 -->
<g id="node3" class="node">
<title>Parlophone PMC 1206</title>
<polygon fill="AliceBlue" stroke="#bdbdbd" points="243,-1129.5 27,-1129.5 27,-1044 243,-1044 243,-1129.5"/>
<image xlink:href="images\with_the_beatles.png" width="85.5px" height="85.5px" preserveAspectRatio="xMinYMin meet" x="157.5" y="-1129.5"/>
<text xml:space="preserve" text-anchor="start" x="35" y="-1108.75" font-family="Verdana" font-size="10.00">With the Beatles</text>
<text xml:space="preserve" text-anchor="start" x="35" y="-1084" font-family="Verdana" font-size="10.00">11/22/1963 | UK</text>
<text xml:space="preserve" text-anchor="start" x="35" y="-1071.25" font-family="Verdana" font-size="10.00">Parlophone PMC 1206</text>
<text xml:space="preserve" text-anchor="start" x="35" y="-1058.5" font-family="Verdana" font-size="10.00">Mono</text>
</g>
<!-- Parlophone PCS 3045 -->
<g id="node4" class="node">
<title>Parlophone PCS 3045</title>
<polygon fill="#fffcef" stroke="#bdbdbd" points="243,-1025.5 27,-1025.5 27,-940 243,-940 243,-1025.5"/>
<image xlink:href="images\with_the_beatles.png" width="85.5px" height="85.5px" preserveAspectRatio="xMinYMin meet" x="157.5" y="-1025.5"/>
<text xml:space="preserve" text-anchor="start" x="35" y="-1003.25" font-family="Trebuchet MS" font-size="10.00">With the Beatles</text>
<text xml:space="preserve" text-anchor="start" x="35" y="-979.25" font-family="Trebuchet MS" font-size="10.00">11/22/1963 | UK</text>
<text xml:space="preserve" text-anchor="start" x="35" y="-967.25" font-family="Trebuchet MS" font-size="10.00">Parlophone PCS 3045</text>
<text xml:space="preserve" text-anchor="start" x="35" y="-955.25" font-family="Trebuchet MS" font-size="10.00">Stereo</text>
</g>
<!-- Vee&#45;Jay VJLP 1062 -->
<g id="node5" class="node">
<title>Vee&#45;Jay VJLP 1062</title>
<polygon fill="AliceBlue" stroke="#bdbdbd" points="513,-1378.5 297,-1378.5 297,-1293 513,-1293 513,-1378.5"/>
<image xlink:href="images\introducing_the_beatles.png" width="85.5px" height="85.5px" preserveAspectRatio="xMinYMin meet" x="427.5" y="-1378.5"/>
<text xml:space="preserve" text-anchor="start" x="305" y="-1364.12" font-family="Verdana" font-size="10.00">Introducing... The</text>
<text xml:space="preserve" text-anchor="start" x="305" y="-1351.38" font-family="Verdana" font-size="10.00">Beatles</text>
<text xml:space="preserve" text-anchor="start" x="305" y="-1326.62" font-family="Verdana" font-size="10.00">1/10/1964 | US</text>
<text xml:space="preserve" text-anchor="start" x="305" y="-1313.88" font-family="Verdana" font-size="10.00">Vee&#45;Jay VJLP 1062</text>
<text xml:space="preserve" text-anchor="start" x="305" y="-1301.12" font-family="Verdana" font-size="10.00">Mono</text>
</g>
<!-- Vee&#45;Jay VJLP 1062&#45;S -->
<g id="node6" class="node">
<title>Vee&#45;Jay VJLP 1062&#45;S</title>
<polygon fill="#fffcef" stroke="#bdbdbd" points="513,-1274.5 297,-1274.5 297,-1189 513,-1189 513,-1274.5"/>
<image xlink:href="images\introducing_the_beatles.png" width="85.5px" height="85.5px" preserveAspectRatio="xMinYMin meet" x="427.5" y="-1274.5"/>
<text xml:space="preserve" text-anchor="start" x="305" y="-1258.25" font-family="Trebuchet MS" font-size="10.00">Introducing... The</text>
<text xml:space="preserve" text-anchor="start" x="305" y="-1246.25" font-family="Trebuchet MS" font-size="10.00">Beatles</text>
<text xml:space="preserve" text-anchor="start" x="305" y="-1222.25" font-family="Trebuchet MS" font-size="10.00">1/10/1964 | US</text>
<text xml:space="preserve" text-anchor="start" x="305" y="-1210.25" font-family="Trebuchet MS" font-size="10.00">Vee&#45;Jay VJLP 1062&#45;S</text>
<text xml:space="preserve" text-anchor="start" x="305" y="-1198.25" font-family="Trebuchet MS" font-size="10.00">Stereo</text>
</g>
<!-- Capitol T&#45;2047 -->
<g id="node7" class="node">
<title>Capitol T&#45;2047</title>
<polygon fill="AliceBlue" stroke="#bdbdbd" points="513,-1129.5 297,-1129.5 297,-1044 513,-1044 513,-1129.5"/>
<image xlink:href="images\meet_the_beatles.png" width="85.5px" height="85.5px" preserveAspectRatio="xMinYMin meet" x="427.5" y="-1129.5"/>
<text xml:space="preserve" text-anchor="start" x="305" y="-1108.75" font-family="Verdana" font-size="10.00">Meet the Beatles!</text>
<text xml:space="preserve" text-anchor="start" x="305" y="-1084" font-family="Verdana" font-size="10.00">1/20/1964 | US</text>
<text xml:space="preserve" text-anchor="start" x="305" y="-1071.25" font-family="Verdana" font-size="10.00">Capitol T&#45;2047</text>
<text xml:space="preserve" text-anchor="start" x="305" y="-1058.5" font-family="Verdana" font-size="10.00">Mono</text>
</g>
<!-- Capitol ST&#45;2047 -->
<g id="node8" class="node">
<title>Capitol ST&#45;2047</title>
<polygon fill="#fffcef" stroke="#bdbdbd" points="513,-1025.5 297,-1025.5 297,-940 513,-940 513,-1025.5"/>
<image xlink:href="images\meet_the_beatles.png" width="85.5px" height="85.5px" preserveAspectRatio="xMinYMin meet" x="427.5" y="-1025.5"/>
<text xml:space="preserve" text-anchor="start" x="305" y="-1003.25" font-family="Trebuchet MS" font-size="10.00">Meet the Beatles!</text>
<text xml:space="preserve" text-anchor="start" x="305" y="-979.25" font-family="Trebuchet MS" font-size="10.00">1/20/1964 | US</text>
<text xml:space="preserve" text-anchor="start" x="305" y="-967.25" font-family="Trebuchet MS" font-size="10.00">Capitol ST&#45;2047</text>
<text xml:space="preserve" text-anchor="start" x="305" y="-955.25" font-family="Trebuchet MS" font-size="10.00">Stereo</text>
</g>
<!-- United Artists UAL 3366 -->
<g id="node9" class="node">
<title>United Artists UAL 3366</title>
<polygon fill="AliceBlue" stroke="#bdbdbd" points="513,-879.5 297,-879.5 297,-794 513,-794 513,-879.5"/>
<image xlink:href="images\hard_days_night_us_mono.png" width="85.5px" height="85.5px" preserveAspectRatio="xMinYMin meet" x="427.5" y="-879.5"/>
<text xml:space="preserve" text-anchor="start" x="305" y="-858.75" font-family="Verdana" font-size="10.00">A Hard Day&#39;s Night</text>
<text xml:space="preserve" text-anchor="start" x="305" y="-834" font-family="Verdana" font-size="10.00">6/26/1964 | US</text>
<text xml:space="preserve" text-anchor="start" x="305" y="-821.25" font-family="Verdana" font-size="10.00">United Artists UAL 3366</text>
<text xml:space="preserve" text-anchor="start" x="305" y="-808.5" font-family="Verdana" font-size="10.00">Mono</text>
</g>
<!-- United Artists UAS 6366 -->
<g id="node10" class="node">
<title>United Artists UAS 6366</title>
<polygon fill="#fffcef" stroke="#bdbdbd" points="513,-775.5 297,-775.5 297,-690 513,-690 513,-775.5"/>
<image xlink:href="images\hard_days_night_us_stereo.png" width="85.5px" height="85.5px" preserveAspectRatio="xMinYMin meet" x="427.5" y="-775.5"/>
<text xml:space="preserve" text-anchor="start" x="305" y="-753.25" font-family="Trebuchet MS" font-size="10.00">A Hard Day&#39;s Night</text>
<text xml:space="preserve" text-anchor="start" x="305" y="-729.25" font-family="Trebuchet MS" font-size="10.00">6/26/1964 | US</text>
<text xml:space="preserve" text-anchor="start" x="305" y="-717.25" font-family="Trebuchet MS" font-size="10.00">United Artists UAS 6366</text>
<text xml:space="preserve" text-anchor="start" x="305" y="-705.25" font-family="Trebuchet MS" font-size="10.00">Stereo</text>
</g>
<!-- Parlophone PMC 1230 -->
<g id="node11" class="node">
<title>Parlophone PMC 1230</title>
<polygon fill="AliceBlue" stroke="#bdbdbd" points="513,-672.5 297,-672.5 297,-587 513,-587 513,-672.5"/>
<image xlink:href="images\hard_days_night_uk_mono.png" width="85.5px" height="85.5px" preserveAspectRatio="xMinYMin meet" x="427.5" y="-672.5"/>
<text xml:space="preserve" text-anchor="start" x="305" y="-651.75" font-family="Verdana" font-size="10.00">A Hard Day&#39;s Night</text>
<text xml:space="preserve" text-anchor="start" x="305" y="-627" font-family="Verdana" font-size="10.00">7/10/1964 | UK</text>
<text xml:space="preserve" text-anchor="start" x="305" y="-614.25" font-family="Verdana" font-size="10.00">Parlophone PMC 1230</text>
<text xml:space="preserve" text-anchor="start" x="305" y="-601.5" font-family="Verdana" font-size="10.00">Mono</text>
</g>
<!-- Parlophone PCS 3058 -->
<g id="node12" class="node">
<title>Parlophone PCS 3058</title>
<polygon fill="#fffcef" stroke="#bdbdbd" points="513,-568.5 297,-568.5 297,-483 513,-483 513,-568.5"/>
<image xlink:href="images\hard_days_night_uk_stereo.png" width="85.5px" height="85.5px" preserveAspectRatio="xMinYMin meet" x="427.5" y="-568.5"/>
<text xml:space="preserve" text-anchor="start" x="305" y="-546.25" font-family="Trebuchet MS" font-size="10.00">A Hard Day&#39;s Night</text>
<text xml:space="preserve" text-anchor="start" x="305" y="-522.25" font-family="Trebuchet MS" font-size="10.00">7/10/1964 | UK</text>
<text xml:space="preserve" text-anchor="start" x="305" y="-510.25" font-family="Trebuchet MS" font-size="10.00">Parlophone PCS 3058</text>
<text xml:space="preserve" text-anchor="start" x="305" y="-498.25" font-family="Trebuchet MS" font-size="10.00">Stereo</text>
</g>
<!-- Parlophone PMC 1240 -->
<g id="node13" class="node">
<title>Parlophone PMC 1240</title>
<polygon fill="AliceBlue" stroke="#bdbdbd" points="513,-423.5 297,-423.5 297,-338 513,-338 513,-423.5"/>
<image xlink:href="images\beatles_for_sale_uk_mono.png" width="85.5px" height="85.5px" preserveAspectRatio="xMinYMin meet" x="427.5" y="-423.5"/>
<text xml:space="preserve" text-anchor="start" x="305" y="-402.75" font-family="Verdana" font-size="10.00">Beatles for Sale</text>
<text xml:space="preserve" text-anchor="start" x="305" y="-378" font-family="Verdana" font-size="10.00">12/4/1964 | UK</text>
<text xml:space="preserve" text-anchor="start" x="305" y="-365.25" font-family="Verdana" font-size="10.00">Parlophone PMC 1240</text>
<text xml:space="preserve" text-anchor="start" x="305" y="-352.5" font-family="Verdana" font-size="10.00">Mono</text>
</g>
<!-- Parlophone PCS 3062 -->
<g id="node14" class="node">
<title>Parlophone PCS 3062</title>
<polygon fill="#fffcef" stroke="#bdbdbd" points="513,-319.5 297,-319.5 297,-234 513,-234 513,-319.5"/>
<image xlink:href="images\beatles_for_sale_uk_stereo.png" width="85.5px" height="85.5px" preserveAspectRatio="xMinYMin meet" x="427.5" y="-319.5"/>
<text xml:space="preserve" text-anchor="start" x="305" y="-297.25" font-family="Trebuchet MS" font-size="10.00">Beatles for Sale</text>
<text xml:space="preserve" text-anchor="start" x="305" y="-273.25" font-family="Trebuchet MS" font-size="10.00">12/4/1964 | UK</text>
<text xml:space="preserve" text-anchor="start" x="305" y="-261.25" font-family="Trebuchet MS" font-size="10.00">Parlophone PCS 3062</text>
<text xml:space="preserve" text-anchor="start" x="305" y="-249.25" font-family="Trebuchet MS" font-size="10.00">Stereo</text>
</g>
<!-- Capitol T&#45;2228 -->
<g id="node15" class="node">
<title>Capitol T&#45;2228</title>
<polygon fill="AliceBlue" stroke="#bdbdbd" points="513,-216.5 297,-216.5 297,-131 513,-131 513,-216.5"/>
<image xlink:href="images\beatles_65_us_mono.png" width="85.5px" height="85.5px" preserveAspectRatio="xMinYMin meet" x="427.5" y="-216.5"/>
<text xml:space="preserve" text-anchor="start" x="305" y="-195.75" font-family="Verdana" font-size="10.00">Beatles &#39;65</text>
<text xml:space="preserve" text-anchor="start" x="305" y="-171" font-family="Verdana" font-size="10.00">12/15/1964 | US</text>
<text xml:space="preserve" text-anchor="start" x="305" y="-158.25" font-family="Verdana" font-size="10.00">Capitol T&#45;2228</text>
<text xml:space="preserve" text-anchor="start" x="305" y="-145.5" font-family="Verdana" font-size="10.00">Mono</text>
</g>
<!-- Capitol ST&#45;2228 -->
<g id="node16" class="node">
<title>Capitol ST&#45;2228</title>
<polygon fill="#fffcef" stroke="#bdbdbd" points="513,-112.5 297,-112.5 297,-27 513,-27 513,-112.5"/>
<image xlink:href="images\beatles_65_us_stereo.png" width="85.5px" height="85.5px" preserveAspectRatio="xMinYMin meet" x="427.5" y="-112.5"/>
<text xml:space="preserve" text-anchor="start" x="305" y="-90.25" font-family="Trebuchet MS" font-size="10.00">Beatles &#39;65</text>
<text xml:space="preserve" text-anchor="start" x="305" y="-66.25" font-family="Trebuchet MS" font-size="10.00">12/15/1964 | US</text>
<text xml:space="preserve" text-anchor="start" x="305" y="-54.25" font-family="Trebuchet MS" font-size="10.00">Capitol ST&#45;2228</text>
<text xml:space="preserve" text-anchor="start" x="305" y="-42.25" font-family="Trebuchet MS" font-size="10.00">Stereo</text>
</g>
<!-- Parlophone PMC 1255 -->
<g id="node17" class="node">
<title>Parlophone PMC 1255</title>
<polygon fill="AliceBlue" stroke="#bdbdbd" points="783,-1378.5 567,-1378.5 567,-1293 783,-1293 783,-1378.5"/>
<image xlink:href="images\help_uk_mono.png" width="85.5px" height="85.5px" preserveAspectRatio="xMinYMin meet" x="697.5" y="-1378.5"/>
<text xml:space="preserve" text-anchor="start" x="575" y="-1357.75" font-family="Verdana" font-size="10.00">Help!</text>
<text xml:space="preserve" text-anchor="start" x="575" y="-1333" font-family="Verdana" font-size="10.00">8/6/1965 | UK</text>
<text xml:space="preserve" text-anchor="start" x="575" y="-1320.25" font-family="Verdana" font-size="10.00">Parlophone PMC 1255</text>
<text xml:space="preserve" text-anchor="start" x="575" y="-1307.5" font-family="Verdana" font-size="10.00">Mono</text>
</g>
<!-- Parlophone PCS 3071 -->
<g id="node18" class="node">
<title>Parlophone PCS 3071</title>
<polygon fill="#fffcef" stroke="#bdbdbd" points="783,-1274.5 567,-1274.5 567,-1189 783,-1189 783,-1274.5"/>
<image xlink:href="images\help_uk_stereo.png" width="85.5px" height="85.5px" preserveAspectRatio="xMinYMin meet" x="697.5" y="-1274.5"/>
<text xml:space="preserve" text-anchor="start" x="575" y="-1252.25" font-family="Trebuchet MS" font-size="10.00">Help!</text>
<text xml:space="preserve" text-anchor="start" x="575" y="-1228.25" font-family="Trebuchet MS" font-size="10.00">8/6/1965 | UK</text>
<text xml:space="preserve" text-anchor="start" x="575" y="-1216.25" font-family="Trebuchet MS" font-size="10.00">Parlophone PCS 3071</text>
<text xml:space="preserve" text-anchor="start" x="575" y="-1204.25" font-family="Trebuchet MS" font-size="10.00">Stereo</text>
</g>
<!-- Capitol MAS&#45;2386 -->
<g id="node19" class="node">
<title>Capitol MAS&#45;2386</title>
<polygon fill="AliceBlue" stroke="#bdbdbd" points="783,-1171.5 567,-1171.5 567,-1086 783,-1086 783,-1171.5"/>
<image xlink:href="images\help_us_mono.png" width="85.5px" height="85.5px" preserveAspectRatio="xMinYMin meet" x="697.5" y="-1171.5"/>
<text xml:space="preserve" text-anchor="start" x="575" y="-1163.5" font-family="Verdana" font-size="10.00">Help!</text>
<text xml:space="preserve" text-anchor="start" x="575" y="-1150.75" font-family="Verdana" font-size="10.00">(Original Motion Picture</text>
<text xml:space="preserve" text-anchor="start" x="575" y="-1138" font-family="Verdana" font-size="10.00">Soundtrack)</text>
<text xml:space="preserve" text-anchor="start" x="575" y="-1113.25" font-family="Verdana" font-size="10.00">8/13/1965 | US</text>
<text xml:space="preserve" text-anchor="start" x="575" y="-1100.5" font-family="Verdana" font-size="10.00">Capitol MAS&#45;2386</text>
<text xml:space="preserve" text-anchor="start" x="575" y="-1087.75" font-family="Verdana" font-size="10.00">Mono</text>
</g>
<!-- Capitol SMAS&#45;2386 -->
<g id="node20" class="node">
<title>Capitol SMAS&#45;2386</title>
<polygon fill="#fffcef" stroke="#bdbdbd" points="783,-1067.5 567,-1067.5 567,-982 783,-982 783,-1067.5"/>
<image xlink:href="images\help_us_stereo.png" width="85.5px" height="85.5px" preserveAspectRatio="xMinYMin meet" x="697.5" y="-1067.5"/>
<text xml:space="preserve" text-anchor="start" x="575" y="-1057.25" font-family="Trebuchet MS" font-size="10.00">Help!</text>
<text xml:space="preserve" text-anchor="start" x="575" y="-1045.25" font-family="Trebuchet MS" font-size="10.00">(Original Motion Picture</text>
<text xml:space="preserve" text-anchor="start" x="575" y="-1033.25" font-family="Trebuchet MS" font-size="10.00">Soundtrack)</text>
<text xml:space="preserve" text-anchor="start" x="575" y="-1009.25" font-family="Trebuchet MS" font-size="10.00">8/13/1965 | US</text>
<text xml:space="preserve" text-anchor="start" x="575" y="-997.25" font-family="Trebuchet MS" font-size="10.00">Capitol SMAS&#45;2386</text>
<text xml:space="preserve" text-anchor="start" x="575" y="-985.25" font-family="Trebuchet MS" font-size="10.00">Stereo</text>
</g>
<!-- Parlophone PMC 1267 -->
<g id="node21" class="node">
<title>Parlophone PMC 1267</title>
<polygon fill="AliceBlue" stroke="#bdbdbd" points="783,-922.5 567,-922.5 567,-837 783,-837 783,-922.5"/>
<image xlink:href="images\rubber_soul.png" width="85.5px" height="85.5px" preserveAspectRatio="xMinYMin meet" x="697.5" y="-922.5"/>
<text xml:space="preserve" text-anchor="start" x="575" y="-901.75" font-family="Verdana" font-size="10.00">Rubber Soul</text>
<text xml:space="preserve" text-anchor="start" x="575" y="-877" font-family="Verdana" font-size="10.00">12/3/1965 | UK</text>
<text xml:space="preserve" text-anchor="start" x="575" y="-864.25" font-family="Verdana" font-size="10.00">Parlophone PMC 1267</text>
<text xml:space="preserve" text-anchor="start" x="575" y="-851.5" font-family="Verdana" font-size="10.00">Mono</text>
</g>
<!-- Parlophone PCS 3075 -->
<g id="node22" class="node">
<title>Parlophone PCS 3075</title>
<polygon fill="#fffcef" stroke="#bdbdbd" points="783,-818.5 567,-818.5 567,-733 783,-733 783,-818.5"/>
<image xlink:href="images\rubber_soul.png" width="85.5px" height="85.5px" preserveAspectRatio="xMinYMin meet" x="697.5" y="-818.5"/>
<text xml:space="preserve" text-anchor="start" x="575" y="-796.25" font-family="Trebuchet MS" font-size="10.00">Rubber Soul</text>
<text xml:space="preserve" text-anchor="start" x="575" y="-772.25" font-family="Trebuchet MS" font-size="10.00">12/3/1965 | UK</text>
<text xml:space="preserve" text-anchor="start" x="575" y="-760.25" font-family="Trebuchet MS" font-size="10.00">Parlophone PCS 3075</text>
<text xml:space="preserve" text-anchor="start" x="575" y="-748.25" font-family="Trebuchet MS" font-size="10.00">Stereo</text>
</g>
<!-- Capitol T&#45;2442 -->
<g id="node23" class="node">
<title>Capitol T&#45;2442</title>
<polygon fill="AliceBlue" stroke="#bdbdbd" points="783,-715.5 567,-715.5 567,-630 783,-630 783,-715.5"/>
<image xlink:href="images\rubber_soul.png" width="85.5px" height="85.5px" preserveAspectRatio="xMinYMin meet" x="697.5" y="-715.5"/>
<text xml:space="preserve" text-anchor="start" x="575" y="-694.75" font-family="Verdana" font-size="10.00">Rubber Soul</text>
<text xml:space="preserve" text-anchor="start" x="575" y="-670" font-family="Verdana" font-size="10.00">12/6/1965 | US</text>
<text xml:space="preserve" text-anchor="start" x="575" y="-657.25" font-family="Verdana" font-size="10.00">Capitol T&#45;2442</text>
<text xml:space="preserve" text-anchor="start" x="575" y="-644.5" font-family="Verdana" font-size="10.00">Mono</text>
</g>
<!-- Capitol ST&#45;2442 -->
<g id="node24" class="node">
<title>Capitol ST&#45;2442</title>
<polygon fill="#fffcef" stroke="#bdbdbd" points="783,-611.5 567,-611.5 567,-526 783,-526 783,-611.5"/>
<image xlink:href="images\rubber_soul.png" width="85.5px" height="85.5px" preserveAspectRatio="xMinYMin meet" x="697.5" y="-611.5"/>
<text xml:space="preserve" text-anchor="start" x="575" y="-589.25" font-family="Trebuchet MS" font-size="10.00">Rubber Soul</text>
<text xml:space="preserve" text-anchor="start" x="575" y="-565.25" font-family="Trebuchet MS" font-size="10.00">12/6/1965 | US</text>
<text xml:space="preserve" text-anchor="start" x="575" y="-553.25" font-family="Trebuchet MS" font-size="10.00">Capitol ST&#45;2442</text>
<text xml:space="preserve" text-anchor="start" x="575" y="-541.25" font-family="Trebuchet MS" font-size="10.00">Stereo</text>
</g>
<!-- Parlophone PMC 7009 -->
<g id="node25" class="node">
<title>Parlophone PMC 7009</title>
<polygon fill="AliceBlue" stroke="#bdbdbd" points="1053,-1378.5 837,-1378.5 837,-1293 1053,-1293 1053,-1378.5"/>
<image xlink:href="images\revolver_uk.png" width="85.5px" height="85.5px" preserveAspectRatio="xMinYMin meet" x="967.5" y="-1378.5"/>
<text xml:space="preserve" text-anchor="start" x="845" y="-1357.75" font-family="Verdana" font-size="10.00">Revolver</text>
<text xml:space="preserve" text-anchor="start" x="845" y="-1333" font-family="Verdana" font-size="10.00">8/5/1966 | UK</text>
<text xml:space="preserve" text-anchor="start" x="845" y="-1320.25" font-family="Verdana" font-size="10.00">Parlophone PMC 7009</text>
<text xml:space="preserve" text-anchor="start" x="845" y="-1307.5" font-family="Verdana" font-size="10.00">Mono</text>
</g>
<!-- Parlophone PCS 7009 -->
<g id="node26" class="node">
<title>Parlophone PCS 7009</title>
<polygon fill="#fffcef" stroke="#bdbdbd" points="1053,-1274.5 837,-1274.5 837,-1189 1053,-1189 1053,-1274.5"/>
<image xlink:href="images\revolver_uk.png" width="85.5px" height="85.5px" preserveAspectRatio="xMinYMin meet" x="967.5" y="-1274.5"/>
<text xml:space="preserve" text-anchor="start" x="845" y="-1252.25" font-family="Trebuchet MS" font-size="10.00">Revolver</text>
<text xml:space="preserve" text-anchor="start" x="845" y="-1228.25" font-family="Trebuchet MS" font-size="10.00">8/5/1966 | UK</text>
<text xml:space="preserve" text-anchor="start" x="845" y="-1216.25" font-family="Trebuchet MS" font-size="10.00">Parlophone PCS 7009</text>
<text xml:space="preserve" text-anchor="start" x="845" y="-1204.25" font-family="Trebuchet MS" font-size="10.00">Stereo</text>
</g>
<!-- Capitol T&#45;2576 -->
<g id="node27" class="node">
<title>Capitol T&#45;2576</title>
<polygon fill="AliceBlue" stroke="#bdbdbd" points="1053,-1171.5 837,-1171.5 837,-1086 1053,-1086 1053,-1171.5"/>
<image xlink:href="images\revolver_us.png" width="85.5px" height="85.5px" preserveAspectRatio="xMinYMin meet" x="967.5" y="-1171.5"/>
<text xml:space="preserve" text-anchor="start" x="845" y="-1150.75" font-family="Verdana" font-size="10.00">Revolver</text>
<text xml:space="preserve" text-anchor="start" x="845" y="-1126" font-family="Verdana" font-size="10.00">8/8/1966 | US</text>
<text xml:space="preserve" text-anchor="start" x="845" y="-1113.25" font-family="Verdana" font-size="10.00">Capitol T&#45;2576</text>
<text xml:space="preserve" text-anchor="start" x="845" y="-1100.5" font-family="Verdana" font-size="10.00">Mono</text>
</g>
<!-- Capitol ST&#45;2576 -->
<g id="node28" class="node">
<title>Capitol ST&#45;2576</title>
<polygon fill="#fffcef" stroke="#bdbdbd" points="1053,-1067.5 837,-1067.5 837,-982 1053,-982 1053,-1067.5"/>
<image xlink:href="images\revolver_us.png" width="85.5px" height="85.5px" preserveAspectRatio="xMinYMin meet" x="967.5" y="-1067.5"/>
<text xml:space="preserve" text-anchor="start" x="845" y="-1045.25" font-family="Trebuchet MS" font-size="10.00">Revolver</text>
<text xml:space="preserve" text-anchor="start" x="845" y="-1021.25" font-family="Trebuchet MS" font-size="10.00">8/8/1966 | US</text>
<text xml:space="preserve" text-anchor="start" x="845" y="-1009.25" font-family="Trebuchet MS" font-size="10.00">Capitol ST&#45;2576</text>
<text xml:space="preserve" text-anchor="start" x="845" y="-997.25" font-family="Trebuchet MS" font-size="10.00">Stereo</text>
</g>
<!-- Parlophone PMC 7027 -->
<g id="node29" class="node">
<title>Parlophone PMC 7027</title>
<polygon fill="AliceBlue" stroke="#bdbdbd" points="1332,-1378.5 1116,-1378.5 1116,-1293 1332,-1293 1332,-1378.5"/>
<image xlink:href="images\sgt_peppers.png" width="85.5px" height="85.5px" preserveAspectRatio="xMinYMin meet" x="1246.5" y="-1378.5"/>
<text xml:space="preserve" text-anchor="start" x="1124" y="-1364.12" font-family="Verdana" font-size="10.00">Sgt. Pepper&#39;s Lonely</text>
<text xml:space="preserve" text-anchor="start" x="1124" y="-1351.38" font-family="Verdana" font-size="10.00">Hearts Club Band</text>
<text xml:space="preserve" text-anchor="start" x="1124" y="-1326.62" font-family="Verdana" font-size="10.00">5/26/1967 | UK</text>
<text xml:space="preserve" text-anchor="start" x="1124" y="-1313.88" font-family="Verdana" font-size="10.00">Parlophone PMC 7027</text>
<text xml:space="preserve" text-anchor="start" x="1124" y="-1301.12" font-family="Verdana" font-size="10.00">Mono</text>
</g>
<!-- Parlophone PCS 7027 -->
<g id="node30" class="node">
<title>Parlophone PCS 7027</title>
<polygon fill="#fffcef" stroke="#bdbdbd" points="1332,-1274.5 1116,-1274.5 1116,-1189 1332,-1189 1332,-1274.5"/>
<image xlink:href="images\sgt_peppers.png" width="85.5px" height="85.5px" preserveAspectRatio="xMinYMin meet" x="1246.5" y="-1274.5"/>
<text xml:space="preserve" text-anchor="start" x="1124" y="-1258.25" font-family="Trebuchet MS" font-size="10.00">Sgt. Pepper&#39;s Lonely</text>
<text xml:space="preserve" text-anchor="start" x="1124" y="-1246.25" font-family="Trebuchet MS" font-size="10.00">Hearts Club Band</text>
<text xml:space="preserve" text-anchor="start" x="1124" y="-1222.25" font-family="Trebuchet MS" font-size="10.00">5/26/1967 | UK</text>
<text xml:space="preserve" text-anchor="start" x="1124" y="-1210.25" font-family="Trebuchet MS" font-size="10.00">Parlophone PCS 7027</text>
<text xml:space="preserve" text-anchor="start" x="1124" y="-1198.25" font-family="Trebuchet MS" font-size="10.00">Stereo</text>
</g>
<!-- Capitol MAS&#45;2653 -->
<g id="node31" class="node">
<title>Capitol MAS&#45;2653</title>
<polygon fill="AliceBlue" stroke="#bdbdbd" points="1332,-1171.5 1116,-1171.5 1116,-1086 1332,-1086 1332,-1171.5"/>
<image xlink:href="images\sgt_peppers.png" width="85.5px" height="85.5px" preserveAspectRatio="xMinYMin meet" x="1246.5" y="-1171.5"/>
<text xml:space="preserve" text-anchor="start" x="1124" y="-1157.12" font-family="Verdana" font-size="10.00">Sgt. Pepper&#39;s Lonely</text>
<text xml:space="preserve" text-anchor="start" x="1124" y="-1144.38" font-family="Verdana" font-size="10.00">Hearts Club Band</text>
<text xml:space="preserve" text-anchor="start" x="1124" y="-1119.62" font-family="Verdana" font-size="10.00">6/2/1967 | US</text>
<text xml:space="preserve" text-anchor="start" x="1124" y="-1106.88" font-family="Verdana" font-size="10.00">Capitol MAS&#45;2653</text>
<text xml:space="preserve" text-anchor="start" x="1124" y="-1094.12" font-family="Verdana" font-size="10.00">Mono</text>
</g>
<!-- Capitol SMAS&#45;2653 -->
<g id="node32" class="node">
<title>Capitol SMAS&#45;2653</title>
<polygon fill="#fffcef" stroke="#bdbdbd" points="1332,-1067.5 1116,-1067.5 1116,-982 1332,-982 1332,-1067.5"/>
<image xlink:href="images\sgt_peppers.png" width="85.5px" height="85.5px" preserveAspectRatio="xMinYMin meet" x="1246.5" y="-1067.5"/>
<text xml:space="preserve" text-anchor="start" x="1124" y="-1051.25" font-family="Trebuchet MS" font-size="10.00">Sgt. Pepper&#39;s Lonely</text>
<text xml:space="preserve" text-anchor="start" x="1124" y="-1039.25" font-family="Trebuchet MS" font-size="10.00">Hearts Club Band</text>
<text xml:space="preserve" text-anchor="start" x="1124" y="-1015.25" font-family="Trebuchet MS" font-size="10.00">6/2/1967 | US</text>
<text xml:space="preserve" text-anchor="start" x="1124" y="-1003.25" font-family="Trebuchet MS" font-size="10.00">Capitol SMAS&#45;2653</text>
<text xml:space="preserve" text-anchor="start" x="1124" y="-991.25" font-family="Trebuchet MS" font-size="10.00">Stereo</text>
</g>
<!-- Apple PMC 7067/8 -->
<g id="node33" class="node">
<title>Apple PMC 7067/8</title>
<polygon fill="AliceBlue" stroke="#bdbdbd" points="1611,-1378.5 1395,-1378.5 1395,-1293 1611,-1293 1611,-1378.5"/>
<image xlink:href="images\white_album.png" width="85.5px" height="85.5px" preserveAspectRatio="xMinYMin meet" x="1525.5" y="-1378.5"/>
<text xml:space="preserve" text-anchor="start" x="1403" y="-1364.12" font-family="Verdana" font-size="10.00">The Beatles</text>
<text xml:space="preserve" text-anchor="start" x="1403" y="-1351.38" font-family="Verdana" font-size="10.00">(White Album)</text>
<text xml:space="preserve" text-anchor="start" x="1403" y="-1326.62" font-family="Verdana" font-size="10.00">11/22/1968 | UK</text>
<text xml:space="preserve" text-anchor="start" x="1403" y="-1313.88" font-family="Verdana" font-size="10.00">Apple PMC 7067/8</text>
<text xml:space="preserve" text-anchor="start" x="1403" y="-1301.12" font-family="Verdana" font-size="10.00">Mono</text>
</g>
<!-- Apple PCS 7067/8 -->
<g id="node34" class="node">
<title>Apple PCS 7067/8</title>
<polygon fill="#fffcef" stroke="#bdbdbd" points="1611,-1275.5 1395,-1275.5 1395,-1190 1611,-1190 1611,-1275.5"/>
<image xlink:href="images\white_album.png" width="85.5px" height="85.5px" preserveAspectRatio="xMinYMin meet" x="1525.5" y="-1275.5"/>
<text xml:space="preserve" text-anchor="start" x="1403" y="-1259.25" font-family="Trebuchet MS" font-size="10.00">The Beatles</text>
<text xml:space="preserve" text-anchor="start" x="1403" y="-1247.25" font-family="Trebuchet MS" font-size="10.00">(White Album)</text>
<text xml:space="preserve" text-anchor="start" x="1403" y="-1223.25" font-family="Trebuchet MS" font-size="10.00">11/22/1968 | UK</text>
<text xml:space="preserve" text-anchor="start" x="1403" y="-1211.25" font-family="Trebuchet MS" font-size="10.00">Apple PCS 7067/8</text>
<text xml:space="preserve" text-anchor="start" x="1403" y="-1199.25" font-family="Trebuchet MS" font-size="10.00">Stereo</text>
</g>
<!-- Apple SWBO&#45;101 -->
<g id="node35" class="node">
<title>Apple SWBO&#45;101</title>
<polygon fill="#fffcef" stroke="#bdbdbd" points="1611,-1171.5 1395,-1171.5 1395,-1086 1611,-1086 1611,-1171.5"/>
<image xlink:href="images\white_album.png" width="85.5px" height="85.5px" preserveAspectRatio="xMinYMin meet" x="1525.5" y="-1171.5"/>
<text xml:space="preserve" text-anchor="start" x="1403" y="-1155.25" font-family="Trebuchet MS" font-size="10.00">The Beatles</text>
<text xml:space="preserve" text-anchor="start" x="1403" y="-1143.25" font-family="Trebuchet MS" font-size="10.00">(White Album)</text>
<text xml:space="preserve" text-anchor="start" x="1403" y="-1119.25" font-family="Trebuchet MS" font-size="10.00">11/25/1968 | US</text>
<text xml:space="preserve" text-anchor="start" x="1403" y="-1107.25" font-family="Trebuchet MS" font-size="10.00">Apple SWBO&#45;101</text>
<text xml:space="preserve" text-anchor="start" x="1403" y="-1095.25" font-family="Trebuchet MS" font-size="10.00">Stereo</text>
</g>
<!-- Apple PCS 7070 -->
<g id="node36" class="node">
<title>Apple PCS 7070</title>
<polygon fill="#fffcef" stroke="#bdbdbd" points="1881,-1378.5 1665,-1378.5 1665,-1293 1881,-1293 1881,-1378.5"/>
<image xlink:href="images\yellow_submarine.png" width="85.5px" height="85.5px" preserveAspectRatio="xMinYMin meet" x="1795.5" y="-1378.5"/>
<text xml:space="preserve" text-anchor="start" x="1673" y="-1356.25" font-family="Trebuchet MS" font-size="10.00">Yellow Submarine</text>
<text xml:space="preserve" text-anchor="start" x="1673" y="-1332.25" font-family="Trebuchet MS" font-size="10.00">1/13/1969 | UK</text>
<text xml:space="preserve" text-anchor="start" x="1673" y="-1320.25" font-family="Trebuchet MS" font-size="10.00">Apple PCS 7070</text>
<text xml:space="preserve" text-anchor="start" x="1673" y="-1308.25" font-family="Trebuchet MS" font-size="10.00">Stereo</text>
</g>
<!-- Apple SW&#45;153 -->
<g id="node37" class="node">
<title>Apple SW&#45;153</title>
<polygon fill="#fffcef" stroke="#bdbdbd" points="1881,-1274.5 1665,-1274.5 1665,-1189 1881,-1189 1881,-1274.5"/>
<image xlink:href="images\yellow_submarine.png" width="85.5px" height="85.5px" preserveAspectRatio="xMinYMin meet" x="1795.5" y="-1274.5"/>
<text xml:space="preserve" text-anchor="start" x="1673" y="-1252.25" font-family="Trebuchet MS" font-size="10.00">Yellow Submarine</text>
<text xml:space="preserve" text-anchor="start" x="1673" y="-1228.25" font-family="Trebuchet MS" font-size="10.00">1/13/1969 | US</text>
<text xml:space="preserve" text-anchor="start" x="1673" y="-1216.25" font-family="Trebuchet MS" font-size="10.00">Apple SW&#45;153</text>
<text xml:space="preserve" text-anchor="start" x="1673" y="-1204.25" font-family="Trebuchet MS" font-size="10.00">Stereo</text>
</g>
<!-- Apple PCS 7088 -->
<g id="node38" class="node">
<title>Apple PCS 7088</title>
<polygon fill="#fffcef" stroke="#bdbdbd" points="1881,-1129.5 1665,-1129.5 1665,-1044 1881,-1044 1881,-1129.5"/>
<image xlink:href="images\abbey_road.png" width="85.5px" height="85.5px" preserveAspectRatio="xMinYMin meet" x="1795.5" y="-1129.5"/>
<text xml:space="preserve" text-anchor="start" x="1673" y="-1107.25" font-family="Trebuchet MS" font-size="10.00">Abbey Road</text>
<text xml:space="preserve" text-anchor="start" x="1673" y="-1083.25" font-family="Trebuchet MS" font-size="10.00">9/26/1969 | UK</text>
<text xml:space="preserve" text-anchor="start" x="1673" y="-1071.25" font-family="Trebuchet MS" font-size="10.00">Apple PCS 7088</text>
<text xml:space="preserve" text-anchor="start" x="1673" y="-1059.25" font-family="Trebuchet MS" font-size="10.00">Stereo</text>
</g>
<!-- Apple SO&#45;383 -->
<g id="node39" class="node">
<title>Apple SO&#45;383</title>
<polygon fill="#fffcef" stroke="#bdbdbd" points="1881,-1025.5 1665,-1025.5 1665,-940 1881,-940 1881,-1025.5"/>
<image xlink:href="images\abbey_road.png" width="85.5px" height="85.5px" preserveAspectRatio="xMinYMin meet" x="1795.5" y="-1025.5"/>
<text xml:space="preserve" text-anchor="start" x="1673" y="-1003.25" font-family="Trebuchet MS" font-size="10.00">Abbey Road</text>
<text xml:space="preserve" text-anchor="start" x="1673" y="-979.25" font-family="Trebuchet MS" font-size="10.00">10/1/1969 | US</text>
<text xml:space="preserve" text-anchor="start" x="1673" y="-967.25" font-family="Trebuchet MS" font-size="10.00">Apple SO&#45;383</text>
<text xml:space="preserve" text-anchor="start" x="1673" y="-955.25" font-family="Trebuchet MS" font-size="10.00">Stereo</text>
</g>
<!-- Apple PCS 7096 -->
<g id="node40" class="node">
<title>Apple PCS 7096</title>
<polygon fill="#fffcef" stroke="#bdbdbd" points="2151,-1378.5 1935,-1378.5 1935,-1293 2151,-1293 2151,-1378.5"/>
<image xlink:href="images\let_it_be.png" width="85.5px" height="85.5px" preserveAspectRatio="xMinYMin meet" x="2065.5" y="-1378.5"/>
<text xml:space="preserve" text-anchor="start" x="1943" y="-1356.25" font-family="Trebuchet MS" font-size="10.00">Let It Be</text>
<text xml:space="preserve" text-anchor="start" x="1943" y="-1332.25" font-family="Trebuchet MS" font-size="10.00">5/8/1970 | UK</text>
<text xml:space="preserve" text-anchor="start" x="1943" y="-1320.25" font-family="Trebuchet MS" font-size="10.00">Apple PCS 7096</text>
<text xml:space="preserve" text-anchor="start" x="1943" y="-1308.25" font-family="Trebuchet MS" font-size="10.00">Stereo</text>
</g>
<!-- Apple AR&#45;34001 -->
<g id="node41" class="node">
<title>Apple AR&#45;34001</title>
<polygon fill="#fffcef" stroke="#bdbdbd" points="2151,-1274.5 1935,-1274.5 1935,-1189 2151,-1189 2151,-1274.5"/>
<image xlink:href="images\let_it_be.png" width="85.5px" height="85.5px" preserveAspectRatio="xMinYMin meet" x="2065.5" y="-1274.5"/>
<text xml:space="preserve" text-anchor="start" x="1943" y="-1252.25" font-family="Trebuchet MS" font-size="10.00">Let It Be</text>
<text xml:space="preserve" text-anchor="start" x="1943" y="-1228.25" font-family="Trebuchet MS" font-size="10.00">5/18/1970 | US</text>
<text xml:space="preserve" text-anchor="start" x="1943" y="-1216.25" font-family="Trebuchet MS" font-size="10.00">Apple AR&#45;34001</text>
<text xml:space="preserve" text-anchor="start" x="1943" y="-1204.25" font-family="Trebuchet MS" font-size="10.00">Stereo</text>
</g>
</g>
</svg>
