<?xml version="1.0" encoding="UTF-8" standalone="no"?>
<!DOCTYPE svg PUBLIC "-//W3C//DTD SVG 1.1//EN"
 "http://www.w3.org/Graphics/SVG/1.1/DTD/svg11.dtd">
<!-- Generated by graphviz version 14.1.2 (20260124.0452)
 -->
<!-- Title: Relationship Visualizer using MS Excel Pages: 1 -->
<svg width="1215pt" height="1043pt"
 viewBox="0.00 0.00 1215.00 1043.00" xmlns="http://www.w3.org/2000/svg" xmlns:xlink="http://www.w3.org/1999/xlink">
<g id="graph0" class="graph" transform="scale(1 1) rotate(0) translate(4 1039.25)">
<title>Relationship Visualizer using MS Excel</title>
<polygon fill="white" stroke="none" points="-4,4 -4,-1039.25 1210.75,-1039.25 1210.75,4 -4,4"/>
<text xml:space="preserve" text-anchor="middle" x="603.38" y="-1016.05" font-family="Verdana Bold" font-size="16.00">2022 &#45; 2029 Roadmap</text>
<!-- 2022 -->
<g id="node1" class="node">
<title>2022</title>
<polygon fill="#d3fdd3" stroke="#008b00" stroke-width="2" points="54,-18 0,-18 0,0 54,0 54,-18"/>
<text xml:space="preserve" text-anchor="middle" x="27" y="-5.88" font-family="Verdana" font-size="10.00">2022</text>
</g>
<!-- 2023 -->
<g id="node2" class="node">
<title>2023</title>
<polygon fill="#d3fdd3" stroke="#008b00" stroke-width="2" points="152.5,-18 98.5,-18 98.5,0 152.5,0 152.5,-18"/>
<text xml:space="preserve" text-anchor="middle" x="125.5" y="-5.88" font-family="Verdana" font-size="10.00">2023</text>
</g>
<!-- 2022&#45;&gt;2023 -->
<g id="edge1" class="edge">
<title>2022&#45;&gt;2023</title>
<path fill="none" stroke="Transparent" d="M54.88,-9C64.61,-9 75.78,-9 86.29,-9"/>
<polygon fill="Transparent" stroke="Transparent" points="86.25,-12.5 96.25,-9 86.25,-5.5 86.25,-12.5"/>
</g>
<!-- 2024 -->
<g id="node3" class="node">
<title>2024</title>
<polygon fill="#d3fdd3" stroke="#008b00" stroke-width="2" points="267.88,-18 213.88,-18 213.88,0 267.88,0 267.88,-18"/>
<text xml:space="preserve" text-anchor="middle" x="240.88" y="-5.88" font-family="Verdana" font-size="10.00">2024</text>
</g>
<!-- 2023&#45;&gt;2024 -->
<g id="edge2" class="edge">
<title>2023&#45;&gt;2024</title>
<path fill="none" stroke="Transparent" d="M153.37,-9C167.91,-9 186.11,-9 202.07,-9"/>
<polygon fill="Transparent" stroke="Transparent" points="201.69,-12.5 211.69,-9 201.69,-5.5 201.69,-12.5"/>
</g>
<!-- 2025 -->
<g id="node4" class="node">
<title>2025</title>
<polygon fill="#d3fdd3" stroke="#008b00" stroke-width="2" points="444.5,-18 390.5,-18 390.5,0 444.5,0 444.5,-18"/>
<text xml:space="preserve" text-anchor="middle" x="417.5" y="-5.88" font-family="Verdana" font-size="10.00">2025</text>
</g>
<!-- 2024&#45;&gt;2025 -->
<g id="edge3" class="edge">
<title>2024&#45;&gt;2025</title>
<path fill="none" stroke="Transparent" d="M268.78,-9C298.13,-9 345.35,-9 378.49,-9"/>
<polygon fill="Transparent" stroke="Transparent" points="378.05,-12.5 388.05,-9 378.05,-5.5 378.05,-12.5"/>
</g>
<!-- 2026 -->
<g id="node5" class="node">
<title>2026</title>
<polygon fill="#d3fdd3" stroke="#008b00" stroke-width="2" points="621.12,-18 567.12,-18 567.12,0 621.12,0 621.12,-18"/>
<text xml:space="preserve" text-anchor="middle" x="594.12" y="-5.88" font-family="Verdana" font-size="10.00">2026</text>
</g>
<!-- 2025&#45;&gt;2026 -->
<g id="edge4" class="edge">
<title>2025&#45;&gt;2026</title>
<path fill="none" stroke="Transparent" d="M445.4,-9C474.76,-9 521.98,-9 555.11,-9"/>
<polygon fill="Transparent" stroke="Transparent" points="554.68,-12.5 564.68,-9 554.68,-5.5 554.68,-12.5"/>
</g>
<!-- 2027 -->
<g id="node6" class="node">
<title>2027</title>
<polygon fill="#d3fdd3" stroke="#008b00" stroke-width="2" points="797.75,-18 743.75,-18 743.75,0 797.75,0 797.75,-18"/>
<text xml:space="preserve" text-anchor="middle" x="770.75" y="-5.88" font-family="Verdana" font-size="10.00">2027</text>
</g>
<!-- 2026&#45;&gt;2027 -->
<g id="edge5" class="edge">
<title>2026&#45;&gt;2027</title>
<path fill="none" stroke="Transparent" d="M622.03,-9C651.38,-9 698.6,-9 731.74,-9"/>
<polygon fill="Transparent" stroke="Transparent" points="731.3,-12.5 741.3,-9 731.3,-5.5 731.3,-12.5"/>
</g>
<!-- 2028 -->
<g id="node7" class="node">
<title>2028</title>
<polygon fill="#d3fdd3" stroke="#008b00" stroke-width="2" points="966.88,-18 912.88,-18 912.88,0 966.88,0 966.88,-18"/>
<text xml:space="preserve" text-anchor="middle" x="939.88" y="-5.88" font-family="Verdana" font-size="10.00">2028</text>
</g>
<!-- 2027&#45;&gt;2028 -->
<g id="edge6" class="edge">
<title>2027&#45;&gt;2028</title>
<path fill="none" stroke="Transparent" d="M798.6,-9C826.26,-9 869.6,-9 900.79,-9"/>
<polygon fill="Transparent" stroke="Transparent" points="900.58,-12.5 910.58,-9 900.58,-5.5 900.58,-12.5"/>
</g>
<!-- 2029 -->
<g id="node8" class="node">
<title>2029</title>
<polygon fill="#d3fdd3" stroke="#008b00" stroke-width="2" points="1047,-18 993,-18 993,0 1047,0 1047,-18"/>
<text xml:space="preserve" text-anchor="middle" x="1020" y="-5.88" font-family="Verdana" font-size="10.00">2029</text>
</g>
<!-- 2028&#45;&gt;2029 -->
<g id="edge7" class="edge">
<title>2028&#45;&gt;2029</title>
<path fill="none" stroke="Transparent" d="M967.76,-9C971.94,-9 976.31,-9 980.68,-9"/>
<polygon fill="Transparent" stroke="Transparent" points="980.55,-12.5 990.55,-9 980.55,-5.5 980.55,-12.5"/>
</g>
<!-- 2030 -->
<g id="node9" class="node">
<title>2030</title>
<polygon fill="#d3fdd3" stroke="#008b00" stroke-width="2" points="1206.75,-18 1152.75,-18 1152.75,0 1206.75,0 1206.75,-18"/>
<text xml:space="preserve" text-anchor="middle" x="1179.75" y="-5.88" font-family="Verdana" font-size="10.00">2030</text>
</g>
<!-- 2029&#45;&gt;2030 -->
<g id="edge8" class="edge">
<title>2029&#45;&gt;2030</title>
<path fill="none" stroke="Transparent" d="M1047.76,-9C1073.26,-9 1111.9,-9 1140.62,-9"/>
<polygon fill="Transparent" stroke="Transparent" points="1140.35,-12.5 1150.35,-9 1140.35,-5.5 1140.35,-12.5"/>
</g>
<!-- E020_Start -->
<g id="node10" class="node">
<title>E020_Start</title>
<ellipse fill="white" stroke="DodgerBlue" stroke-width="2" cx="1020" cy="-50" rx="13.5" ry="13.5"/>
<text xml:space="preserve" text-anchor="middle" x="1020" y="-52.9" font-family="Verdana" font-size="8.00">2029</text>
<text xml:space="preserve" text-anchor="middle" x="1020" y="-42.4" font-family="Verdana" font-size="8.00">Q4</text>
</g>
<!-- E020_End -->
<g id="node11" class="node">
<title>E020_End</title>
<polygon fill="white" stroke="DodgerBlue" stroke-width="2" points="1193.25,-63.5 1166.25,-63.5 1166.25,-36.5 1193.25,-36.5 1193.25,-63.5"/>
<text xml:space="preserve" text-anchor="middle" x="1179.75" y="-52.9" font-family="Verdana" font-size="8.00">2030</text>
<text xml:space="preserve" text-anchor="middle" x="1179.75" y="-42.4" font-family="Verdana" font-size="8.00">Q2</text>
</g>
<!-- E020_Start&#45;&gt;E020_End -->
<g id="edge9" class="edge">
<title>E020_Start&#45;&gt;E020_End</title>
<path fill="none" stroke="DodgerBlue" stroke-width="2" d="M1034.45,-50C1061.92,-50 1124.67,-50 1157.64,-50"/>
<polygon fill="DodgerBlue" stroke="DodgerBlue" stroke-width="2" points="1157.31,-51.75 1162.31,-50 1157.31,-48.25 1157.31,-51.75"/>
<text xml:space="preserve" text-anchor="middle" x="1099.88" y="-66" font-family="Verdana" font-size="10.00">E020 &#45; Fusion 1.x</text>
<text xml:space="preserve" text-anchor="middle" x="1099.88" y="-53.25" font-family="Verdana" font-size="10.00">Patch Cycle</text>
</g>
<!-- E018_Start -->
<g id="node12" class="node">
<title>E018_Start</title>
<ellipse fill="white" stroke="DodgerBlue" stroke-width="2" cx="770.75" cy="-95" rx="13.5" ry="13.5"/>
<text xml:space="preserve" text-anchor="middle" x="770.75" y="-97.9" font-family="Verdana" font-size="8.00">2027</text>
<text xml:space="preserve" text-anchor="middle" x="770.75" y="-87.4" font-family="Verdana" font-size="8.00">Q3</text>
</g>
<!-- E018_End -->
<g id="node13" class="node">
<title>E018_End</title>
<polygon fill="white" stroke="DodgerBlue" stroke-width="2" points="1033.5,-108.5 1006.5,-108.5 1006.5,-81.5 1033.5,-81.5 1033.5,-108.5"/>
<text xml:space="preserve" text-anchor="middle" x="1020" y="-97.9" font-family="Verdana" font-size="8.00">2029</text>
<text xml:space="preserve" text-anchor="middle" x="1020" y="-87.4" font-family="Verdana" font-size="8.00">Q2</text>
</g>
<!-- E018_Start&#45;&gt;E018_End -->
<g id="edge10" class="edge">
<title>E018_Start&#45;&gt;E018_End</title>
<path fill="none" stroke="DodgerBlue" stroke-width="2" d="M785.04,-95C825.63,-95 948.16,-95 997.79,-95"/>
<polygon fill="DodgerBlue" stroke="DodgerBlue" stroke-width="2" points="997.61,-96.75 1002.61,-95 997.61,-93.25 997.61,-96.75"/>
<text xml:space="preserve" text-anchor="middle" x="939.88" y="-111" font-family="Verdana" font-size="10.00">E018 &#45; Fusion</text>
<text xml:space="preserve" text-anchor="middle" x="939.88" y="-98.25" font-family="Verdana" font-size="10.00">Platform R&amp;D</text>
</g>
<!-- E017_Start -->
<g id="node14" class="node">
<title>E017_Start</title>
<ellipse fill="white" stroke="DodgerBlue" stroke-width="2" cx="770.75" cy="-152" rx="13.5" ry="13.5"/>
<text xml:space="preserve" text-anchor="middle" x="770.75" y="-154.9" font-family="Verdana" font-size="8.00">2027</text>
<text xml:space="preserve" text-anchor="middle" x="770.75" y="-144.4" font-family="Verdana" font-size="8.00">Q2</text>
</g>
<!-- E017_End -->
<g id="node15" class="node">
<title>E017_End</title>
<polygon fill="white" stroke="DodgerBlue" stroke-width="2" points="953.38,-165.5 926.38,-165.5 926.38,-138.5 953.38,-138.5 953.38,-165.5"/>
<text xml:space="preserve" text-anchor="middle" x="939.88" y="-154.9" font-family="Verdana" font-size="8.00">2028</text>
<text xml:space="preserve" text-anchor="middle" x="939.88" y="-144.4" font-family="Verdana" font-size="8.00">Q4</text>
</g>
<!-- E017_Start&#45;&gt;E017_End -->
<g id="edge11" class="edge">
<title>E017_Start&#45;&gt;E017_End</title>
<path fill="none" stroke="DodgerBlue" stroke-width="2" d="M785.14,-152C814.11,-152 882.79,-152 917.71,-152"/>
<polygon fill="DodgerBlue" stroke="DodgerBlue" stroke-width="2" points="917.39,-153.75 922.39,-152 917.39,-150.25 917.39,-153.75"/>
<text xml:space="preserve" text-anchor="middle" x="851.75" y="-168" font-family="Verdana" font-size="10.00">E017 &#45; Echo 1.x</text>
<text xml:space="preserve" text-anchor="middle" x="851.75" y="-155.25" font-family="Verdana" font-size="10.00">Support</text>
</g>
<!-- E014_Start -->
<g id="node16" class="node">
<title>E014_Start</title>
<ellipse fill="white" stroke="DodgerBlue" stroke-width="2" cx="770.75" cy="-201" rx="13.5" ry="13.5"/>
<text xml:space="preserve" text-anchor="middle" x="770.75" y="-203.9" font-family="Verdana" font-size="8.00">2027</text>
<text xml:space="preserve" text-anchor="middle" x="770.75" y="-193.4" font-family="Verdana" font-size="8.00">Q1</text>
</g>
<!-- E014_End -->
<g id="node17" class="node">
<title>E014_End</title>
<polygon fill="white" stroke="DodgerBlue" stroke-width="2" points="953.38,-214.5 926.38,-214.5 926.38,-187.5 953.38,-187.5 953.38,-214.5"/>
<text xml:space="preserve" text-anchor="middle" x="939.88" y="-203.9" font-family="Verdana" font-size="8.00">2028</text>
<text xml:space="preserve" text-anchor="middle" x="939.88" y="-193.4" font-family="Verdana" font-size="8.00">Q2</text>
</g>
<!-- E014_Start&#45;&gt;E014_End -->
<g id="edge12" class="edge">
<title>E014_Start&#45;&gt;E014_End</title>
<path fill="none" stroke="DodgerBlue" stroke-width="2" d="M785.14,-201C814.11,-201 882.79,-201 917.71,-201"/>
<polygon fill="DodgerBlue" stroke="DodgerBlue" stroke-width="2" points="917.39,-202.75 922.39,-201 917.39,-199.25 917.39,-202.75"/>
<text xml:space="preserve" text-anchor="middle" x="851.75" y="-217" font-family="Verdana" font-size="10.00">E014 &#45; DeltaCloud</text>
<text xml:space="preserve" text-anchor="middle" x="851.75" y="-204.25" font-family="Verdana" font-size="10.00">2.0 Upgrade</text>
</g>
<!-- E009_Start -->
<g id="node18" class="node">
<title>E009_Start</title>
<ellipse fill="white" stroke="DodgerBlue" stroke-width="2" cx="594.12" cy="-297" rx="13.5" ry="13.5"/>
<text xml:space="preserve" text-anchor="middle" x="594.12" y="-299.9" font-family="Verdana" font-size="8.00">2026</text>
<text xml:space="preserve" text-anchor="middle" x="594.12" y="-289.4" font-family="Verdana" font-size="8.00">Q4</text>
</g>
<!-- E009_End -->
<g id="node19" class="node">
<title>E009_End</title>
<polygon fill="white" stroke="DodgerBlue" stroke-width="2" points="784.25,-327.5 757.25,-327.5 757.25,-300.5 784.25,-300.5 784.25,-327.5"/>
<text xml:space="preserve" text-anchor="middle" x="770.75" y="-316.9" font-family="Verdana" font-size="8.00">2027</text>
<text xml:space="preserve" text-anchor="middle" x="770.75" y="-306.4" font-family="Verdana" font-size="8.00">Q4</text>
</g>
<!-- E009_Start&#45;&gt;E009_End -->
<g id="edge13" class="edge">
<title>E009_Start&#45;&gt;E009_End</title>
<path fill="none" stroke="DodgerBlue" stroke-width="2" d="M608.54,-298.31C638.83,-301.25 712.72,-308.45 748.98,-311.98"/>
<polygon fill="DodgerBlue" stroke="DodgerBlue" stroke-width="2" points="748.37,-313.68 753.52,-312.42 748.71,-310.19 748.37,-313.68"/>
<text xml:space="preserve" text-anchor="middle" x="689" y="-326.33" font-family="Verdana" font-size="10.00">E009 &#45; Beacon 1.x</text>
<text xml:space="preserve" text-anchor="middle" x="689" y="-313.58" font-family="Verdana" font-size="10.00">Enhancements</text>
</g>
<!-- E015_Start -->
<g id="node20" class="node">
<title>E015_Start</title>
<ellipse fill="white" stroke="DodgerBlue" stroke-width="2" cx="594.12" cy="-413" rx="13.5" ry="13.5"/>
<text xml:space="preserve" text-anchor="middle" x="594.12" y="-415.9" font-family="Verdana" font-size="8.00">2026</text>
<text xml:space="preserve" text-anchor="middle" x="594.12" y="-405.4" font-family="Verdana" font-size="8.00">Q1</text>
</g>
<!-- E015_End -->
<g id="node21" class="node">
<title>E015_End</title>
<polygon fill="white" stroke="DodgerBlue" stroke-width="2" points="607.62,-355.5 580.62,-355.5 580.62,-328.5 607.62,-328.5 607.62,-355.5"/>
<text xml:space="preserve" text-anchor="middle" x="594.12" y="-344.9" font-family="Verdana" font-size="8.00">2026</text>
<text xml:space="preserve" text-anchor="middle" x="594.12" y="-334.4" font-family="Verdana" font-size="8.00">Q4</text>
</g>
<!-- E015_Start&#45;&gt;E015_End -->
<g id="edge14" class="edge">
<title>E015_Start&#45;&gt;E015_End</title>
<path fill="none" stroke="DarkOrchid" stroke-width="2" d="M594.12,-398.65C594.12,-388.75 594.12,-375.38 594.12,-364.12"/>
<polygon fill="DarkOrchid" stroke="DarkOrchid" stroke-width="2" points="595.88,-364.39 594.13,-359.39 592.38,-364.4 595.88,-364.39"/>
<text xml:space="preserve" text-anchor="middle" x="578.38" y="-380.75" font-family="Verdana" font-size="10.00">E015 &#45; Echo Services</text>
<text xml:space="preserve" text-anchor="middle" x="578.38" y="-368" font-family="Verdana" font-size="10.00">Pilot</text>
</g>
<!-- E004_Start -->
<g id="node22" class="node">
<title>E004_Start</title>
<ellipse fill="white" stroke="DodgerBlue" stroke-width="2" cx="594.12" cy="-231" rx="13.5" ry="13.5"/>
<text xml:space="preserve" text-anchor="middle" x="594.12" y="-233.9" font-family="Verdana" font-size="8.00">2026</text>
<text xml:space="preserve" text-anchor="middle" x="594.12" y="-223.4" font-family="Verdana" font-size="8.00">Q1</text>
</g>
<!-- E004_End -->
<g id="node23" class="node">
<title>E004_End</title>
<polygon fill="white" stroke="DodgerBlue" stroke-width="2" points="784.25,-263.5 757.25,-263.5 757.25,-236.5 784.25,-236.5 784.25,-263.5"/>
<text xml:space="preserve" text-anchor="middle" x="770.75" y="-252.9" font-family="Verdana" font-size="8.00">2027</text>
<text xml:space="preserve" text-anchor="middle" x="770.75" y="-242.4" font-family="Verdana" font-size="8.00">Q4</text>
</g>
<!-- E004_Start&#45;&gt;E004_End -->
<g id="edge15" class="edge">
<title>E004_Start&#45;&gt;E004_End</title>
<path fill="none" stroke="DarkOrchid" stroke-width="2" d="M608.46,-229.18C633.59,-226.19 689.51,-221.56 734.75,-232.5 739.69,-233.69 744.73,-235.69 749.39,-237.9"/>
<polygon fill="DarkOrchid" stroke="DarkOrchid" stroke-width="2" points="748.41,-239.36 753.65,-240.11 750.01,-236.26 748.41,-239.36"/>
<text xml:space="preserve" text-anchor="middle" x="689" y="-248.5" font-family="Verdana" font-size="10.00">E004 &#45; Atlas 2.0</text>
<text xml:space="preserve" text-anchor="middle" x="689" y="-235.75" font-family="Verdana" font-size="10.00">Development</text>
</g>
<!-- E004_End&#45;&gt;E009_Start -->
<g id="edge29" class="edge">
<title>E004_End&#45;&gt;E009_Start</title>
<path fill="none" stroke="#fc6f1b" stroke-width="2" stroke-dasharray="5,2" d="M756.41,-253.59C725.41,-261.93 648.47,-282.64 613.25,-292.12"/>
<polygon fill="#fc6f1b" stroke="#fc6f1b" stroke-width="2" points="613.08,-291.26 610.89,-292.76 613.53,-292.95 613.08,-291.26"/>
<text xml:space="preserve" text-anchor="middle" x="689" y="-286.01" font-family="Verdana Italic" font-size="8.00" fill="#fc6f1b">dependency</text>
</g>
<!-- E005_Start -->
<g id="node42" class="node">
<title>E005_Start</title>
<polygon fill="white" stroke="DodgerBlue" stroke-width="2" points="953.38,-250 946.62,-263.5 933.12,-263.5 926.38,-250 933.12,-236.5 946.62,-236.5 953.38,-250"/>
<text xml:space="preserve" text-anchor="middle" x="939.88" y="-252.9" font-family="Verdana" font-size="8.00">2028</text>
<text xml:space="preserve" text-anchor="middle" x="939.88" y="-242.4" font-family="Verdana" font-size="8.00">Q1</text>
</g>
<!-- E004_End&#45;&gt;E005_Start -->
<g id="edge30" class="edge">
<title>E004_End&#45;&gt;E005_Start</title>
<path fill="none" stroke="#fc6f1b" stroke-width="2" stroke-dasharray="5,2" d="M785.14,-250C814.85,-250 886.3,-250 920.29,-250"/>
<polygon fill="#fc6f1b" stroke="#fc6f1b" stroke-width="2" points="919.89,-250.88 922.39,-250 919.89,-249.13 919.89,-250.88"/>
<text xml:space="preserve" text-anchor="middle" x="851.75" y="-252.9" font-family="Verdana Italic" font-size="8.00" fill="#fc6f1b">dependency</text>
</g>
<!-- E003_Start -->
<g id="node24" class="node">
<title>E003_Start</title>
<ellipse fill="white" stroke="DodgerBlue" stroke-width="2" cx="417.5" cy="-508" rx="13.5" ry="13.5"/>
<text xml:space="preserve" text-anchor="middle" x="417.5" y="-510.9" font-family="Verdana" font-size="8.00">2025</text>
<text xml:space="preserve" text-anchor="middle" x="417.5" y="-500.4" font-family="Verdana" font-size="8.00">Q4</text>
</g>
<!-- E003_End -->
<g id="node25" class="node">
<title>E003_End</title>
<polygon fill="white" stroke="DodgerBlue" stroke-width="2" points="784.25,-544.5 757.25,-544.5 757.25,-517.5 784.25,-517.5 784.25,-544.5"/>
<text xml:space="preserve" text-anchor="middle" x="770.75" y="-533.9" font-family="Verdana" font-size="8.00">2027</text>
<text xml:space="preserve" text-anchor="middle" x="770.75" y="-523.4" font-family="Verdana" font-size="8.00">Q2</text>
</g>
<!-- E003_Start&#45;&gt;E003_End -->
<g id="edge16" class="edge">
<title>E003_Start&#45;&gt;E003_End</title>
<path fill="none" stroke="DarkOrchid" stroke-width="2" d="M431.84,-508.87C485.2,-512.37 683.5,-525.35 748.77,-529.63"/>
<polygon fill="DarkOrchid" stroke="DarkOrchid" stroke-width="2" points="748.27,-531.35 753.38,-529.93 748.5,-527.85 748.27,-531.35"/>
<text xml:space="preserve" text-anchor="middle" x="594.12" y="-537.79" font-family="Verdana" font-size="10.00">E003 &#45; Atlas 1.x</text>
<text xml:space="preserve" text-anchor="middle" x="594.12" y="-525.04" font-family="Verdana" font-size="10.00">Support</text>
</g>
<!-- E013_Start -->
<g id="node26" class="node">
<title>E013_Start</title>
<ellipse fill="white" stroke="DodgerBlue" stroke-width="2" cx="417.5" cy="-588" rx="13.5" ry="13.5"/>
<text xml:space="preserve" text-anchor="middle" x="417.5" y="-590.9" font-family="Verdana" font-size="8.00">2025</text>
<text xml:space="preserve" text-anchor="middle" x="417.5" y="-580.4" font-family="Verdana" font-size="8.00">Q2</text>
</g>
<!-- E013_End -->
<g id="node27" class="node">
<title>E013_End</title>
<polygon fill="white" stroke="DodgerBlue" stroke-width="2" points="607.62,-601.5 580.62,-601.5 580.62,-574.5 607.62,-574.5 607.62,-601.5"/>
<text xml:space="preserve" text-anchor="middle" x="594.12" y="-590.9" font-family="Verdana" font-size="8.00">2026</text>
<text xml:space="preserve" text-anchor="middle" x="594.12" y="-580.4" font-family="Verdana" font-size="8.00">Q4</text>
</g>
<!-- E013_Start&#45;&gt;E013_End -->
<g id="edge17" class="edge">
<title>E013_Start&#45;&gt;E013_End</title>
<path fill="none" stroke="Red" stroke-width="2" d="M431.91,-588C462.84,-588 539.22,-588 574.59,-588"/>
<polygon fill="Red" stroke="Red" stroke-width="2" points="574.38,-588.88 576.88,-588 574.38,-587.13 574.38,-588.88"/>
<text xml:space="preserve" text-anchor="middle" x="499.25" y="-604" font-family="Verdana" font-size="10.00">E013 &#45; DeltaCloud</text>
<text xml:space="preserve" text-anchor="middle" x="499.25" y="-591.25" font-family="Verdana" font-size="10.00">Integration</text>
</g>
<!-- E007_Start -->
<g id="node28" class="node">
<title>E007_Start</title>
<ellipse fill="white" stroke="DodgerBlue" stroke-width="2" cx="417.5" cy="-637" rx="13.5" ry="13.5"/>
<text xml:space="preserve" text-anchor="middle" x="417.5" y="-639.9" font-family="Verdana" font-size="8.00">2025</text>
<text xml:space="preserve" text-anchor="middle" x="417.5" y="-629.4" font-family="Verdana" font-size="8.00">Q1</text>
</g>
<!-- E007_End -->
<g id="node29" class="node">
<title>E007_End</title>
<polygon fill="white" stroke="DodgerBlue" stroke-width="2" points="607.62,-650.5 580.62,-650.5 580.62,-623.5 607.62,-623.5 607.62,-650.5"/>
<text xml:space="preserve" text-anchor="middle" x="594.12" y="-639.9" font-family="Verdana" font-size="8.00">2026</text>
<text xml:space="preserve" text-anchor="middle" x="594.12" y="-629.4" font-family="Verdana" font-size="8.00">Q2</text>
</g>
<!-- E007_Start&#45;&gt;E007_End -->
<g id="edge18" class="edge">
<title>E007_Start&#45;&gt;E007_End</title>
<path fill="none" stroke="DarkOrchid" stroke-width="2" d="M431.91,-637C462.08,-637 535.48,-637 571.9,-637"/>
<polygon fill="DarkOrchid" stroke="DarkOrchid" stroke-width="2" points="571.88,-638.75 576.88,-637 571.88,-635.25 571.88,-638.75"/>
<text xml:space="preserve" text-anchor="middle" x="499.25" y="-653" font-family="Verdana" font-size="10.00">E007 &#45; Beacon 1.0</text>
<text xml:space="preserve" text-anchor="middle" x="499.25" y="-640.25" font-family="Verdana" font-size="10.00">Development</text>
</g>
<!-- E012_Start -->
<g id="node30" class="node">
<title>E012_Start</title>
<ellipse fill="white" stroke="DodgerBlue" stroke-width="2" cx="240.88" cy="-682" rx="13.5" ry="13.5"/>
<text xml:space="preserve" text-anchor="middle" x="240.88" y="-684.9" font-family="Verdana" font-size="8.00">2024</text>
<text xml:space="preserve" text-anchor="middle" x="240.88" y="-674.4" font-family="Verdana" font-size="8.00">Q3</text>
</g>
<!-- E012_End -->
<g id="node31" class="node">
<title>E012_End</title>
<polygon fill="white" stroke="DodgerBlue" stroke-width="2" points="431,-695.5 404,-695.5 404,-668.5 431,-668.5 431,-695.5"/>
<text xml:space="preserve" text-anchor="middle" x="417.5" y="-684.9" font-family="Verdana" font-size="8.00">2025</text>
<text xml:space="preserve" text-anchor="middle" x="417.5" y="-674.4" font-family="Verdana" font-size="8.00">Q4</text>
</g>
<!-- E012_Start&#45;&gt;E012_End -->
<g id="edge19" class="edge">
<title>E012_Start&#45;&gt;E012_End</title>
<path fill="none" stroke="DarkGreen" stroke-width="2" d="M255.29,-682C285.45,-682 358.85,-682 395.27,-682"/>
<polygon fill="DarkGreen" stroke="DarkGreen" stroke-width="2" points="395.25,-683.75 400.25,-682 395.25,-680.25 395.25,-683.75"/>
<text xml:space="preserve" text-anchor="middle" x="337.62" y="-698" font-family="Verdana" font-size="10.00">E012 &#45; Cipher 1.x</text>
<text xml:space="preserve" text-anchor="middle" x="337.62" y="-685.25" font-family="Verdana" font-size="10.00">Optimization</text>
</g>
<!-- E006_Start -->
<g id="node32" class="node">
<title>E006_Start</title>
<ellipse fill="white" stroke="DodgerBlue" stroke-width="2" cx="240.88" cy="-798" rx="13.5" ry="13.5"/>
<text xml:space="preserve" text-anchor="middle" x="240.88" y="-800.9" font-family="Verdana" font-size="8.00">2024</text>
<text xml:space="preserve" text-anchor="middle" x="240.88" y="-790.4" font-family="Verdana" font-size="8.00">Q2</text>
</g>
<!-- E006_End -->
<g id="node33" class="node">
<title>E006_End</title>
<polygon fill="white" stroke="DodgerBlue" stroke-width="2" points="254.38,-740.5 227.38,-740.5 227.38,-713.5 254.38,-713.5 254.38,-740.5"/>
<text xml:space="preserve" text-anchor="middle" x="240.88" y="-729.9" font-family="Verdana" font-size="8.00">2024</text>
<text xml:space="preserve" text-anchor="middle" x="240.88" y="-719.4" font-family="Verdana" font-size="8.00">Q4</text>
</g>
<!-- E006_Start&#45;&gt;E006_End -->
<g id="edge20" class="edge">
<title>E006_Start&#45;&gt;E006_End</title>
<path fill="none" stroke="DarkGreen" stroke-width="2" d="M240.88,-783.65C240.88,-773.75 240.88,-760.38 240.88,-749.12"/>
<polygon fill="DarkGreen" stroke="DarkGreen" stroke-width="2" points="242.63,-749.39 240.88,-744.39 239.13,-749.4 242.63,-749.39"/>
<text xml:space="preserve" text-anchor="middle" x="225.12" y="-765.75" font-family="Verdana" font-size="10.00">E006 &#45; Beacon UI</text>
<text xml:space="preserve" text-anchor="middle" x="225.12" y="-753" font-family="Verdana" font-size="10.00">Prototype</text>
</g>
<!-- E001_Start -->
<g id="node34" class="node">
<title>E001_Start</title>
<ellipse fill="white" stroke="DodgerBlue" stroke-width="2" cx="125.5" cy="-848" rx="13.5" ry="13.5"/>
<text xml:space="preserve" text-anchor="middle" x="125.5" y="-850.9" font-family="Verdana" font-size="8.00">2023</text>
<text xml:space="preserve" text-anchor="middle" x="125.5" y="-840.4" font-family="Verdana" font-size="8.00">Q1</text>
</g>
<!-- E001_End -->
<g id="node35" class="node">
<title>E001_End</title>
<polygon fill="white" stroke="DodgerBlue" stroke-width="2" points="431,-861.5 404,-861.5 404,-834.5 431,-834.5 431,-861.5"/>
<text xml:space="preserve" text-anchor="middle" x="417.5" y="-850.9" font-family="Verdana" font-size="8.00">2025</text>
<text xml:space="preserve" text-anchor="middle" x="417.5" y="-840.4" font-family="Verdana" font-size="8.00">Q4</text>
</g>
<!-- E001_Start&#45;&gt;E001_End -->
<g id="edge21" class="edge">
<title>E001_Start&#45;&gt;E001_End</title>
<path fill="none" stroke="DarkGreen" stroke-width="2" d="M139.71,-848C185.67,-848 338.77,-848 395.29,-848"/>
<polygon fill="DarkGreen" stroke="DarkGreen" stroke-width="2" points="395.18,-849.75 400.18,-848 395.18,-846.25 395.18,-849.75"/>
<text xml:space="preserve" text-anchor="middle" x="240.88" y="-864" font-family="Verdana" font-size="10.00">E001 &#45; Atlas Core</text>
<text xml:space="preserve" text-anchor="middle" x="240.88" y="-851.25" font-family="Verdana" font-size="10.00">R&amp;D</text>
</g>
<!-- E010_Start -->
<g id="node36" class="node">
<title>E010_Start</title>
<ellipse fill="white" stroke="DodgerBlue" stroke-width="2" cx="27" cy="-905" rx="13.5" ry="13.5"/>
<text xml:space="preserve" text-anchor="middle" x="27" y="-907.9" font-family="Verdana" font-size="8.00">2022</text>
<text xml:space="preserve" text-anchor="middle" x="27" y="-897.4" font-family="Verdana" font-size="8.00">Q3</text>
</g>
<!-- E010_End -->
<g id="node37" class="node">
<title>E010_End</title>
<polygon fill="white" stroke="DodgerBlue" stroke-width="2" points="254.38,-918.5 227.38,-918.5 227.38,-891.5 254.38,-891.5 254.38,-918.5"/>
<text xml:space="preserve" text-anchor="middle" x="240.88" y="-907.9" font-family="Verdana" font-size="8.00">2024</text>
<text xml:space="preserve" text-anchor="middle" x="240.88" y="-897.4" font-family="Verdana" font-size="8.00">Q1</text>
</g>
<!-- E010_Start&#45;&gt;E010_End -->
<g id="edge22" class="edge">
<title>E010_Start&#45;&gt;E010_End</title>
<path fill="none" stroke="DarkGreen" stroke-width="2" d="M41.25,-905C76.93,-905 175.2,-905 218.69,-905"/>
<polygon fill="DarkGreen" stroke="DarkGreen" stroke-width="2" points="218.6,-906.75 223.6,-905 218.6,-903.25 218.6,-906.75"/>
<text xml:space="preserve" text-anchor="middle" x="125.5" y="-921" font-family="Verdana" font-size="10.00">E010 &#45; Cipher Engine</text>
<text xml:space="preserve" text-anchor="middle" x="125.5" y="-908.25" font-family="Verdana" font-size="10.00">Research</text>
</g>
<!-- E011_Start -->
<g id="node38" class="node">
<title>E011_Start</title>
<polygon fill="white" stroke="DodgerBlue" stroke-width="2" points="254.38,-950 247.62,-963.5 234.12,-963.5 227.38,-950 234.12,-936.5 247.62,-936.5 254.38,-950"/>
<text xml:space="preserve" text-anchor="middle" x="240.88" y="-952.9" font-family="Verdana" font-size="8.00">2024</text>
<text xml:space="preserve" text-anchor="middle" x="240.88" y="-942.4" font-family="Verdana" font-size="8.00">Q2</text>
</g>
<!-- E011_Start&#45;&gt;E011_Start -->
<g id="edge23" class="edge">
<title>E011_Start&#45;&gt;E011_Start</title>
<path fill="none" stroke="DarkGreen" stroke-width="2" d="M232.27,-961.96C228.83,-971.57 231.7,-981.5 240.88,-981.5 247.61,-981.5 250.95,-976.15 250.88,-969.49"/>
<polygon fill="DarkGreen" stroke="DarkGreen" stroke-width="2" points="252.67,-969.53 250.03,-964.93 249.23,-970.17 252.67,-969.53"/>
<text xml:space="preserve" text-anchor="middle" x="240.88" y="-997.5" font-family="Verdana" font-size="10.00">E011 &#45; Cipher Engine</text>
<text xml:space="preserve" text-anchor="middle" x="240.88" y="-984.75" font-family="Verdana" font-size="10.00">1.0 Release</text>
</g>
<!-- E002_Start -->
<g id="node39" class="node">
<title>E002_Start</title>
<polygon fill="white" stroke="DodgerBlue" stroke-width="2" points="431,-893 424.25,-906.5 410.75,-906.5 404,-893 410.75,-879.5 424.25,-879.5 431,-893"/>
<text xml:space="preserve" text-anchor="middle" x="417.5" y="-895.9" font-family="Verdana" font-size="8.00">2025</text>
<text xml:space="preserve" text-anchor="middle" x="417.5" y="-885.4" font-family="Verdana" font-size="8.00">Q3</text>
</g>
<!-- E002_Start&#45;&gt;E002_Start -->
<g id="edge24" class="edge">
<title>E002_Start&#45;&gt;E002_Start</title>
<path fill="none" stroke="DarkGreen" stroke-width="2" d="M407.26,-901.07C398.49,-911.68 401.9,-924.5 417.5,-924.5 429.81,-924.5 434.53,-916.52 431.66,-907.94"/>
<polygon fill="DarkGreen" stroke="DarkGreen" stroke-width="2" points="433.24,-907.17 429.24,-903.7 430.2,-908.91 433.24,-907.17"/>
<text xml:space="preserve" text-anchor="middle" x="417.5" y="-940.5" font-family="Verdana" font-size="10.00">E002 &#45; Atlas 1.0</text>
<text xml:space="preserve" text-anchor="middle" x="417.5" y="-927.75" font-family="Verdana" font-size="10.00">Release</text>
</g>
<!-- E008_Start -->
<g id="node40" class="node">
<title>E008_Start</title>
<polygon fill="white" stroke="DodgerBlue" stroke-width="2" points="607.62,-682 600.88,-695.5 587.38,-695.5 580.62,-682 587.38,-668.5 600.88,-668.5 607.62,-682"/>
<text xml:space="preserve" text-anchor="middle" x="594.12" y="-684.9" font-family="Verdana" font-size="8.00">2026</text>
<text xml:space="preserve" text-anchor="middle" x="594.12" y="-674.4" font-family="Verdana" font-size="8.00">Q3</text>
</g>
<!-- E008_Start&#45;&gt;E008_Start -->
<g id="edge25" class="edge">
<title>E008_Start&#45;&gt;E008_Start</title>
<path fill="none" stroke="DodgerBlue" stroke-width="2" d="M583.28,-688.81C571.24,-699.64 574.85,-713.5 594.12,-713.5 609.93,-713.5 615.21,-704.17 609.94,-694.84"/>
<polygon fill="DodgerBlue" stroke="DodgerBlue" stroke-width="2" points="611.42,-693.89 606.89,-691.14 608.72,-696.11 611.42,-693.89"/>
<text xml:space="preserve" text-anchor="middle" x="594.12" y="-729.5" font-family="Verdana" font-size="10.00">E008 &#45; Beacon 1.0</text>
<text xml:space="preserve" text-anchor="middle" x="594.12" y="-716.75" font-family="Verdana" font-size="10.00">Release</text>
</g>
<!-- E016_Start -->
<g id="node41" class="node">
<title>E016_Start</title>
<polygon fill="white" stroke="DodgerBlue" stroke-width="2" points="784.25,-442 777.5,-455.5 764,-455.5 757.25,-442 764,-428.5 777.5,-428.5 784.25,-442"/>
<text xml:space="preserve" text-anchor="middle" x="770.75" y="-444.9" font-family="Verdana" font-size="8.00">2027</text>
<text xml:space="preserve" text-anchor="middle" x="770.75" y="-434.4" font-family="Verdana" font-size="8.00">Q1</text>
</g>
<!-- E016_Start&#45;&gt;E003_Start -->
<g id="edge31" class="edge">
<title>E016_Start&#45;&gt;E003_Start</title>
<path fill="none" stroke="#fc6f1b" stroke-width="2" stroke-dasharray="5,2" d="M757.45,-444.31C704.93,-454.18 499.29,-492.82 436.69,-504.58"/>
<polygon fill="#fc6f1b" stroke="#fc6f1b" stroke-width="2" points="436.69,-503.69 434.39,-505.01 437.01,-505.41 436.69,-503.69"/>
<text xml:space="preserve" text-anchor="middle" x="594.12" y="-484.46" font-family="Verdana Italic" font-size="8.00" fill="#fc6f1b">dependency</text>
</g>
<!-- E016_Start&#45;&gt;E016_Start -->
<g id="edge26" class="edge">
<title>E016_Start&#45;&gt;E016_Start</title>
<path fill="none" stroke="DodgerBlue" stroke-width="2" d="M760.37,-450.07C751.47,-460.68 754.93,-473.5 770.75,-473.5 783.23,-473.5 788.02,-465.52 785.11,-456.94"/>
<polygon fill="DodgerBlue" stroke="DodgerBlue" stroke-width="2" points="786.67,-456.14 782.65,-452.69 783.64,-457.89 786.67,-456.14"/>
<text xml:space="preserve" text-anchor="middle" x="770.75" y="-489.5" font-family="Verdana" font-size="10.00">E016 &#45; Echo 1.0</text>
<text xml:space="preserve" text-anchor="middle" x="770.75" y="-476.75" font-family="Verdana" font-size="10.00">Release</text>
</g>
<!-- E005_Start&#45;&gt;E005_Start -->
<g id="edge27" class="edge">
<title>E005_Start&#45;&gt;E005_Start</title>
<path fill="none" stroke="DodgerBlue" stroke-width="2" d="M932.34,-263.93C930.38,-272.88 932.89,-281.5 939.88,-281.5 944.79,-281.5 947.49,-277.24 947.97,-271.6"/>
<polygon fill="DodgerBlue" stroke="DodgerBlue" stroke-width="2" points="949.74,-271.8 947.63,-266.95 946.25,-272.06 949.74,-271.8"/>
<text xml:space="preserve" text-anchor="middle" x="939.88" y="-297.5" font-family="Verdana" font-size="10.00">E005 &#45; Atlas 2.0</text>
<text xml:space="preserve" text-anchor="middle" x="939.88" y="-284.75" font-family="Verdana" font-size="10.00">Release</text>
</g>
<!-- E019_Start -->
<g id="node43" class="node">
<title>E019_Start</title>
<polygon fill="white" stroke="DodgerBlue" stroke-width="2" points="1033.5,-140 1026.75,-153.5 1013.25,-153.5 1006.5,-140 1013.25,-126.5 1026.75,-126.5 1033.5,-140"/>
<text xml:space="preserve" text-anchor="middle" x="1020" y="-142.9" font-family="Verdana" font-size="8.00">2029</text>
<text xml:space="preserve" text-anchor="middle" x="1020" y="-132.4" font-family="Verdana" font-size="8.00">Q3</text>
</g>
<!-- E019_Start&#45;&gt;E019_Start -->
<g id="edge28" class="edge">
<title>E019_Start&#45;&gt;E019_Start</title>
<path fill="none" stroke="DodgerBlue" stroke-width="2" d="M1013.64,-154.25C1012.11,-163.09 1014.23,-171.5 1020,-171.5 1023.97,-171.5 1026.21,-167.53 1026.73,-162.17"/>
<polygon fill="DodgerBlue" stroke="DodgerBlue" stroke-width="2" points="1028.48,-162.19 1026.5,-157.28 1024.99,-162.35 1028.48,-162.19"/>
<text xml:space="preserve" text-anchor="middle" x="1020" y="-187.5" font-family="Verdana" font-size="10.00">E019 &#45; Fusion 1.0</text>
<text xml:space="preserve" text-anchor="middle" x="1020" y="-174.75" font-family="Verdana" font-size="10.00">Release</text>
</g>
</g>
</svg>
