<?xml version="1.0" encoding="UTF-8" standalone="no"?>
<!DOCTYPE svg PUBLIC "-//W3C//DTD SVG 1.1//EN"
 "http://www.w3.org/Graphics/SVG/1.1/DTD/svg11.dtd">
<!-- Generated by graphviz version 14.1.2 (20260124.0452)
 -->
<!-- Title: Relationship Visualizer Pages: 1 -->
<svg width="914pt" height="1249pt"
 viewBox="0.00 0.00 914.00 1249.00" xmlns="http://www.w3.org/2000/svg" xmlns:xlink="http://www.w3.org/1999/xlink">
<g id="graph0" class="graph" transform="scale(1 1) rotate(0) translate(4 1244.5)">
<title>Relationship Visualizer</title>
<polygon fill="white" stroke="none" points="-4,4 -4,-1244.5 910,-1244.5 910,4 -4,4"/>
<g id="clust1" class="cluster">
<title>cluster_1</title>
<g id="a_clust1"><a xlink:title="System Context for Consumer Notifications Application">
<path fill="none" stroke="#b3b3b3" stroke-width="2" d="M20,-8C20,-8 886,-8 886,-8 892,-8 898,-14 898,-20 898,-20 898,-1220.5 898,-1220.5 898,-1226.5 892,-1232.5 886,-1232.5 886,-1232.5 20,-1232.5 20,-1232.5 14,-1232.5 8,-1226.5 8,-1220.5 8,-1220.5 8,-20 8,-20 8,-14 14,-8 20,-8"/>
<text xml:space="preserve" text-anchor="middle" x="453" y="-1215.2" font-family="Calibri" font-size="14.00" fill="#5b9bd5">System Context for Consumer Notifications Application</text>
</a>
</g>
</g>
<g id="clust3" class="cluster">
<title>cluster_2</title>
<g id="a_clust3"><a xlink:title="Corporate Applications">
<path fill="#f0f0f0" stroke="#b3b3b3" d="M32,-564C32,-564 584,-564 584,-564 590,-564 596,-570 596,-576 596,-576 596,-1167.62 596,-1167.62 596,-1173.62 590,-1179.62 584,-1179.62 584,-1179.62 32,-1179.62 32,-1179.62 26,-1179.62 20,-1173.62 20,-1167.62 20,-1167.62 20,-576 20,-576 20,-570 26,-564 32,-564"/>
<text xml:space="preserve" text-anchor="middle" x="308" y="-1164.22" font-family="Calibri" font-size="12.00">Corporate Applications</text>
</a>
</g>
</g>
<g id="clust4" class="cluster">
<title>cluster_3</title>
<g id="a_clust4"><a xlink:title="Business to Consumer">
<path fill="white" stroke="#b3b3b3" d="M44,-594C44,-594 274,-594 274,-594 280,-594 286,-600 286,-606 286,-606 286,-1129.12 286,-1129.12 286,-1135.12 280,-1141.12 274,-1141.12 274,-1141.12 44,-1141.12 44,-1141.12 38,-1141.12 32,-1135.12 32,-1129.12 32,-1129.12 32,-606 32,-606 32,-600 38,-594 44,-594"/>
<text xml:space="preserve" text-anchor="middle" x="159" y="-1125.72" font-family="Calibri" font-size="12.00">Corporate Applications</text>
</a>
</g>
</g>
<g id="clust5" class="cluster">
<title>cluster_4</title>
<g id="a_clust5"><a xlink:title="Consumer Lending">
<path fill="white" stroke="#b3b3b3" d="M310,-1022.62C310,-1022.62 572,-1022.62 572,-1022.62 578,-1022.62 584,-1028.62 584,-1034.62 584,-1034.62 584,-1135.62 584,-1135.62 584,-1141.62 578,-1147.62 572,-1147.62 572,-1147.62 310,-1147.62 310,-1147.62 304,-1147.62 298,-1141.62 298,-1135.62 298,-1135.62 298,-1034.62 298,-1034.62 298,-1028.62 304,-1022.62 310,-1022.62"/>
<text xml:space="preserve" text-anchor="middle" x="441" y="-1132.22" font-family="Calibri" font-size="12.00">Corporate Applications</text>
</a>
</g>
</g>
<g id="clust6" class="cluster">
<title>cluster_5</title>
<g id="a_clust6"><a xlink:title="Perimeter Network">
<path fill="white" stroke="#b3b3b3" d="M310,-576C310,-576 413,-576 413,-576 419,-576 425,-582 425,-588 425,-588 425,-689 425,-689 425,-695 419,-701 413,-701 413,-701 310,-701 310,-701 304,-701 298,-695 298,-689 298,-689 298,-588 298,-588 298,-582 304,-576 310,-576"/>
<text xml:space="preserve" text-anchor="middle" x="361.5" y="-685.6" font-family="Calibri" font-size="12.00">Corporate Applications</text>
</a>
</g>
</g>
<g id="clust7" class="cluster">
<title>cluster_6</title>
<g id="a_clust7"><a xlink:title="Internet">
<path fill="#f0f0f0" stroke="#b3b3b3" d="M298,-20C298,-20 587,-20 587,-20 593,-20 599,-26 599,-32 599,-32 599,-503 599,-503 599,-509 593,-515 587,-515 587,-515 298,-515 298,-515 292,-515 286,-509 286,-503 286,-503 286,-32 286,-32 286,-26 292,-20 298,-20"/>
<text xml:space="preserve" text-anchor="middle" x="442.5" y="-499.6" font-family="Calibri" font-size="12.00">Internet</text>
</a>
</g>
</g>
<g id="clust8" class="cluster">
<title>cluster_7</title>
<g id="a_clust8"><a xlink:title="Cloud Service Provider">
<path fill="white" stroke="#b3b3b3" d="M310,-358C310,-358 575,-358 575,-358 581,-358 587,-364 587,-370 587,-370 587,-471 587,-471 587,-477 581,-483 575,-483 575,-483 310,-483 310,-483 304,-483 298,-477 298,-471 298,-471 298,-370 298,-370 298,-364 304,-358 310,-358"/>
<text xml:space="preserve" text-anchor="middle" x="442.5" y="-467.6" font-family="Calibri" font-size="12.00">Internet</text>
</a>
</g>
</g>
<g id="clust9" class="cluster">
<title>cluster_8</title>
<g id="a_clust9"><a xlink:title="Consumer&#39;s Home">
<path fill="white" stroke="#b3b3b3" d="M428,-32C428,-32 510,-32 510,-32 516,-32 522,-38 522,-44 522,-44 522,-275.25 522,-275.25 522,-281.25 516,-287.25 510,-287.25 510,-287.25 428,-287.25 428,-287.25 422,-287.25 416,-281.25 416,-275.25 416,-275.25 416,-44 416,-44 416,-38 422,-32 428,-32"/>
<text xml:space="preserve" text-anchor="middle" x="469" y="-271.85" font-family="Calibri" font-size="12.00">Internet</text>
</a>
</g>
</g>
<g id="clust10" class="cluster">
<title>cluster_9</title>
<g id="a_clust10"><a xlink:title="Email Services">
<path fill="white" stroke="#b3b3b3" d="M310,-175.75C310,-175.75 392,-175.75 392,-175.75 398,-175.75 404,-181.75 404,-187.75 404,-187.75 404,-288.75 404,-288.75 404,-294.75 398,-300.75 392,-300.75 392,-300.75 310,-300.75 310,-300.75 304,-300.75 298,-294.75 298,-288.75 298,-288.75 298,-187.75 298,-187.75 298,-181.75 304,-175.75 310,-175.75"/>
<text xml:space="preserve" text-anchor="middle" x="351" y="-285.35" font-family="Calibri" font-size="12.00">Internet</text>
</a>
</g>
</g>
<!-- legend -->
<g id="node1" class="node">
<title>legend</title>
<g id="a_node1"><a xlink:title="Legend">
<text xml:space="preserve" text-anchor="start" x="680.25" y="-1176.95" font-family="Calibri" font-size="14.00">Consumer Notifications</text>
<text xml:space="preserve" text-anchor="start" x="650.25" y="-1162.5" font-family="Calibri" font-weight="bold" font-size="10.00">Actor</text>
<text xml:space="preserve" text-anchor="start" x="727.12" y="-1162.5" font-family="Calibri" font-weight="bold" font-size="10.00">Application</text>
<text xml:space="preserve" text-anchor="start" x="814.5" y="-1162.5" font-family="Calibri" font-weight="bold" font-size="10.00">Data Store</text>
<polygon fill="#e6b8b7" stroke="none" points="618.12,-1135.5 618.12,-1157.5 626.62,-1157.5 626.62,-1135.5 618.12,-1135.5"/>
<text xml:space="preserve" text-anchor="start" x="620.12" y="-1142.25" font-family="Calibri" font-size="10.00"> &#160;</text>
<image xlink:href="images/alarm.png" width="18px" height="18px" preserveAspectRatio="xMinYMin meet" x="629.625" y="-1155.5"/>
<text xml:space="preserve" text-anchor="start" x="652.62" y="-1142.25" font-family="Calibri" font-size="10.00">Alarm</text>
<polygon fill="#4f81bd" stroke="none" points="705.88,-1135.5 705.88,-1157.5 714.38,-1157.5 714.38,-1135.5 705.88,-1135.5"/>
<text xml:space="preserve" text-anchor="start" x="707.88" y="-1142.25" font-family="Calibri" font-size="10.00"> &#160;</text>
<image xlink:href="images/cloud.png" width="18px" height="18px" preserveAspectRatio="xMinYMin meet" x="717.375" y="-1155.5"/>
<text xml:space="preserve" text-anchor="start" x="740.38" y="-1142.25" font-family="Calibri" font-size="10.00">Cloud</text>
<polygon fill="#ffffff" stroke="none" points="795.88,-1135.5 795.88,-1157.5 804.38,-1157.5 804.38,-1135.5 795.88,-1135.5"/>
<text xml:space="preserve" text-anchor="start" x="797.88" y="-1142.25" font-family="Calibri" font-size="10.00"> &#160;</text>
<image xlink:href="images/database.png" width="18px" height="18px" preserveAspectRatio="xMinYMin meet" x="807.375" y="-1155.5"/>
<text xml:space="preserve" text-anchor="start" x="830.38" y="-1142.25" font-family="Calibri" font-size="10.00">Database</text>
<polygon fill="#ccc0da" stroke="none" points="618.12,-1112.5 618.12,-1134.5 626.62,-1134.5 626.62,-1112.5 618.12,-1112.5"/>
<text xml:space="preserve" text-anchor="start" x="620.12" y="-1119.25" font-family="Calibri" font-size="10.00"> &#160;</text>
<image xlink:href="images/robot.png" width="18px" height="18px" preserveAspectRatio="xMinYMin meet" x="629.625" y="-1132.5"/>
<text xml:space="preserve" text-anchor="start" x="652.62" y="-1119.25" font-family="Calibri" font-size="10.00">Bot / Robot</text>
<polygon fill="#ff0000" stroke="none" points="705.88,-1112.5 705.88,-1134.5 714.38,-1134.5 714.38,-1112.5 705.88,-1112.5"/>
<text xml:space="preserve" text-anchor="start" x="707.88" y="-1119.25" font-family="Calibri" font-size="10.00"> &#160;</text>
<image xlink:href="images/commercial.png" width="18px" height="18px" preserveAspectRatio="xMinYMin meet" x="717.375" y="-1132.5"/>
<text xml:space="preserve" text-anchor="start" x="740.38" y="-1119.25" font-family="Calibri" font-size="10.00">Commercial</text>
<polygon fill="#ffffff" stroke="none" points="795.88,-1112.5 795.88,-1134.5 804.38,-1134.5 804.38,-1112.5 795.88,-1112.5"/>
<text xml:space="preserve" text-anchor="start" x="797.88" y="-1119.25" font-family="Calibri" font-size="10.00"> &#160;</text>
<image xlink:href="images/directory.png" width="18px" height="18px" preserveAspectRatio="xMinYMin meet" x="807.375" y="-1132.5"/>
<text xml:space="preserve" text-anchor="start" x="830.38" y="-1119.25" font-family="Calibri" font-size="10.00">Directory</text>
<polygon fill="#d8e4bc" stroke="none" points="618.12,-1089.5 618.12,-1111.5 626.62,-1111.5 626.62,-1089.5 618.12,-1089.5"/>
<text xml:space="preserve" text-anchor="start" x="620.12" y="-1096.25" font-family="Calibri" font-size="10.00"> &#160;</text>
<image xlink:href="images/event.png" width="18px" height="18px" preserveAspectRatio="xMinYMin meet" x="629.625" y="-1109.5"/>
<text xml:space="preserve" text-anchor="start" x="652.62" y="-1096.25" font-family="Calibri" font-size="10.00">Event</text>
<polygon fill="#f79646" stroke="none" points="705.88,-1089.5 705.88,-1111.5 714.38,-1111.5 714.38,-1089.5 705.88,-1089.5"/>
<text xml:space="preserve" text-anchor="start" x="707.88" y="-1096.25" font-family="Calibri" font-size="10.00"> &#160;</text>
<image xlink:href="images/homegrown.png" width="18px" height="18px" preserveAspectRatio="xMinYMin meet" x="717.375" y="-1109.5"/>
<text xml:space="preserve" text-anchor="start" x="740.38" y="-1096.25" font-family="Calibri" font-size="10.00">Homegrown</text>
<polygon fill="#ffffff" stroke="none" points="795.88,-1089.5 795.88,-1111.5 804.38,-1111.5 804.38,-1089.5 795.88,-1089.5"/>
<text xml:space="preserve" text-anchor="start" x="797.88" y="-1096.25" font-family="Calibri" font-size="10.00"> &#160;</text>
<image xlink:href="images/file.png" width="18px" height="18px" preserveAspectRatio="xMinYMin meet" x="807.375" y="-1109.5"/>
<text xml:space="preserve" text-anchor="start" x="830.38" y="-1096.25" font-family="Calibri" font-size="10.00">File</text>
<polygon fill="#fcd5b4" stroke="none" points="618.12,-1066.5 618.12,-1088.5 626.62,-1088.5 626.62,-1066.5 618.12,-1066.5"/>
<text xml:space="preserve" text-anchor="start" x="620.12" y="-1073.25" font-family="Calibri" font-size="10.00"> &#160;</text>
<image xlink:href="images/org.png" width="18px" height="18px" preserveAspectRatio="xMinYMin meet" x="629.625" y="-1086.5"/>
<text xml:space="preserve" text-anchor="start" x="652.62" y="-1073.25" font-family="Calibri" font-size="10.00">Organization</text>
<polygon fill="#9bbb59" stroke="none" points="705.88,-1066.5 705.88,-1088.5 714.38,-1088.5 714.38,-1066.5 705.88,-1066.5"/>
<text xml:space="preserve" text-anchor="start" x="707.88" y="-1073.25" font-family="Calibri" font-size="10.00"> &#160;</text>
<image xlink:href="images/opensource.png" width="18px" height="18px" preserveAspectRatio="xMinYMin meet" x="717.375" y="-1086.5"/>
<text xml:space="preserve" text-anchor="start" x="740.38" y="-1073.25" font-family="Calibri" font-size="10.00">Open&#45;source</text>
<polygon fill="#ffffff" stroke="none" points="795.88,-1066.5 795.88,-1088.5 804.38,-1088.5 804.38,-1066.5 795.88,-1066.5"/>
<text xml:space="preserve" text-anchor="start" x="797.88" y="-1073.25" font-family="Calibri" font-size="10.00"> &#160;</text>
<image xlink:href="images/folder.png" width="18px" height="18px" preserveAspectRatio="xMinYMin meet" x="807.375" y="-1086.5"/>
<text xml:space="preserve" text-anchor="start" x="830.38" y="-1073.25" font-family="Calibri" font-size="10.00">Folder</text>
<polygon fill="#b8cce4" stroke="none" points="618.12,-1043.5 618.12,-1065.5 626.62,-1065.5 626.62,-1043.5 618.12,-1043.5"/>
<text xml:space="preserve" text-anchor="start" x="620.12" y="-1050.25" font-family="Calibri" font-size="10.00"> &#160;</text>
<image xlink:href="images/person.png" width="18px" height="18px" preserveAspectRatio="xMinYMin meet" x="629.625" y="-1063.5"/>
<text xml:space="preserve" text-anchor="start" x="652.62" y="-1050.25" font-family="Calibri" font-size="10.00">Person</text>
<polygon fill="#4bacc6" stroke="none" points="705.88,-1043.5 705.88,-1065.5 714.38,-1065.5 714.38,-1043.5 705.88,-1043.5"/>
<text xml:space="preserve" text-anchor="start" x="707.88" y="-1050.25" font-family="Calibri" font-size="10.00"> &#160;</text>
<image xlink:href="images/partner.png" width="18px" height="18px" preserveAspectRatio="xMinYMin meet" x="717.375" y="-1063.5"/>
<text xml:space="preserve" text-anchor="start" x="740.38" y="-1050.25" font-family="Calibri" font-size="10.00">Partner</text>
<polygon fill="#ffffff" stroke="none" points="795.88,-1043.5 795.88,-1065.5 804.38,-1065.5 804.38,-1043.5 795.88,-1043.5"/>
<text xml:space="preserve" text-anchor="start" x="797.88" y="-1050.25" font-family="Calibri" font-size="10.00"> &#160;</text>
<image xlink:href="images/queue.png" width="18px" height="18px" preserveAspectRatio="xMinYMin meet" x="807.375" y="-1063.5"/>
<text xml:space="preserve" text-anchor="start" x="830.38" y="-1050.25" font-family="Calibri" font-size="10.00">Queue</text>
<polygon fill="#b7dee8" stroke="none" points="618.12,-1020.5 618.12,-1042.5 626.62,-1042.5 626.62,-1020.5 618.12,-1020.5"/>
<text xml:space="preserve" text-anchor="start" x="620.12" y="-1027.25" font-family="Calibri" font-size="10.00"> &#160;</text>
<image xlink:href="images/process.png" width="18px" height="18px" preserveAspectRatio="xMinYMin meet" x="629.625" y="-1040.5"/>
<text xml:space="preserve" text-anchor="start" x="652.62" y="-1027.25" font-family="Calibri" font-size="10.00">Process</text>
<polygon fill="#d9d9d9" stroke="none" points="705.88,-1020.5 705.88,-1042.5 714.38,-1042.5 714.38,-1020.5 705.88,-1020.5"/>
<text xml:space="preserve" text-anchor="start" x="707.88" y="-1027.25" font-family="Calibri" font-size="10.00"> &#160;</text>
<image xlink:href="images/system.png" width="18px" height="18px" preserveAspectRatio="xMinYMin meet" x="717.375" y="-1040.5"/>
<text xml:space="preserve" text-anchor="start" x="740.38" y="-1027.25" font-family="Calibri" font-size="10.00">System</text>
<polygon fill="#ffffff" stroke="none" points="795.88,-1020.5 795.88,-1042.5 804.38,-1042.5 804.38,-1020.5 795.88,-1020.5"/>
<text xml:space="preserve" text-anchor="start" x="797.88" y="-1027.25" font-family="Calibri" font-size="10.00"> &#160;</text>
<image xlink:href="images/repository.png" width="18px" height="18px" preserveAspectRatio="xMinYMin meet" x="807.375" y="-1040.5"/>
<text xml:space="preserve" text-anchor="start" x="830.38" y="-1027.25" font-family="Calibri" font-size="10.00">Repository</text>
<polygon fill="#f0f0f0" stroke="none" points="620.12,-997 620.12,-1013.5 721.5,-1013.5 721.5,-997 620.12,-997"/>
<polygon fill="none" stroke="#b3b3b3" points="620.12,-997 620.12,-1013.5 721.5,-1013.5 721.5,-997 620.12,-997"/>
<text xml:space="preserve" text-anchor="start" x="666" y="-1002" font-family="Calibri" font-weight="bold" font-size="10.00">Source Data:</text>
<polygon fill="none" stroke="#b3b3b3" points="721.5,-997 721.5,-1013.5 873.88,-1013.5 873.88,-997 721.5,-997"/>
<text xml:space="preserve" text-anchor="start" x="724.5" y="-1001" font-family="Calibri" font-size="10.00">Context Diagram Data.xlsx</text>
<polygon fill="#f0f0f0" stroke="none" points="620.12,-980.5 620.12,-997 721.5,-997 721.5,-980.5 620.12,-980.5"/>
<polygon fill="none" stroke="#b3b3b3" points="620.12,-980.5 620.12,-997 721.5,-997 721.5,-980.5 620.12,-980.5"/>
<text xml:space="preserve" text-anchor="start" x="686.25" y="-985.5" font-family="Calibri" font-weight="bold" font-size="10.00">Author:</text>
<polygon fill="none" stroke="#b3b3b3" points="721.5,-980.5 721.5,-997 873.88,-997 873.88,-980.5 721.5,-980.5"/>
<text xml:space="preserve" text-anchor="start" x="724.5" y="-984.5" font-family="Calibri" font-size="10.00">Jeffrey Long</text>
<polygon fill="#f0f0f0" stroke="none" points="620.12,-964 620.12,-980.5 721.5,-980.5 721.5,-964 620.12,-964"/>
<polygon fill="none" stroke="#b3b3b3" points="620.12,-964 620.12,-980.5 721.5,-980.5 721.5,-964 620.12,-964"/>
<text xml:space="preserve" text-anchor="start" x="696.75" y="-969" font-family="Calibri" font-weight="bold" font-size="10.00">Date:</text>
<polygon fill="none" stroke="#b3b3b3" points="721.5,-964 721.5,-980.5 873.88,-980.5 873.88,-964 721.5,-964"/>
<text xml:space="preserve" text-anchor="start" x="724.5" y="-968" font-family="Calibri" font-size="10.00">February 17, 2026</text>
<polygon fill="none" stroke="#b3b3b3" points="616.12,-956 616.12,-1194.25 877.88,-1194.25 877.88,-956 616.12,-956"/>
</a>
</g>
</g>
<!-- Note 4 -->
<g id="node2" class="node">
<title>Note 4</title>
<g id="a_node2"><a xlink:title="Note 4">
<polygon fill="#fffacd" stroke="#ffb90f" stroke-width="0.5" points="829.62,-934 658.38,-934 658.38,-890 835.62,-890 835.62,-928 829.62,-934"/>
<polyline fill="none" stroke="#ffb90f" stroke-width="0.5" points="829.62,-934 829.62,-928"/>
<polyline fill="none" stroke="#ffb90f" stroke-width="0.5" points="835.62,-928 829.62,-928"/>
<text xml:space="preserve" text-anchor="start" x="666.38" y="-918.6" font-family="Calibri" font-size="12.00">Assumption: Consumer can apply</text>
<text xml:space="preserve" text-anchor="start" x="666.38" y="-906.6" font-family="Calibri" font-size="12.00">for credit on&#45;line, or at a</text>
<text xml:space="preserve" text-anchor="start" x="666.38" y="-894.6" font-family="Calibri" font-size="12.00">retail establishment.</text>
</a>
</g>
</g>
<!-- Note 5 -->
<g id="node3" class="node">
<title>Note 5</title>
<g id="a_node3"><a xlink:title="Note 5">
<polygon fill="#fffacd" stroke="#ffb90f" stroke-width="0.5" points="814.62,-765 673.38,-765 673.38,-709 820.62,-709 820.62,-759 814.62,-765"/>
<polyline fill="none" stroke="#ffb90f" stroke-width="0.5" points="814.62,-765 814.62,-759"/>
<polyline fill="none" stroke="#ffb90f" stroke-width="0.5" points="820.62,-759 814.62,-759"/>
<text xml:space="preserve" text-anchor="start" x="681.38" y="-749.6" font-family="Calibri" font-size="12.00">Assumption: Consumer has</text>
<text xml:space="preserve" text-anchor="start" x="681.38" y="-737.6" font-family="Calibri" font-size="12.00">applied for credit, and is</text>
<text xml:space="preserve" text-anchor="start" x="681.38" y="-725.6" font-family="Calibri" font-size="12.00">waiting to learn of the</text>
<text xml:space="preserve" text-anchor="start" x="681.38" y="-713.6" font-family="Calibri" font-size="12.00">decision.</text>
</a>
</g>
</g>
<!-- Note 4&#45;&gt;Note 5 -->
<g id="edge1" class="edge">
<title>Note 4&#45;&gt;Note 5</title>
<path fill="none" stroke="none" stroke-width="0.75" d="M747,-889.79C747,-860.11 747,-805.9 747,-770.94"/>
<polygon fill="none" stroke="none" stroke-width="0.75" points="748.75,-771.21 747,-766.21 745.25,-771.21 748.75,-771.21"/>
</g>
<!-- Consumer Notifications -->
<g id="node4" class="node">
<title>Consumer Notifications</title>
<g id="a_node4"><a xlink:title="Consumer Notifications: A service that helps create, send, and manage various types of notifications to customers, including mobile text message notifications, push notifications, and email notifications.">
<defs>
<linearGradient id="node4_l_0" gradientUnits="userSpaceOnUse" x1="229" y1="-787" x2="229" y2="-868" >
<stop offset="0.849" style="stop-color:White;stop-opacity:1.;"/>
<stop offset="0.850" style="stop-color:#f79646;stop-opacity:1.;"/>
</linearGradient>
</defs>
<polygon fill="url(#node4_l_0)" stroke="#f79646" points="269.5,-868 188.5,-868 188.5,-787 269.5,-787 269.5,-868"/>
<polygon fill="none" stroke="#f79646" points="273.5,-872 184.5,-872 184.5,-783 273.5,-783 273.5,-872"/>
<image xlink:href="images/homegrown.png" width="24px" height="24px" preserveAspectRatio="xMinYMin meet" x="217" y="-811"/>
<text xml:space="preserve" text-anchor="middle" x="229" y="-858.5" font-family="Calibri" font-size="10.00">APP&#45;10016</text>
<text xml:space="preserve" text-anchor="middle" x="229" y="-836" font-family="Calibri" font-size="10.00">Consumer</text>
<text xml:space="preserve" text-anchor="middle" x="229" y="-825.5" font-family="Calibri" font-size="10.00">Notifications</text>
</a>
</g>
</g>
<!-- Notification Queue -->
<g id="node6" class="node">
<title>Notification Queue</title>
<g id="a_node6"><a xlink:title="Notification Queue: Temporarily holds and manages notification messages before they&#39;re delivered to their intended recipients. A digital “waiting room” where prioritized messages line up to be processed in the right order, at the right time.">
<polygon fill="none" stroke="none" stroke-width="0.5" points="230,-651 176,-651 176,-606 230,-606 230,-651"/>
<image xlink:href="images/queue.png" width="24px" height="24px" preserveAspectRatio="xMinYMin meet" x="191" y="-630"/>
<text xml:space="preserve" text-anchor="middle" x="203" y="-641.5" font-family="Calibri" font-size="10.00">Notification</text>
<text xml:space="preserve" text-anchor="middle" x="203" y="-631" font-family="Calibri" font-size="10.00">Queue</text>
</a>
</g>
</g>
<!-- Consumer Notifications&#45;&gt;Notification Queue -->
<g id="edge7" class="edge">
<title>Consumer Notifications&#45;&gt;Notification Queue</title>
<g id="a_edge7"><a xlink:title="Add to send queue">
<path fill="none" stroke="ForestGreen" stroke-width="0.75" d="M184.24,-784.14C179.99,-778.13 176.32,-771.7 173.75,-765 159.86,-728.76 175.08,-684.42 188.24,-656.55"/>
<polygon fill="ForestGreen" stroke="ForestGreen" stroke-width="0.75" points="189.73,-657.49 190.34,-652.23 186.58,-655.96 189.73,-657.49"/>
</a>
</g>
<text xml:space="preserve" text-anchor="start" x="173.75" y="-737.65" font-family="Calibri" font-size="8.00">Add to</text>
<text xml:space="preserve" text-anchor="start" x="173.75" y="-729.4" font-family="Calibri" font-size="8.00">send queue</text>
<text xml:space="preserve" text-anchor="middle" x="176.21" y="-651.86" font-family="Calibri" font-size="8.00" fill="ForestGreen">Enqueue</text>
<text xml:space="preserve" text-anchor="start" x="164.74" y="-793.04" font-family="Calibri" font-size="8.00" fill="ForestGreen">Sends</text>
<text xml:space="preserve" text-anchor="start" x="164.74" y="-784.79" font-family="Calibri" font-size="8.00" fill="ForestGreen">To</text>
</g>
<!-- Consumer Notifications&#45;&gt;Notification Queue -->
<g id="edge8" class="edge">
<title>Consumer Notifications&#45;&gt;Notification Queue</title>
<g id="a_edge8"><a xlink:title="Release from send queue">
<path fill="none" stroke="ForestGreen" stroke-width="0.75" d="M223.23,-782.78C218.16,-744.36 210.94,-689.65 206.63,-657.04"/>
<polygon fill="ForestGreen" stroke="ForestGreen" stroke-width="0.75" points="208.4,-657.07 206.01,-652.34 204.93,-657.53 208.4,-657.07"/>
</a>
</g>
<text xml:space="preserve" text-anchor="start" x="220.59" y="-741.77" font-family="Calibri" font-size="8.00">Release</text>
<text xml:space="preserve" text-anchor="start" x="220.59" y="-733.52" font-family="Calibri" font-size="8.00">from send</text>
<text xml:space="preserve" text-anchor="start" x="220.59" y="-725.27" font-family="Calibri" font-size="8.00">queue</text>
<text xml:space="preserve" text-anchor="middle" x="220.87" y="-651.87" font-family="Calibri" font-size="8.00" fill="ForestGreen">Dequeue</text>
<text xml:space="preserve" text-anchor="start" x="205.23" y="-775.18" font-family="Calibri" font-size="8.00" fill="ForestGreen">Gets</text>
<text xml:space="preserve" text-anchor="start" x="205.23" y="-766.93" font-family="Calibri" font-size="8.00" fill="ForestGreen">From</text>
</g>
<!-- Forward Proxy -->
<g id="node10" class="node">
<title>Forward Proxy</title>
<g id="a_node10"><a xlink:title="Forward Proxy: A type of proxy server that sits between a client and the internet, facilitating requests from the client to external servers.">
<defs>
<linearGradient id="node10_l_1" gradientUnits="userSpaceOnUse" x1="351" y1="-588" x2="351" y2="-669" >
<stop offset="0.849" style="stop-color:White;stop-opacity:1.;"/>
<stop offset="0.850" style="stop-color:#d9d9d9;stop-opacity:1.;"/>
</linearGradient>
</defs>
<polygon fill="url(#node10_l_1)" stroke="#d9d9d9" points="391.5,-669 310.5,-669 310.5,-588 391.5,-588 391.5,-669"/>
<image xlink:href="images/system.png" width="24px" height="24px" preserveAspectRatio="xMinYMin meet" x="339" y="-612"/>
<text xml:space="preserve" text-anchor="middle" x="351" y="-659.5" font-family="Calibri" font-size="10.00">APP&#45;10011</text>
<text xml:space="preserve" text-anchor="middle" x="351" y="-637" font-family="Calibri" font-size="10.00">Forward</text>
<text xml:space="preserve" text-anchor="middle" x="351" y="-626.5" font-family="Calibri" font-size="10.00">Proxy</text>
</a>
</g>
</g>
<!-- Consumer Notifications&#45;&gt;Forward Proxy -->
<g id="edge3" class="edge">
<title>Consumer Notifications&#45;&gt;Forward Proxy</title>
<g id="a_edge3"><a xlink:title="Invoke cloud service to send email">
<path fill="none" stroke="#ffb90f" stroke-width="0.75" d="M253.03,-782.76C265.57,-760.44 281.41,-733 296.5,-709 303.75,-697.47 311.89,-685.24 319.64,-673.92"/>
<polygon fill="#ffb90f" stroke="#ffb90f" stroke-width="0.75" points="320.9,-675.17 322.28,-670.06 318.01,-673.19 320.9,-675.17"/>
</a>
</g>
<text xml:space="preserve" text-anchor="start" x="296.5" y="-745.9" font-family="Calibri" font-size="8.00">Invoke</text>
<text xml:space="preserve" text-anchor="start" x="296.5" y="-737.65" font-family="Calibri" font-size="8.00">cloud</text>
<text xml:space="preserve" text-anchor="start" x="296.5" y="-729.4" font-family="Calibri" font-size="8.00">service to</text>
<text xml:space="preserve" text-anchor="start" x="296.5" y="-721.15" font-family="Calibri" font-size="8.00">send email</text>
<text xml:space="preserve" text-anchor="start" x="301.93" y="-678.02" font-family="Calibri" font-size="8.00" fill="#ffb90f">HTTPS</text>
<text xml:space="preserve" text-anchor="start" x="301.93" y="-669.77" font-family="Calibri" font-size="8.00" fill="#ffb90f">REST</text>
<text xml:space="preserve" text-anchor="start" x="224.53" y="-775.16" font-family="Calibri" font-size="8.00" fill="#ffb90f">Forward</text>
<text xml:space="preserve" text-anchor="start" x="224.53" y="-766.91" font-family="Calibri" font-size="8.00" fill="#ffb90f">Proxy</text>
</g>
<!-- Note 1 -->
<g id="node5" class="node">
<title>Note 1</title>
<g id="a_node5"><a xlink:title="Note 1">
<polygon fill="#fffacd" stroke="#ffb90f" stroke-width="0.5" points="195.5,-1109.12 44.5,-1109.12 44.5,-1041.12 201.5,-1041.12 201.5,-1103.12 195.5,-1109.12"/>
<polyline fill="none" stroke="#ffb90f" stroke-width="0.5" points="195.5,-1109.12 195.5,-1103.12"/>
<polyline fill="none" stroke="#ffb90f" stroke-width="0.5" points="201.5,-1103.12 195.5,-1103.12"/>
<text xml:space="preserve" text-anchor="start" x="52.5" y="-1093.72" font-family="Calibri" font-size="12.00">Business application uses the</text>
<text xml:space="preserve" text-anchor="start" x="52.5" y="-1081.72" font-family="Calibri" font-size="12.00">Consumer Notifications</text>
<text xml:space="preserve" text-anchor="start" x="52.5" y="-1069.72" font-family="Calibri" font-size="12.00">application to send</text>
<text xml:space="preserve" text-anchor="start" x="52.5" y="-1057.72" font-family="Calibri" font-size="12.00">graphics&#45;rich emails to</text>
<text xml:space="preserve" text-anchor="start" x="52.5" y="-1045.72" font-family="Calibri" font-size="12.00">customers.</text>
</a>
</g>
</g>
<!-- System Timer -->
<g id="node7" class="node">
<title>System Timer</title>
<g id="a_node7"><a xlink:title="System Timer: Runs once per minute to inform Consumer Notifications it is time to check for tasks to perform.">
<defs>
<linearGradient id="node7_l_2" gradientUnits="userSpaceOnUse" x1="247" y1="-1048.12" x2="247" y2="-1102.12" >
<stop offset="0.749" style="stop-color:White;stop-opacity:1.;"/>
<stop offset="0.750" style="stop-color:#d8e4bc;stop-opacity:1.;"/>
</linearGradient>
</defs>
<path fill="url(#node7_l_2)" stroke="#d8e4bc" d="M262,-1102.12C262,-1102.12 232,-1102.12 232,-1102.12 226,-1102.12 220,-1096.12 220,-1090.12 220,-1090.12 220,-1060.12 220,-1060.12 220,-1054.12 226,-1048.12 232,-1048.12 232,-1048.12 262,-1048.12 262,-1048.12 268,-1048.12 274,-1054.12 274,-1060.12 274,-1060.12 274,-1090.12 274,-1090.12 274,-1096.12 268,-1102.12 262,-1102.12"/>
<image xlink:href="images/event.png" width="24px" height="24px" preserveAspectRatio="xMinYMin meet" x="235" y="-1072.12"/>
<text xml:space="preserve" text-anchor="middle" x="247" y="-1092.62" font-family="Calibri" font-size="10.00">Event</text>
<text xml:space="preserve" text-anchor="middle" x="247" y="-1082.12" font-family="Calibri" font-size="10.00">System</text>
<text xml:space="preserve" text-anchor="middle" x="247" y="-1071.62" font-family="Calibri" font-size="10.00">Timer</text>
</a>
</g>
</g>
<!-- System Timer&#45;&gt;Consumer Notifications -->
<g id="edge10" class="edge">
<title>System Timer&#45;&gt;Consumer Notifications</title>
<g id="a_edge10"><a xlink:title="Check for pending requests">
<path fill="none" stroke="#d8e4bc" stroke-width="1.5" d="M245.07,-1047.84C242.14,-1007.77 236.49,-930.67 232.73,-879.39"/>
<polygon fill="#d8e4bc" stroke="#d8e4bc" stroke-width="1.5" points="234.49,-879.46 232.38,-874.6 231,-879.71 234.49,-879.46"/>
</a>
</g>
<text xml:space="preserve" text-anchor="start" x="236.39" y="-916.77" font-family="Calibri" font-size="8.00">Check for</text>
<text xml:space="preserve" text-anchor="start" x="236.39" y="-908.52" font-family="Calibri" font-size="8.00">pending</text>
<text xml:space="preserve" text-anchor="start" x="236.39" y="-900.27" font-family="Calibri" font-size="8.00">requests</text>
<text xml:space="preserve" text-anchor="start" x="225.57" y="-1040.24" font-family="Calibri" font-size="8.00" fill="#d8e4bc">Sends</text>
<text xml:space="preserve" text-anchor="start" x="225.57" y="-1031.99" font-family="Calibri" font-size="8.00" fill="#d8e4bc">To</text>
</g>
<!-- Credit Application System -->
<g id="node8" class="node">
<title>Credit Application System</title>
<g id="a_node8"><a xlink:title="Credit Application System: An in&#45;house application used to process customer credit applications, assess creditworthiness, and manage credit risk.">
<defs>
<linearGradient id="node8_l_3" gradientUnits="userSpaceOnUse" x1="351" y1="-1034.62" x2="351" y2="-1115.62" >
<stop offset="0.849" style="stop-color:White;stop-opacity:1.;"/>
<stop offset="0.850" style="stop-color:#f79646;stop-opacity:1.;"/>
</linearGradient>
</defs>
<polygon fill="url(#node8_l_3)" stroke="#f79646" points="391.5,-1115.62 310.5,-1115.62 310.5,-1034.62 391.5,-1034.62 391.5,-1115.62"/>
<image xlink:href="images/homegrown.png" width="24px" height="24px" preserveAspectRatio="xMinYMin meet" x="339" y="-1058.62"/>
<text xml:space="preserve" text-anchor="middle" x="351" y="-1106.12" font-family="Calibri" font-size="10.00">APP&#45;10004</text>
<text xml:space="preserve" text-anchor="middle" x="351" y="-1083.62" font-family="Calibri" font-size="10.00">Credit</text>
<text xml:space="preserve" text-anchor="middle" x="351" y="-1073.12" font-family="Calibri" font-size="10.00">Application</text>
<text xml:space="preserve" text-anchor="middle" x="351" y="-1062.62" font-family="Calibri" font-size="10.00">System</text>
</a>
</g>
</g>
<!-- Credit Application System&#45;&gt;Consumer Notifications -->
<g id="edge2" class="edge">
<title>Credit Application System&#45;&gt;Consumer Notifications</title>
<g id="a_edge2"><a xlink:title="Notify customer of decision">
<path fill="none" stroke="ForestGreen" stroke-width="0.75" d="M336.61,-1034.22C322.25,-996.16 298.55,-937.72 272,-890 269.68,-885.83 267.14,-881.59 264.49,-877.39"/>
<polygon fill="ForestGreen" stroke="ForestGreen" stroke-width="0.75" points="266.13,-876.7 261.96,-873.44 263.19,-878.59 266.13,-876.7"/>
</a>
</g>
<text xml:space="preserve" text-anchor="start" x="292.08" y="-920.9" font-family="Calibri" font-size="8.00">Notify</text>
<text xml:space="preserve" text-anchor="start" x="292.08" y="-912.65" font-family="Calibri" font-size="8.00">customer</text>
<text xml:space="preserve" text-anchor="start" x="292.08" y="-904.4" font-family="Calibri" font-size="8.00">of</text>
<text xml:space="preserve" text-anchor="start" x="292.08" y="-896.15" font-family="Calibri" font-size="8.00">decision</text>
<text xml:space="preserve" text-anchor="start" x="240.35" y="-881.38" font-family="Calibri" font-size="8.00" fill="ForestGreen">HTTPS</text>
<text xml:space="preserve" text-anchor="start" x="240.35" y="-873.13" font-family="Calibri" font-size="8.00" fill="ForestGreen">REST</text>
<text xml:space="preserve" text-anchor="middle" x="330.61" y="-1026.62" font-family="Calibri" font-size="8.00" fill="ForestGreen">ESB</text>
</g>
<!-- Note 2 -->
<g id="node9" class="node">
<title>Note 2</title>
<g id="a_node9"><a xlink:title="Note 2">
<polygon fill="#fffacd" stroke="#ffb90f" stroke-width="0.5" points="566.12,-1109.12 409.88,-1109.12 409.88,-1041.12 572.12,-1041.12 572.12,-1103.12 566.12,-1109.12"/>
<polyline fill="none" stroke="#ffb90f" stroke-width="0.5" points="566.12,-1109.12 566.12,-1103.12"/>
<polyline fill="none" stroke="#ffb90f" stroke-width="0.5" points="572.12,-1103.12 566.12,-1103.12"/>
<text xml:space="preserve" text-anchor="start" x="417.88" y="-1093.72" font-family="Calibri" font-size="12.00">An in&#45;house application used</text>
<text xml:space="preserve" text-anchor="start" x="417.88" y="-1081.72" font-family="Calibri" font-size="12.00">to process customer credit</text>
<text xml:space="preserve" text-anchor="start" x="417.88" y="-1069.72" font-family="Calibri" font-size="12.00">applications, assess</text>
<text xml:space="preserve" text-anchor="start" x="417.88" y="-1057.72" font-family="Calibri" font-size="12.00">creditworthiness, and manage</text>
<text xml:space="preserve" text-anchor="start" x="417.88" y="-1045.72" font-family="Calibri" font-size="12.00">credit risk.</text>
</a>
</g>
</g>
<!-- Marketing CRM -->
<g id="node11" class="node">
<title>Marketing CRM</title>
<g id="a_node11"><a xlink:title="Marketing CRM: A Customer Relationship Management (CRM) platform focused on digital marketing automation and analytics that helps businesses manage their relationships with customers and execute marketing campaigns across various channels.">
<defs>
<linearGradient id="node11_l_4" gradientUnits="userSpaceOnUse" x1="351" y1="-370" x2="351" y2="-451" >
<stop offset="0.849" style="stop-color:White;stop-opacity:1.;"/>
<stop offset="0.850" style="stop-color:#4f81bd;stop-opacity:1.;"/>
</linearGradient>
</defs>
<polygon fill="url(#node11_l_4)" stroke="#4f81bd" points="391.5,-451 310.5,-451 310.5,-370 391.5,-370 391.5,-451"/>
<image xlink:href="images/cloud.png" width="24px" height="24px" preserveAspectRatio="xMinYMin meet" x="339" y="-394"/>
<text xml:space="preserve" text-anchor="middle" x="351" y="-441.5" font-family="Calibri" font-size="10.00">APP&#45;10018</text>
<text xml:space="preserve" text-anchor="middle" x="351" y="-419" font-family="Calibri" font-size="10.00">Marketing</text>
<text xml:space="preserve" text-anchor="middle" x="351" y="-408.5" font-family="Calibri" font-size="10.00">CRM</text>
</a>
</g>
</g>
<!-- Forward Proxy&#45;&gt;Marketing CRM -->
<g id="edge4" class="edge">
<title>Forward Proxy&#45;&gt;Marketing CRM</title>
<g id="a_edge4"><a xlink:title="Invoke cloud service to send email">
<path fill="none" stroke="ForestGreen" stroke-width="0.75" d="M351,-587.63C351,-550.72 351,-495.86 351,-457.2"/>
<polygon fill="ForestGreen" stroke="ForestGreen" stroke-width="0.75" points="352.75,-457.27 351,-452.27 349.25,-457.27 352.75,-457.27"/>
</a>
</g>
<text xml:space="preserve" text-anchor="start" x="351" y="-548.4" font-family="Calibri" font-size="8.00">Invoke</text>
<text xml:space="preserve" text-anchor="start" x="351" y="-540.15" font-family="Calibri" font-size="8.00">cloud</text>
<text xml:space="preserve" text-anchor="start" x="351" y="-531.9" font-family="Calibri" font-size="8.00">service to</text>
<text xml:space="preserve" text-anchor="start" x="351" y="-523.65" font-family="Calibri" font-size="8.00">send email</text>
<text xml:space="preserve" text-anchor="middle" x="343.12" y="-451.79" font-family="Calibri" font-size="8.00" fill="ForestGreen">REST</text>
<text xml:space="preserve" text-anchor="middle" x="340.5" y="-580.03" font-family="Calibri" font-size="8.00" fill="ForestGreen">HTTPS</text>
</g>
<!-- Mail Relay -->
<g id="node15" class="node">
<title>Mail Relay</title>
<g id="a_node15"><a xlink:title="Mail Relay: A Simple Mail Transfer Protocol (SMTP) relay transfers email from one SMTP server to another over the internet until reaching the intended recipent.">
<defs>
<linearGradient id="node15_l_5" gradientUnits="userSpaceOnUse" x1="351" y1="-187.75" x2="351" y2="-268.75" >
<stop offset="0.849" style="stop-color:White;stop-opacity:1.;"/>
<stop offset="0.850" style="stop-color:#d9d9d9;stop-opacity:1.;"/>
</linearGradient>
</defs>
<polygon fill="url(#node15_l_5)" stroke="#d9d9d9" points="391.5,-268.75 310.5,-268.75 310.5,-187.75 391.5,-187.75 391.5,-268.75"/>
<image xlink:href="images/system.png" width="24px" height="24px" preserveAspectRatio="xMinYMin meet" x="339" y="-211.75"/>
<text xml:space="preserve" text-anchor="middle" x="351" y="-259.25" font-family="Calibri" font-size="10.00">APP&#45;10013</text>
<text xml:space="preserve" text-anchor="middle" x="351" y="-236.75" font-family="Calibri" font-size="10.00">Mail Relay</text>
</a>
</g>
</g>
<!-- Marketing CRM&#45;&gt;Mail Relay -->
<g id="edge5" class="edge">
<title>Marketing CRM&#45;&gt;Mail Relay</title>
<g id="a_edge5"><a xlink:title="Format appropriate template and transmit">
<path fill="none" stroke="ForestGreen" stroke-width="0.75" d="M351,-369.94C351,-341.98 351,-304.42 351,-275.14"/>
<polygon fill="ForestGreen" stroke="ForestGreen" stroke-width="0.75" points="352.75,-275.16 351,-270.16 349.25,-275.16 352.75,-275.16"/>
</a>
</g>
<text xml:space="preserve" text-anchor="start" x="351" y="-342.4" font-family="Calibri" font-size="8.00">Format</text>
<text xml:space="preserve" text-anchor="start" x="351" y="-334.15" font-family="Calibri" font-size="8.00">appropriate</text>
<text xml:space="preserve" text-anchor="start" x="351" y="-325.9" font-family="Calibri" font-size="8.00">template</text>
<text xml:space="preserve" text-anchor="start" x="351" y="-317.65" font-family="Calibri" font-size="8.00">and</text>
<text xml:space="preserve" text-anchor="start" x="351" y="-309.4" font-family="Calibri" font-size="8.00">transmit</text>
<text xml:space="preserve" text-anchor="middle" x="341.62" y="-269.68" font-family="Calibri" font-size="8.00" fill="ForestGreen">SMTP</text>
<text xml:space="preserve" text-anchor="middle" x="342.38" y="-362.34" font-family="Calibri" font-size="8.00" fill="ForestGreen">Email</text>
</g>
<!-- Note 3 -->
<g id="node12" class="node">
<title>Note 3</title>
<g id="a_node12"><a xlink:title="Note 3">
<polygon fill="#fffacd" stroke="#ffb90f" stroke-width="0.5" points="568.62,-438.5 409.38,-438.5 409.38,-382.5 574.62,-382.5 574.62,-432.5 568.62,-438.5"/>
<polyline fill="none" stroke="#ffb90f" stroke-width="0.5" points="568.62,-438.5 568.62,-432.5"/>
<polyline fill="none" stroke="#ffb90f" stroke-width="0.5" points="574.62,-432.5 568.62,-432.5"/>
<text xml:space="preserve" text-anchor="start" x="417.38" y="-423.1" font-family="Calibri" font-size="12.00">Consumer Notifications</text>
<text xml:space="preserve" text-anchor="start" x="417.38" y="-411.1" font-family="Calibri" font-size="12.00">application uses cloud&#45;based</text>
<text xml:space="preserve" text-anchor="start" x="417.38" y="-399.1" font-family="Calibri" font-size="12.00">SAAS software to compose and</text>
<text xml:space="preserve" text-anchor="start" x="417.38" y="-387.1" font-family="Calibri" font-size="12.00">deliver the message.</text>
</a>
</g>
</g>
<!-- Consumer -->
<g id="node13" class="node">
<title>Consumer</title>
<g id="a_node13"><a xlink:title="Consumer: The recipient of the email notification being sent.">
<defs>
<linearGradient id="node13_l_6" gradientUnits="userSpaceOnUse" x1="469" y1="-201.25" x2="469" y2="-255.25" >
<stop offset="0.749" style="stop-color:White;stop-opacity:1.;"/>
<stop offset="0.750" style="stop-color:#b8cce4;stop-opacity:1.;"/>
</linearGradient>
</defs>
<path fill="url(#node13_l_6)" stroke="#b8cce4" d="M484,-255.25C484,-255.25 454,-255.25 454,-255.25 448,-255.25 442,-249.25 442,-243.25 442,-243.25 442,-213.25 442,-213.25 442,-207.25 448,-201.25 454,-201.25 454,-201.25 484,-201.25 484,-201.25 490,-201.25 496,-207.25 496,-213.25 496,-213.25 496,-243.25 496,-243.25 496,-249.25 490,-255.25 484,-255.25"/>
<image xlink:href="images/person.png" width="24px" height="24px" preserveAspectRatio="xMinYMin meet" x="457" y="-225.25"/>
<text xml:space="preserve" text-anchor="middle" x="469" y="-245.75" font-family="Calibri" font-size="10.00">Person</text>
<text xml:space="preserve" text-anchor="middle" x="469" y="-235.25" font-family="Calibri" font-size="10.00">Consumer</text>
</a>
</g>
</g>
<!-- Email Client -->
<g id="node14" class="node">
<title>Email Client</title>
<g id="a_node14"><a xlink:title="Email Client: A software application that allows users to access, compose, and send email messages. It acts as the interface between the user and the mail server. Also known as a Mail User Agent.">
<defs>
<linearGradient id="node14_l_7" gradientUnits="userSpaceOnUse" x1="469" y1="-44" x2="469" y2="-125" >
<stop offset="0.849" style="stop-color:White;stop-opacity:1.;"/>
<stop offset="0.850" style="stop-color:#9bbb59;stop-opacity:1.;"/>
</linearGradient>
</defs>
<polygon fill="url(#node14_l_7)" stroke="#9bbb59" points="509.5,-125 428.5,-125 428.5,-44 509.5,-44 509.5,-125"/>
<image xlink:href="images/opensource.png" width="24px" height="24px" preserveAspectRatio="xMinYMin meet" x="457" y="-68"/>
<text xml:space="preserve" text-anchor="middle" x="469" y="-115.5" font-family="Calibri" font-size="10.00">APP&#45;10014</text>
<text xml:space="preserve" text-anchor="middle" x="469" y="-93" font-family="Calibri" font-size="10.00">Email</text>
<text xml:space="preserve" text-anchor="middle" x="469" y="-82.5" font-family="Calibri" font-size="10.00">Client</text>
</a>
</g>
</g>
<!-- Consumer&#45;&gt;Email Client -->
<g id="edge9" class="edge">
<title>Consumer&#45;&gt;Email Client</title>
<g id="a_edge9"><a xlink:title="Read eMail notification">
<path fill="none" stroke="#b8cce4" stroke-width="1.5" d="M469,-193.66C469,-175.41 469,-152.57 469,-132.58"/>
<polygon fill="#b8cce4" stroke="#b8cce4" stroke-width="1.5" points="467.25,-193.65 469,-198.65 470.75,-193.65 467.25,-193.65"/>
<polygon fill="#b8cce4" stroke="#b8cce4" stroke-width="1.5" points="470.75,-132.62 469,-127.62 467.25,-132.62 470.75,-132.62"/>
</a>
</g>
<text xml:space="preserve" text-anchor="start" x="469" y="-156.03" font-family="Calibri" font-size="8.00">Read eMail</text>
<text xml:space="preserve" text-anchor="start" x="469" y="-147.78" font-family="Calibri" font-size="8.00">notification</text>
<text xml:space="preserve" text-anchor="start" x="439.75" y="-193.32" font-family="Calibri" font-size="8.00" fill="#b8cce4">Interacts</text>
<text xml:space="preserve" text-anchor="start" x="439.75" y="-185.07" font-family="Calibri" font-size="8.00" fill="#b8cce4">With</text>
</g>
<!-- Mail Relay&#45;&gt;Email Client -->
<g id="edge6" class="edge">
<title>Mail Relay&#45;&gt;Email Client</title>
<g id="a_edge6"><a xlink:title="Deliver email to mailbox">
<path fill="none" stroke="ForestGreen" stroke-width="0.75" d="M384.18,-187.39C399.14,-169.42 416.85,-148.14 432.21,-129.69"/>
<polygon fill="ForestGreen" stroke="ForestGreen" stroke-width="0.75" points="433.49,-130.9 435.34,-125.94 430.8,-128.66 433.49,-130.9"/>
</a>
</g>
<text xml:space="preserve" text-anchor="start" x="420.57" y="-160.15" font-family="Calibri" font-size="8.00">Deliver</text>
<text xml:space="preserve" text-anchor="start" x="420.57" y="-151.9" font-family="Calibri" font-size="8.00">email to</text>
<text xml:space="preserve" text-anchor="start" x="420.57" y="-143.65" font-family="Calibri" font-size="8.00">mailbox</text>
<text xml:space="preserve" text-anchor="middle" x="426.69" y="-125.71" font-family="Calibri" font-size="8.00" fill="ForestGreen">SMTP</text>
<text xml:space="preserve" text-anchor="middle" x="375.56" y="-179.79" font-family="Calibri" font-size="8.00" fill="ForestGreen">Email</text>
</g>
</g>
</svg>
